<svg id="Grupo_6387" data-name="Grupo 6387" xmlns="http://www.w3.org/2000/svg" width="70" height="26.193">
    <defs>
        <style>
            .cls-1{fill:#019df4;fill-rule:evenodd}
        </style>
    </defs>
    <path id="Sms__1Light" data-name="Sms _1Light" class="cls-1" d="M27.38 46.692v-13a3.308 3.308 0 0 0-3.362-3.24H4.553a3.309 3.309 0 0 0-3.366 3.24v13a3.183 3.183 0 0 0 2.569 3.171.585.585 0 0 1 .476.565v3.147a.857.857 0 0 0 1.565.382l3.073-3.805a.6.6 0 0 1 .468-.22H24.01a3.312 3.312 0 0 0 3.37-3.24zM24.018 29.3a4.479 4.479 0 0 1 4.553 4.391v13a4.479 4.479 0 0 1-4.553 4.391H9.635l-2.886 3.574a2.035 2.035 0 0 1-1.679.837 2 2 0 0 1-2.025-1.915v-2.7A4.345 4.345 0 0 1 0 46.692v-13A4.479 4.479 0 0 1 4.553 29.3zM6.887 39.715c1.037.4 2.329.9 2.329 2.582 0 1.488-1.057 2.342-2.895 2.342a6.48 6.48 0 0 1-2.029-.317.427.427 0 0 1-.272-.5l.08-.322a.427.427 0 0 1 .215-.272.449.449 0 0 1 .354-.037 4.252 4.252 0 0 0 2.919-.012.951.951 0 0 0 .394-.87c0-.837-.577-1.1-1.6-1.5-1.008-.39-2.26-.878-2.26-2.468a2.085 2.085 0 0 1 .7-1.642 4.138 4.138 0 0 1 3.7-.337.43.43 0 0 1 .309.52l-.077.3a.437.437 0 0 1-.211.268.464.464 0 0 1-.346.041 4.885 4.885 0 0 0-1.35-.2c-1.492 0-1.492.7-1.492 1 0 .776.561 1.033 1.545 1.415zm10.643-3.463a.44.44 0 0 1 .447.431v7.371a.437.437 0 0 1-.447.431h-.313a.44.44 0 0 1-.447-.431v-5l-1.951 3.582a.456.456 0 0 1-.394.232h-.333a.453.453 0 0 1-.4-.236L11.818 39.1v4.96a.437.437 0 0 1-.447.431h-.313a.44.44 0 0 1-.447-.431v-7.373a.437.437 0 0 1 .447-.431h.342a.449.449 0 0 1 .4.236l2.48 4.675 2.549-4.683a.458.458 0 0 1 .4-.232zm4.712 3.464c1.037.4 2.329.9 2.329 2.582 0 1.488-1.057 2.342-2.895 2.342a6.48 6.48 0 0 1-2.029-.317.427.427 0 0 1-.272-.5l.077-.313a.427.427 0 0 1 .215-.272.449.449 0 0 1 .354-.037 4.252 4.252 0 0 0 2.919-.012.951.951 0 0 0 .394-.87c0-.837-.577-1.1-1.6-1.5-1.008-.39-2.264-.878-2.264-2.468a2.075 2.075 0 0 1 .7-1.642 4.138 4.138 0 0 1 3.7-.337.432.432 0 0 1 .309.52l-.077.3a.437.437 0 0 1-.211.268.466.466 0 0 1-.346.041 4.879 4.879 0 0 0-1.346-.2c-1.492 0-1.492.7-1.492 1-.008.776.553 1.033 1.541 1.415z" transform="translate(0 -29.3)"/>
    <circle id="Elipse_937" data-name="Elipse 937" cx="1.429" cy="1.429" r="1.429" transform="translate(32.857 10.714)" style="fill:#ec624b"/>
    <path id="Mail_correo_1Light" data-name="Mail correo_1Light" class="cls-1" d="M27.114 121.579a1.624 1.624 0 0 1-1.268.451c-2.24.037-23.356 0-23.579 0a1.1 1.1 0 0 1-.655-.289 1.785 1.785 0 0 1-.411-1.309V106.87l10.599 6.72a4.172 4.172 0 0 0 2.277.707 3.879 3.879 0 0 0 2.167-.679l11.143-6.769-.012 13.68a1.461 1.461 0 0 1-.256 1.049M2.274 104.191h24.071c.15 0 .862.093 1 1.281L15.6 112.615a2.815 2.815 0 0 1-3.134 0l-11.257-7.147a1.763 1.763 0 0 1 .37-1.02.921.921 0 0 1 .7-.256m26.279 16.241.02-14.656c-.061-2.232-1.468-2.74-2.228-2.769L2.274 103a2.091 2.091 0 0 0-1.565.634 3.14 3.14 0 0 0-.7 2.155v14.64a2.9 2.9 0 0 0 .768 2.159 2.229 2.229 0 0 0 1.5.63c.142 0 9.513.016 16.449.016 3.5 0 6.383 0 7.139-.016a2.726 2.726 0 0 0 2.171-.89 2.522 2.522 0 0 0 .516-1.894" transform="translate(41.423 -100.143)"/>
</svg>
