<svg xmlns="http://www.w3.org/2000/svg" width="16.51" height="11.695">
    <path data-name="Trazado 4726" d="M15.49 113.49a.828.828 0 0 1-.592.193c-1.269.021-13.22 0-13.352 0a.445.445 0 0 1-.249-.115.89.89 0 0 1-.181-.616v-7.307l5.73 3.6a2.552 2.552 0 0 0 1.393.43 2.372 2.372 0 0 0 1.311-.406l6.052-3.646-.009 7.328.007.08a.677.677 0 0 1-.11.458M1.555 104h13.641c.012 0 .287.009.378.463l-6.564 3.962a1.428 1.428 0 0 1-1.593-.007l-6.282-3.949a.729.729 0 0 1 .15-.376.352.352 0 0 1 .27-.089m15.045 8.915.012-8.2c-.038-1.435-1.027-1.741-1.431-1.717L1.558 103a1.35 1.35 0 0 0-1.008.409 1.916 1.916 0 0 0-.442 1.323v8.218a1.779 1.779 0 0 0 .484 1.332 1.4 1.4 0 0 0 .966.4c.324 0 5.467.012 9.3.012 1.985 0 3.62 0 4.055-.012a1.711 1.711 0 0 0 1.358-.559 1.627 1.627 0 0 0 .329-1.205" transform="translate(-.106 -103)" style="fill:#86888c;fill-rule:evenodd"/>
</svg>
