<svg id="Grupo_5908" data-name="Grupo 5908" xmlns="http://www.w3.org/2000/svg" width="20" height="19.909">
    <defs>
        <style>
            .cls-1{fill:#86888c}
        </style>
    </defs>
    <path id="Trazado_2533" data-name="Trazado 2533" class="cls-1" d="M14.584 21.009h-9.7a3.73 3.73 0 0 1-2.843-1.058 3.854 3.854 0 0 1-.941-2.736V4.951A3.507 3.507 0 0 1 4.881 1.1h9.7a3.507 3.507 0 0 1 3.781 3.851v4.893a.565.565 0 1 1-1.13 0V4.951A2.857 2.857 0 0 0 16.6 2.96a2.609 2.609 0 0 0-2.015-.726h-9.7a2.609 2.609 0 0 0-2.015.726 2.857 2.857 0 0 0-.64 1.991v12.264a2.355 2.355 0 0 0 2.65 2.66h9.7a2.355 2.355 0 0 0 2.65-2.66v-3.146a.565.565 0 1 1 1.13 0v3.145a3.854 3.854 0 0 1-.938 2.737 3.74 3.74 0 0 1-2.843 1.058z" transform="translate(-1.1 -1.1)"/>
    <path id="Trazado_2534" data-name="Trazado 2534" class="cls-1" d="M127.394 152.115h-9.913a.558.558 0 1 1 0-1.115h9.913a.558.558 0 1 1 0 1.115zm0 3.382h-9.913a.558.558 0 1 1 0-1.114h9.913a.558.558 0 1 1 0 1.114zm-.012 3.382h-9.9a.558.558 0 1 1 0-1.114h9.9a.558.558 0 1 1 0 1.114zm-3.005 3.382h-6.9a.558.558 0 1 1 0-1.115h6.9a.558.558 0 1 1 0 1.115z" transform="translate(-113.708 -146.647)"/>
    <path id="Trazado_2535" data-name="Trazado 2535" class="cls-1" d="M345.081 283.152a.585.585 0 0 1-.552-.767l1-2.97a.58.58 0 0 1 .165-.25c2.25-1.986 5.686-5.026 5.921-5.262a1.966 1.966 0 0 1 2.805 0 2.047 2.047 0 0 1 .589 1.426 1.918 1.918 0 0 1-.6 1.376c-.334.331-5.392 4.809-5.967 5.317a.547.547 0 0 1-.2.116l-2.976.984a.632.632 0 0 1-.185.03zm1.5-3.217-.581 1.722 1.76-.581c2.25-1.992 5.6-4.962 5.836-5.195a.774.774 0 0 0 .253-.555.884.884 0 0 0-.25-.6.8.8 0 0 0-1.161 0c-.322.319-4.913 4.373-5.86 5.209z" transform="translate(-335.006 -265.885)"/>
</svg>
