<svg xmlns="http://www.w3.org/2000/svg" width="16" height="15.921">
    <path data-name="Me gusta_2Regular" d="M8.029 16.931H7.89a1.963 1.963 0 0 1-.325-.045 2.813 2.813 0 0 1-1.037-.466 8.615 8.615 0 0 1-.928-.84 21.618 21.618 0 0 1-2.985-3.737A17.663 17.663 0 0 1 .2 6.433C-.252 4.524.123 2.939 1.255 1.966a4.225 4.225 0 0 1 2.523-.95 5.726 5.726 0 0 1 3.062.752c.334.184.677.384 1.052.6a.256.256 0 0 0 .243 0 34.95 34.95 0 0 1 1.055-.607 5.731 5.731 0 0 1 3.06-.75 4.207 4.207 0 0 1 2.523.952c1.132.971 1.507 2.557 1.052 4.467a17.646 17.646 0 0 1-2.41 5.408 21.368 21.368 0 0 1-2.953 3.7.4.4 0 0 1-.03.034 8.116 8.116 0 0 1-.93.834 2.777 2.777 0 0 1-1.037.466 1.749 1.749 0 0 1-.325.045h-.011a.736.736 0 0 1-.1.014zm-.014-.909h.07A.88.88 0 0 0 8.258 16h.014a1.865 1.865 0 0 0 .7-.318 7.085 7.085 0 0 0 .777-.7.4.4 0 0 1 .027-.032 20.5 20.5 0 0 0 2.873-3.6 16.863 16.863 0 0 0 2.291-5.128 4.8 4.8 0 0 0 .086-2.1 2.606 2.606 0 0 0-.843-1.468 3.309 3.309 0 0 0-1.978-.734 4.841 4.841 0 0 0-2.578.643c-.33.182-.668.377-1.037.6h-.009a1.166 1.166 0 0 1-1.15 0c-.368-.218-.7-.414-1.032-.593a4.8 4.8 0 0 0-2.571-.641 3.283 3.283 0 0 0-1.978.734A2.6 2.6 0 0 0 1 4.126a4.8 4.8 0 0 0 .084 2.1 16.806 16.806 0 0 0 2.289 5.128 20.584 20.584 0 0 0 2.873 3.6 7.153 7.153 0 0 0 .809.73 1.9 1.9 0 0 0 .7.318h.014a1.13 1.13 0 0 0 .173.025h.07z" transform="translate(-.014 -1.01)" style="fill:#50535a"/>
</svg>
