<svg xmlns="http://www.w3.org/2000/svg" width="20" height="19.904">
    <path d="M20.522 9.393a2.009 2.009 0 0 0-1.25-.573 1.815 1.815 0 0 0-.848.139V4.95a3.991 3.991 0 0 0-.941-2.793A3.75 3.75 0 0 0 14.63 1.1H4.894a3.75 3.75 0 0 0-2.853 1.058A3.991 3.991 0 0 0 1.1 4.95v12.26a3.844 3.844 0 0 0 .941 2.736A3.746 3.746 0 0 0 4.894 21h9.736a3.75 3.75 0 0 0 2.852-1.058 3.844 3.844 0 0 0 .941-2.736v-3.2a164.17 164.17 0 0 0 2.092-1.877 1.873 1.873 0 0 0 .584-1.344 2.015 2.015 0 0 0-.578-1.392zM4.95 5.35h9.68a.567.567 0 1 1 0 1.134H4.95a.567.567 0 1 1 0-1.134zm0 3.442h9.68a.567.567 0 1 1 0 1.134H4.95a.567.567 0 1 1 0-1.134zm0 3.442h9.65c-.422.374-.859.76-1.284 1.134H4.95a.567.567 0 1 1 0-1.134zm6.206 4.576H4.95a.567.567 0 0 1 0-1.134h6.586l-.38 1.134zm8.563-5.489c-.23.227-3.5 3.127-5.7 5.072l-1.719.567.564-1.681c.924-.817 5.407-4.775 5.719-5.086a.756.756 0 0 1 .6-.244.835.835 0 0 1 .777.828.749.749 0 0 1-.241.544z" transform="translate(-1.1 -1.1)" style="fill:#019df4"/>
</svg>
