<svg xmlns="http://www.w3.org/2000/svg" width="619" height="250">
    <defs>
        <clipPath id="clip-path">
            <path id="Rectángulo_3309" data-name="Rectángulo 3309" class="cls-1" transform="translate(747 69)" d="M0 0h619v250H0z"/>
        </clipPath>
        <clipPath id="clip-path-2">
            <path id="Rectángulo_3307" data-name="Rectángulo 3307" class="cls-2" d="M0 0h12.568v24.853H0z"/>
        </clipPath>
        <style>
            .cls-1,.cls-14{fill:#019df4}.cls-2,.cls-21{fill:none}.cls-9{fill:#2eaef5}.cls-10{fill:#49bcef}.cls-14,.cls-17,.cls-18{opacity:.8}.cls-17{fill:#1b5a83}.cls-18,.cls-20{fill:#0b2739}.cls-21{stroke:#576583;stroke-linecap:round;stroke-linejoin:round}.cls-22{fill:#f8a780}.cls-24{fill:#051017}.cls-26{fill:#eef1f9}
        </style>
    </defs>
    <g id="Enmascarar_grupo_167" data-name="Enmascarar grupo 167" transform="translate(-747 -69)" style="opacity:.96;clip-path:url(#clip-path)">
        <g id="Grupo_6361" data-name="Grupo 6361" transform="translate(766.53 -349.747)" style="opacity:.9">
            <g id="Grupo_6358" data-name="Grupo 6358" transform="translate(326 394)" style="opacity:.7">
                <rect id="Rectángulo_3294" data-name="Rectángulo 3294" width="245.562" height="92.45" rx="12" transform="translate(42.298 55.507)" style="fill:rgba(11,39,57,.59)"/>
                <rect id="Rectángulo_3297" data-name="Rectángulo 3297" width="252.788" height="69.814" rx="12" transform="translate(36.9 157.2)" style="fill:#1676ac"/>
                <rect id="Rectángulo_3298" data-name="Rectángulo 3298" width="234.584" height="32.853" rx="6.539" transform="translate(45.978 224.123)" style="fill:#eaebe2"/>
                <rect id="Rectángulo_3299" data-name="Rectángulo 3299" class="cls-1" width="276.215" height="11.407" rx="2.685" transform="translate(24.424 215.606)"/>
                <rect id="Rectángulo_3300" data-name="Rectángulo 3300" class="cls-2" width="55.06" height="12.472" rx="1.733" transform="translate(151.887 234.466)"/>
                <rect id="Rectángulo_3301" data-name="Rectángulo 3301" class="cls-1" width="55.06" height="12.472" rx="1.733" transform="translate(215.235 234.466)"/>
                <rect id="Rectángulo_3302" data-name="Rectángulo 3302" class="cls-1" width="55.06" height="12.472" rx="1.733" transform="translate(57.737 234.466)"/>
                <rect id="Rectángulo_3303" data-name="Rectángulo 3303" class="cls-1" width="80.388" height="12.472" rx="1.733" transform="translate(123.44 234.314)"/>
                <g id="Grupo_6352" data-name="Grupo 6352" transform="translate(48.443 63.254)">
                    <g id="Grupo_6350" data-name="Grupo 6350">
                        <path id="Trazado_4727" data-name="Trazado 4727" class="cls-9" d="M1400.456-5273.634v34.114a6.1 6.1 0 0 0 6.09 6.084h23.74z" transform="translate(-1400.456 5310.393)"/>
                        <path id="Trazado_4728" data-name="Trazado 4728" class="cls-9" d="m1307.406-5324.514 55.211 76.957h20.229l-55.666-76.957z" transform="translate(-1285.789 5324.514)"/>
                        <path id="Trazado_4729" data-name="Trazado 4729" class="cls-9" d="m1221.1-5324.514 55.666 76.957h54.756l-56.273-76.957z" transform="translate(-1172.105 5324.514)"/>
                        <path id="Trazado_4730" data-name="Trazado 4730" class="cls-9" d="m1135.615-5324.514 55.666 76.957h8.518l-55.673-76.957z" transform="translate(-978.63 5324.514)"/>
                        <path id="Trazado_4731" data-name="Trazado 4731" class="cls-10" d="M1335.406-5318.431v30.676l29.831 40.2h47l-55.211-76.957H1341.5a6.1 6.1 0 0 0-6.094 6.081z" transform="translate(-1335.406 5324.514)"/>
                        <path id="Trazado_4732" data-name="Trazado 4732" class="cls-10" d="m1296.885-5324.514 55.666 76.957h7.6l-55.666-76.957z" transform="translate(-1255.495 5324.514)"/>
                        <path id="Trazado_4733" data-name="Trazado 4733" class="cls-10" d="m1147.406-5324.514 56.273 76.957h53.239l-55.666-76.957z" transform="translate(-1044.265 5324.514)"/>
                        <path id="Trazado_4734" data-name="Trazado 4734" class="cls-10" d="m1118.866-5324.514 55.673 76.957h6.018a6.1 6.1 0 0 0 6.083-6.083v-28.639l-31.572-42.234z" transform="translate(-953.37 5324.514)"/>
                        <path id="Trazado_4735" data-name="Trazado 4735" class="cls-9" d="m1118.866-5324.514 31.572 42.234v-36.152a6.1 6.1 0 0 0-6.083-6.083z" transform="translate(-917.167 5324.514)"/>
                    </g>
                    <g id="Grupo_6351" data-name="Grupo 6351">
                        <path id="Trazado_4736" data-name="Trazado 4736" class="cls-2" d="M1118.866-5287.755v34.115a6.1 6.1 0 0 0 6.09 6.083h221.1a6.1 6.1 0 0 0 6.083-6.083v-64.791a6.1 6.1 0 0 0-6.083-6.083h-221.1a6.1 6.1 0 0 0-6.09 6.083z" transform="translate(-1118.866 5324.514)"/>
                    </g>
                </g>
            </g>
        </g>
        <rect id="Rectángulo_3294-2" data-name="Rectángulo 3294" width="245.562" height="92.45" rx="12" transform="translate(808.828 98.76)" style="opacity:.8;fill:rgba(11,39,57,.59)"/>
        <rect id="Rectángulo_3297-2" data-name="Rectángulo 3297" width="252.788" height="69.814" rx="12" transform="translate(803.429 200.453)" style="opacity:.8;fill:#1676ac"/>
        <rect id="Rectángulo_3298-2" data-name="Rectángulo 3298" width="234.584" height="32.853" rx="6.539" transform="translate(812.508 267.376)" style="opacity:.8;fill:#eaebe2"/>
        <path id="Trazado_4758" data-name="Trazado 4758" class="cls-14" d="M2.685 0H273.53a2.685 2.685 0 0 1 2.685 2.685v6.037a2.685 2.685 0 0 1-2.685 2.685H2.685A2.685 2.685 0 0 1 0 8.722V2.685A2.685 2.685 0 0 1 2.685 0z" transform="translate(790.953 258.859)"/>
        <rect id="Rectángulo_3300-2" data-name="Rectángulo 3300" width="55.06" height="12.472" rx="1.733" transform="translate(918.416 277.719)" style="opacity:.8;fill:none"/>
        <rect id="Rectángulo_3301-2" data-name="Rectángulo 3301" class="cls-14" width="55.06" height="12.472" rx="1.733" transform="translate(981.765 277.719)"/>
        <rect id="Rectángulo_3302-2" data-name="Rectángulo 3302" class="cls-14" width="55.06" height="12.472" rx="1.733" transform="translate(824.267 277.719)"/>
        <rect id="Rectángulo_3303-2" data-name="Rectángulo 3303" class="cls-14" width="80.388" height="12.472" rx="1.733" transform="translate(889.97 277.567)"/>
        <g id="Grupo_6352-2" data-name="Grupo 6352" transform="translate(814.972 106.506)" style="opacity:.8">
            <g id="Grupo_6350-2" data-name="Grupo 6350">
                <path id="Trazado_4727-2" data-name="Trazado 4727" class="cls-9" d="M1400.456-5273.634v34.114a6.1 6.1 0 0 0 6.09 6.084h23.74z" transform="translate(-1400.456 5310.393)"/>
                <path id="Trazado_4728-2" data-name="Trazado 4728" class="cls-9" d="m1307.406-5324.514 55.211 76.957h20.229l-55.666-76.957z" transform="translate(-1285.789 5324.514)"/>
                <path id="Trazado_4729-2" data-name="Trazado 4729" class="cls-9" d="m1221.1-5324.514 55.666 76.957h54.756l-56.273-76.957z" transform="translate(-1172.105 5324.514)"/>
                <path id="Trazado_4730-2" data-name="Trazado 4730" class="cls-9" d="m1135.615-5324.514 55.666 76.957h8.518l-55.673-76.957z" transform="translate(-978.63 5324.514)"/>
                <path id="Trazado_4731-2" data-name="Trazado 4731" class="cls-10" d="M1335.406-5318.431v30.676l29.831 40.2h47l-55.211-76.957H1341.5a6.1 6.1 0 0 0-6.094 6.081z" transform="translate(-1335.406 5324.514)"/>
                <path id="Trazado_4732-2" data-name="Trazado 4732" class="cls-10" d="m1296.885-5324.514 55.666 76.957h7.6l-55.666-76.957z" transform="translate(-1255.495 5324.514)"/>
                <path id="Trazado_4733-2" data-name="Trazado 4733" class="cls-10" d="m1147.406-5324.514 56.273 76.957h53.239l-55.666-76.957z" transform="translate(-1044.265 5324.514)"/>
                <path id="Trazado_4734-2" data-name="Trazado 4734" class="cls-10" d="m1118.866-5324.514 55.673 76.957h6.018a6.1 6.1 0 0 0 6.083-6.083v-28.639l-31.572-42.234z" transform="translate(-953.37 5324.514)"/>
                <path id="Trazado_4735-2" data-name="Trazado 4735" class="cls-9" d="m1118.866-5324.514 31.572 42.234v-36.152a6.1 6.1 0 0 0-6.083-6.083z" transform="translate(-917.167 5324.514)"/>
            </g>
            <g id="Grupo_6351-2" data-name="Grupo 6351">
                <path id="Trazado_4736-2" data-name="Trazado 4736" class="cls-2" d="M1118.866-5287.755v34.115a6.1 6.1 0 0 0 6.09 6.083h221.1a6.1 6.1 0 0 0 6.083-6.083v-64.791a6.1 6.1 0 0 0-6.083-6.083h-221.1a6.1 6.1 0 0 0-6.09 6.083z" transform="translate(-1118.866 5324.514)"/>
            </g>
        </g>
        <path id="Trazado_4757" data-name="Trazado 4757" class="cls-17" d="M1.416 0h603.25a1.416 1.416 0 0 1 1.416 1.416v1.7a1.416 1.416 0 0 1-1.416 1.416H1.416A1.416 1.416 0 0 1 0 3.114v-1.7A1.416 1.416 0 0 1 1.416 0z" transform="translate(770.918 116.518)"/>
        <rect id="Rectángulo_3296" data-name="Rectángulo 3296" class="cls-17" width="5.823" height="191.825" rx="1.15" transform="translate(790.953 116.518)"/>
        <rect id="Rectángulo_3305" data-name="Rectángulo 3305" class="cls-18" width="10.47" height="9.302" rx="2.663" transform="translate(766.529 114.132)"/>
        <rect id="Rectángulo_3304" data-name="Rectángulo 3304" class="cls-18" width="10.47" height="9.302" rx="2.663" transform="translate(788.65 299.445)"/>
        <g id="Grupo_6359" data-name="Grupo 6359" transform="translate(859.085 143.45)" style="opacity:.98">
            <path id="Trazado_4737" data-name="Trazado 4737" class="cls-20" d="m1650.805-5144.264 19.6 12.527 22-13.039-7.621-8.44h-26.187z" transform="translate(-1612.382 5238.238)"/>
            <path id="Trazado_4738" data-name="Trazado 4738" class="cls-21" d="m1650.805-5144.264 19.6 12.527 22-13.039-7.621-8.44h-26.187z" transform="translate(-1612.382 5238.238)"/>
            <path id="Trazado_4739" data-name="Trazado 4739" class="cls-22" d="M1670.631-5207.605c-.271-.543-9.248 10.626-9.248 10.626a71.753 71.753 0 0 1-1.431 9.516s-25.482 16.5-26.574 16.746a1.063 1.063 0 0 0 .32 1.89l7.885 2.253 27.981-16.663s4.221-18.059 1.066-24.369" transform="translate(-1584.485 5270.481)"/>
            <path id="Trazado_4740" data-name="Trazado 4740" d="M1563.677-5136.076s32.705-21.652 44.937-26.475c0 0 15.855-7.556 23.448-4.159 0 0 5.862 3.214 0 12.479 0 0-11.233 16.546-49.573 22.5-1.746.272-12.461 1.7-16.239 2.081z" transform="translate(-1519.14 5246.755)" style="fill:#0a2f46"/>
            <path id="Trazado_4741" data-name="Trazado 4741" class="cls-24" d="M1752.841-5097.271c-.749.4-8.343-.518-10.294-1.312a69.453 69.453 0 0 0-7.542-1.886s-4.358-.545-4.473 3.69a6.846 6.846 0 0 0 3.34 6.331c.263.159.769.419 1.075.563h19.6z" transform="translate(-1706.994 5206.993)"/>
            <path id="Trazado_4742" data-name="Trazado 4742" class="cls-24" d="M1624.378-5097.271c.749.4 8.343-.518 10.294-1.312a69.49 69.49 0 0 1 7.541-1.886s4.358-.545 4.473 3.69a6.846 6.846 0 0 1-3.34 6.331 14.77 14.77 0 0 1-1.075.563h-19.6z" transform="translate(-1555.194 5206.993)"/>
            <path id="Trazado_4743" data-name="Trazado 4743" class="cls-20" d="M1744.226-5133.67a1.537 1.537 0 0 0-.62-1.816c-6.234-3.974-39.03-24.594-53.386-27.893 0 0-9.564-2.438-14.685 1.09a1.77 1.77 0 0 0-.146.112c-.655.561-4.815 4.64 2.094 12.585a1.448 1.448 0 0 1 .115.151c.593.9 6.938 10 24.536 15.75 0 0 21.011 7.1 38.922 6.117a1.532 1.532 0 0 0 1.353-1.019z" transform="translate(-1673.549 5244.748)"/>
            <path id="Trazado_4744" data-name="Trazado 4744" d="M1659.8-5279.423c4-.179 30.221.187 29.228 40.717a1.339 1.339 0 0 1-1.335 1.308h-11.113a1.335 1.335 0 0 0-1.3 1.023l-1.862 7.742a1.334 1.334 0 0 1-1.3 1.023h-24.479a1.335 1.335 0 0 1-1.309-1.076l-1.508-7.636a1.336 1.336 0 0 0-1.309-1.077H1631.9a1.338 1.338 0 0 1-1.335-1.308c-.994-40.531 25.23-40.9 29.228-40.717" transform="translate(-1600.763 5313.042)" style="fill:#d3d4d3"/>
            <path id="Línea_307" data-name="Línea 307" class="cls-26" transform="translate(72.412 58.828)" d="M6.297 0 0 26.194"/>
            <path id="Línea_308" data-name="Línea 308" class="cls-26" transform="translate(39.929 58.828)" d="M6.297 26.194 0 0"/>
            <rect id="Rectángulo_3306" data-name="Rectángulo 3306" width="12.031" height="21.071" rx="3" transform="translate(56.602 46.808)" style="fill:#ec624b"/>
            <path id="Trazado_4749" data-name="Trazado 4749" class="cls-22" d="M1691.883-5208.471h-10.253s0 2.881 1.484 12.4l9.464 4.884s14.308-25.327 15.332-28.5c0 0 8.025-1.744 10.23-5.153a.584.584 0 0 0-.5-.891h-9.926v-3.886a.319.319 0 0 0-.59-.169c-2.555 4.2-4.479 8.345-15.514 26.628a41.442 41.442 0 0 0 .273-5.313" transform="translate(-1650.755 5283.705)"/>
            <path id="Trazado_4750" data-name="Trazado 4750" class="cls-22" d="M1670.5-5276.985a28.272 28.272 0 0 1 10.571-1.738 28.32 28.32 0 0 1 12.647 2.6c-1.752 4.637-5.255 10.658-11.642 10.658-5.85 0-9.5-6.152-11.576-11.524" transform="translate(-1621.707 5312.627)"/>
            <path id="Trazado_4751" data-name="Trazado 4751" class="cls-22" d="M1677.128-5296.569c6.873-4.413 6.69-14.378 6.69-14.378h5.689s.533 11.05 6.686 14.657" transform="translate(-1626.883 5331.712)"/>
            <path id="Trazado_4752" data-name="Trazado 4752" class="cls-21" d="M1677.128-5296.569c6.873-4.413 6.69-14.378 6.69-14.378h5.689s.533 11.05 6.686 14.657" transform="translate(-1626.883 5331.712)"/>
            <g id="Grupo_6355" data-name="Grupo 6355" transform="translate(59.644 22.516)" style="opacity:.15">
                <g id="Grupo_6354" data-name="Grupo 6354">
                    <g id="Grupo_6353" data-name="Grupo 6353" style="clip-path:url(#clip-path-2)">
                        <path id="Trazado_4753" data-name="Trazado 4753" d="m1670.5-5304.061 2.978-2.087c.465 3.338 1.945 10.042 6.482 12.7h-.015a26.89 26.89 0 0 1 2.715 1.085c-1.752 4.637-5.255 10.658-11.642 10.658 6.967-9.974-.519-22.357-.519-22.357" transform="translate(-1670.294 5306.352)" style="fill:#576583"/>
                        <path id="Trazado_4754" data-name="Trazado 4754" class="cls-21" d="m1670.5-5304.061 2.978-2.087c.465 3.338 1.945 10.042 6.482 12.7h-.015a26.89 26.89 0 0 1 2.715 1.085c-1.752 4.637-5.255 10.658-11.642 10.658 6.966-9.972-.518-22.356-.518-22.356z" transform="translate(-1670.294 5306.352)"/>
                    </g>
                </g>
            </g>
            <path id="Trazado_4755" data-name="Trazado 4755" class="cls-22" d="M1680.744-5345.914c0 7 3.608 12.668 8.059 12.668s8.059-5.671 8.059-12.668-3.608-12.668-8.059-12.668-8.059 5.671-8.059 12.668" transform="translate(-1629.026 5359.941)"/>
            <path id="Trazado_4756" data-name="Trazado 4756" d="M1689.476-5361.783a8.4 8.4 0 0 1 7.484 2.421s4.26 3.194 6.724 15.955c0 0 4.233 10.947-2.311 17.388 0 0-5.365-.759-7.347-10.356 0 0 3.987-2.5 4.577-10.9 0 0-11.076-1.246-12.993-5.078a7.859 7.859 0 0 1-3.073 3.849s-.328 8.575 4.733 12.3c0 0-.424 9.43-7.473 11.023a20.8 20.8 0 0 0-13.22 9.347l-.48.725s-3.948-10.991 3.07-16.421c0 0-2.256-10.275 5.681-15.539 0 0 4.01-2.923 4.595-5.179 0 0 1.684-9.542 10.031-9.534" transform="translate(-1630.777 5361.918)" style="fill:#983230"/>
        </g>
    </g>
</svg>
