<svg data-name="Grupo 5093" xmlns="http://www.w3.org/2000/svg" width="26" height="18.403">
    <path data-name="Visa tarjeta credito _3Masa" d="M24.091 119.935a.29.29 0 0 0 .292-.288v-7.6H1.606v7.6a.293.293 0 0 0 .3.288zM1.9 104.66a.294.294 0 0 0-.3.292v1.575h22.783v-1.575a.3.3 0 0 0-.292-.292zm24.1 2.651v3.948c0 .037-.018.074-.022.111v8.277a1.874 1.874 0 0 1-1.887 1.856H1.9a1.874 1.874 0 0 1-1.887-1.856v-8.322a.352.352 0 0 1-.013-.066v-3.948a.313.313 0 0 1 .015-.063v-2.292A1.874 1.874 0 0 1 1.9 103.1h22.19a1.874 1.874 0 0 1 1.887 1.856v2.244a.78.78 0 0 1 .023.111zm-9.482 10.318A1.368 1.368 0 0 0 18 116.087a1.388 1.388 0 0 0-1.5-1.553h-.192a1.349 1.349 0 0 0-1.461 1.542 1.372 1.372 0 0 0 1.48 1.556zm3.788-4.447a2.9 2.9 0 0 1 0 5.808h-.229a3.121 3.121 0 0 1-1.776-.569 3.133 3.133 0 0 1-1.761.566h-.229a2.907 2.907 0 0 1-.015-5.811h.244a3.16 3.16 0 0 1 1.742.566 3.2 3.2 0 0 1 1.783-.569c.079.001.167.005.241.008z" transform="translate(0 -103.1)" style="fill:#019df4;fill-rule:evenodd"/>
</svg>
