<svg xmlns="http://www.w3.org/2000/svg" width="26" height="25.991">
    <path data-name="(2)Cuidar_2Regular" d="M18.472 20.95c.359-.229.326-.285.2-.536a.464.464 0 0 0-.584-.24l-3.943 1.38c-.044.011-.085 0-.129.011a2.045 2.045 0 0 1-1.043.307H8.027a.821.821 0 0 1 0-1.642h4.942a.509.509 0 0 0 .455-.459.368.368 0 0 0-.314-.407l-.27.011a7.468 7.468 0 0 1-4.246-.988 7.994 7.994 0 0 0-3.181-.514v4.143l4.583 2.223a2.3 2.3 0 0 0 1.161.263 2.375 2.375 0 0 0 .988-.174c.018-.015 4.842-2.434 6.329-3.377zM3.78 23.635V17.41a.3.3 0 0 0-.307-.307H1.835a.309.309 0 0 0-.307.307v6.225a.3.3 0 0 0 .307.3h1.638a.3.3 0 0 0 .307-.3zm13.768-5.019a2.076 2.076 0 0 1 2.519.943 1.947 1.947 0 0 1-.729 2.782c-1.554.988-6.3 3.373-6.5 3.473a4.14 4.14 0 0 1-1.683.329 3.759 3.759 0 0 1-1.923-.459l-3.846-1.853a1.93 1.93 0 0 1-1.912 1.742H1.835A1.937 1.937 0 0 1-.1 23.635V17.41a1.947 1.947 0 0 1 1.935-1.949h1.638a1.919 1.919 0 0 1 1.52.755c3.225.055 4.3.67 4.483.788a5.925 5.925 0 0 0 3.322.725c.129-.011.252-.011.326-.011a1.979 1.979 0 0 1 1.9 1.776zM2.663 17.88a.651.651 0 0 1 0 1.3.651.651 0 1 1 0-1.3zm21.609-8.992V2.662a.294.294 0 0 0-.3-.3h-1.634a.3.3 0 0 0-.307.3v6.226a.309.309 0 0 0 .307.307h1.639a.307.307 0 0 0 .3-.307zM20.4 8.425V4.282l-4.58-2.223a2.323 2.323 0 0 0-1.161-.259 2.387 2.387 0 0 0-.988.174c-.022.011-4.853 2.434-6.329 3.377-.359.229-.337.285-.2.536a.464.464 0 0 0 .588.24l3.939-1.38a.511.511 0 0 1 .129-.011 1.907 1.907 0 0 1 1.032-.307h4.953a.821.821 0 0 1 0 1.642h-4.948a.507.507 0 0 0-.444.448c0 .2.1.407.314.407h.259a7.419 7.419 0 0 1 4.258.984 7.794 7.794 0 0 0 3.181.518zm3.573-7.7A1.928 1.928 0 0 1 25.9 2.662v6.226a1.937 1.937 0 0 1-1.923 1.949h-1.639a1.935 1.935 0 0 1-1.52-.755c-3.225-.055-4.3-.67-4.483-.788a5.8 5.8 0 0 0-3.322-.725h-.337a1.945 1.945 0 0 1-1.886-1.775l-2.519.888a2.308 2.308 0 0 1-.707.122 2.084 2.084 0 0 1-1.816-1.062 1.95 1.95 0 0 1 .718-2.782C8.03 2.973 12.776.587 12.98.487a4.274 4.274 0 0 1 3.606.133l3.843 1.853A1.927 1.927 0 0 1 22.342.731h1.635zM23.2 7.112a.618.618 0 0 1 .633.647.633.633 0 1 1-1.265 0 .622.622 0 0 1 .632-.647zm-12.026 4.354c-.192.166-.144.51-.1.7a5.077 5.077 0 0 0 .684 1.535 6.22 6.22 0 0 0 .877 1.106 1.535 1.535 0 0 0 .2.181c.03.007.059.011.085.018.081-.081.166-.174.192-.2a6.282 6.282 0 0 0 .877-1.106 5.077 5.077 0 0 0 .684-1.535c.044-.192.092-.54-.1-.7a.611.611 0 0 0-.362-.129 1.145 1.145 0 0 0-.588.152l-.5.3-.44.011-.559-.307a1.107 1.107 0 0 0-.54-.152h-.044a.638.638 0 0 0-.366.126zm.374 4.42a7.857 7.857 0 0 1-1.069-1.35 6.571 6.571 0 0 1-.88-2.009 2.172 2.172 0 0 1 .584-2.223 2.112 2.112 0 0 1 1.276-.5 2.641 2.641 0 0 1 1.4.34l.011.007s.011 0 .015-.007a2.625 2.625 0 0 1 1.4-.34 2.11 2.11 0 0 1 1.272.5 2.166 2.166 0 0 1 .588 2.223 6.509 6.509 0 0 1-.884 2.009 7.875 7.875 0 0 1-1.051 1.332 3.922 3.922 0 0 1-.414.374 1.667 1.667 0 0 1-.618.281l-.3.033a1.912 1.912 0 0 1-.314-.033 1.646 1.646 0 0 1-.614-.281 3.739 3.739 0 0 1-.4-.355z" transform="translate(.1 -.153)" style="fill:#ec624b;fill-rule:evenodd"/>
</svg>
