<svg xmlns="http://www.w3.org/2000/svg" width="26" height="25.997">
    <path d="M7.54 17.95a.757.757 0 0 1 1.065 0 .737.737 0 0 1 .007 1.043L8.6 19l-3.2 3.171a.764.764 0 0 1-1.065 0l-1.442-1.424a.736.736 0 0 1-.011-1.04l.011-.011a.757.757 0 0 1 1.065 0l.906.9L7.54 17.95zm9.474-5.468a3.563 3.563 0 0 0 .888-2.69 3.588 3.588 0 0 0-.892-2.7 3.784 3.784 0 0 0-2.671-.821 3.758 3.758 0 0 0-2.664.821 3.617 3.617 0 0 0-.884 2.7 3.572 3.572 0 0 0 .884 2.69 3.769 3.769 0 0 0 2.664.818 3.805 3.805 0 0 0 2.675-.818zm-2.675-7.8a5.286 5.286 0 0 1 3.788 1.269A5.084 5.084 0 0 1 19.511 9.8a5.075 5.075 0 0 1-1.384 3.84 5.331 5.331 0 0 1-3.788 1.258 5.29 5.29 0 0 1-3.785-1.262A5.071 5.071 0 0 1 9.178 9.8a5.1 5.1 0 0 1 1.376-3.844 5.276 5.276 0 0 1 3.785-1.269zM23.8 16.244a94.6 94.6 0 0 0 .592-11.213 7.9 7.9 0 0 1-5.076-1.7 8.21 8.21 0 0 0-4.966-1.74h-.011a8.153 8.153 0 0 0-4.953 1.742 7.884 7.884 0 0 1-5.072 1.709c.011 1.816.067 6.063.344 9.141a8.131 8.131 0 0 1 1.162-.074c2.308 0 4.018.721 4.965 2.231.129-.011.27-.011.407-.011h6.3a6.923 6.923 0 0 1 5.127 1.913 1.218 1.218 0 0 1 .107.118 4.994 4.994 0 0 0 1.074-2.116zm-9.445 8.08a32.584 32.584 0 0 0 7.266-4.8c-.067-.074-.118-.137-.163-.181a5.366 5.366 0 0 0-3.966-1.421h-6.068a8.168 8.168 0 0 1 .215 1.942 7.031 7.031 0 0 1-.462 2.708c1.376.836 2.6 1.461 3.174 1.75zm-8.535-.3c2.956 0 4.214-1.243 4.214-4.162S8.771 15.7 5.816 15.7s-4.2 1.254-4.2 4.162 1.254 4.162 4.2 4.162zM26 4.151c0 .363.022 8.738-.614 12.356-.836 4.776-10.3 9.226-10.7 9.415a.837.837 0 0 1-.688 0 38.164 38.164 0 0 1-3.633-1.983 5.764 5.764 0 0 1-4.558 1.676C2.138 25.619 0 23.791 0 19.862c0-2.8 1.1-4.536 3.063-5.3C2.678 10.51 2.7 4.413 2.7 4.151a.776.776 0 0 1 .3-.618.809.809 0 0 1 .688-.159c2.183.34 3.341-.414 4.806-1.369A9.765 9.765 0 0 1 14.339 0h.011a9.854 9.854 0 0 1 5.856 2.005c1.45.954 2.612 1.709 4.817 1.369a.876.876 0 0 1 .666.181.789.789 0 0 1 .311.6z" style="fill:#ec624b;fill-rule:evenodd"/>
</svg>
