<svg xmlns="http://www.w3.org/2000/svg" width="26" height="23.832">
    <path data-name="Interes me gusta_2Regular" d="M24.369 45.034V33.48a2.66 2.66 0 0 0-2.708-2.6H4.339a2.66 2.66 0 0 0-2.708 2.6v11.558a2.556 2.556 0 0 0 2.057 2.549.794.794 0 0 1 .655.773v2.8a.478.478 0 0 0 .88.17l2.738-3.389a.837.837 0 0 1 .644-.3h13.059a2.656 2.656 0 0 0 2.7-2.6zM21.661 29.3A4.269 4.269 0 0 1 26 33.48v11.558a4.264 4.264 0 0 1-4.339 4.177H9l-2.482 3.07a2.123 2.123 0 0 1-1.717.847 2.063 2.063 0 0 1-2.09-1.979v-2.209A4.126 4.126 0 0 1 0 45.034V33.48a4.269 4.269 0 0 1 4.339-4.18zm-5.5 8.339c.063-.248.17-.851-.118-1.091a1.008 1.008 0 0 0-.573-.189h-.078a1.976 1.976 0 0 0-.929.255c-.192.1-.392.215-.607.337l-.022.015-.026.011a1.834 1.834 0 0 1-1.735-.015 18.018 18.018 0 0 0-.636-.351 1.979 1.979 0 0 0-.932-.255h-.074a1.008 1.008 0 0 0-.573.189c-.292.24-.181.847-.122 1.091A8.817 8.817 0 0 0 11 40.361a11.36 11.36 0 0 0 1.635 1.976c.122.118.244.226.318.289.067-.052.166-.141.274-.244v-.007l.055-.052a11.494 11.494 0 0 0 1.618-1.958 8.871 8.871 0 0 0 1.258-2.727zm-.607-2.856a2.634 2.634 0 0 1 1.55.566A2.488 2.488 0 0 1 17.75 38a10.331 10.331 0 0 1-1.483 3.215 13.042 13.042 0 0 1-1.816 2.2l-.018.018a4.618 4.618 0 0 1-.573.5 1.8 1.8 0 0 1-.636.277 1.633 1.633 0 0 1-.2.026h-.148a1.633 1.633 0 0 1-.2-.026 1.768 1.768 0 0 1-.636-.277 5.753 5.753 0 0 1-.573-.5 12.814 12.814 0 0 1-1.837-2.217A10.278 10.278 0 0 1 8.15 38a2.493 2.493 0 0 1 .65-2.655 2.627 2.627 0 0 1 1.554-.566h.159a3.663 3.663 0 0 1 1.724.448c.207.111.418.229.647.359a.13.13 0 0 0 .074.018.156.156 0 0 0 .074-.018c.229-.133.44-.252.647-.363a3.674 3.674 0 0 1 1.724-.448.974.974 0 0 0 .152.011z" transform="translate(0 -29.3)" style="fill:#ec624b;fill-rule:evenodd"/>
</svg>
