<svg xmlns="http://www.w3.org/2000/svg" width="26" height="25.945">
    <path d="M20.766 22.209a3.359 3.359 0 1 1 3.362-3.359 3.361 3.361 0 0 1-3.362 3.359M8.345 10.372a3.237 3.237 0 1 1 3.236 3.228 3.239 3.239 0 0 1-3.237-3.233m-4.875 9.389a1.957 1.957 0 1 1 1.99-1.99 1.987 1.987 0 0 1-1.99 1.99m8.131 5.293a1.369 1.369 0 1 1 1.372-1.369 1.37 1.37 0 0 1-1.372 1.369M3.473 5.142a1.369 1.369 0 1 1 1.372-1.369 1.373 1.373 0 0 1-1.372 1.369m18.916.67a1.572 1.572 0 1 1-1.572 1.572 1.573 1.573 0 0 1 1.573-1.573m-1.624 8a4.991 4.991 0 0 0-3.2 1.18l-2.009-1.764a4.852 4.852 0 0 0 .936-2.859c0-.126-.03-.244-.037-.366l3.17-.936a3.24 3.24 0 0 0 6.011-1.687 3.251 3.251 0 0 0-6.5 0c0 .026.007.052.007.081l-3.092.914A4.9 4.9 0 0 0 8.1 6.917L6.129 5.23a3.014 3.014 0 0 0 .392-1.461 3.049 3.049 0 0 0-6.1 0 3.049 3.049 0 0 0 3.048 3.048 2.994 2.994 0 0 0 1.468-.4l2.2 1.886a4.813 4.813 0 0 0 .425 4.883L5.77 14.944a3.611 3.611 0 0 0-2.3-.832 3.676 3.676 0 1 0 3.34 2.164l1.942-1.9a4.878 4.878 0 0 0 5.608.041l2.108 1.853a4.89 4.89 0 0 0-.378 4.43l-2.19 1.009a3.237 3.237 0 1 0 .7 1.524l2.382-1.095a5.027 5.027 0 1 0 3.788-8.323" transform="translate(.2 -.783)" style="fill:#ec624b;fill-rule:evenodd"/>
</svg>
