<svg xmlns="http://www.w3.org/2000/svg" width="12.009" height="18" viewBox="0 0 12.009 18">
    <defs>
        <style>
            .cls-1{fill:#fff}
        </style>
    </defs>
    <g id="Grupo_5928" data-name="Grupo 5928" transform="translate(-1078.448 -132)">
        <path id="Trazado_325" data-name="Trazado 325" class="cls-1" d="M125.9 18h-5.991a3.054 3.054 0 0 1-2.253-.743 3.036 3.036 0 0 1-.755-2.266V3.009a3.03 3.03 0 0 1 .753-2.238A3.015 3.015 0 0 1 119.909 0h5.991a3.028 3.028 0 0 1 2.258.755 3.036 3.036 0 0 1 .75 2.253v11.983a3.046 3.046 0 0 1-.755 2.266A3.058 3.058 0 0 1 125.9 18zm-5.991-16.976c-1.408 0-1.984.576-1.984 1.984v11.983c0 1.447.538 1.984 1.984 1.984h5.991c1.447 0 1.984-.538 1.984-1.984V3.009a2.113 2.113 0 0 0-.451-1.531 2.1 2.1 0 0 0-1.534-.453z" transform="translate(961.548 132)"/>
        <path id="Trazado_326" data-name="Trazado 326" class="cls-1" d="M322.739 550a.939.939 0 0 0-1.039 1.042 1.041 1.041 0 1 0 2.077 0 .941.941 0 0 0-1.038-1.042z" transform="translate(761.713 -405.662)"/>
        <path id="Trazado_327" data-name="Trazado 327" class="cls-1" d="M313.185 542.884a1.282 1.282 0 0 1-1.385-1.392 1.387 1.387 0 1 1 2.773 0 1.282 1.282 0 0 1-1.388 1.392zm0-2.084c-.476 0-.689.213-.689.693a.731.731 0 0 0 .161.521.72.72 0 0 0 .525.171.7.7 0 0 0 .525-.171.732.732 0 0 0 .161-.521c.002-.48-.207-.693-.683-.693z" transform="translate(771.267 -396.089)"/>
    </g>
</svg>
