<svg xmlns="http://www.w3.org/2000/svg" width="16.003" height="18" viewBox="0 0 16.003 18">
    <path data-name="Trazado 3987" d="M46.9 9.013A4.584 4.584 0 0 1 43.6 7.9a4.513 4.513 0 0 1-1.2-3.387 4.53 4.53 0 0 1 1.2-3.393A4.574 4.574 0 0 1 46.9 0a4.592 4.592 0 0 1 3.306 1.119 4.512 4.512 0 0 1 1.206 3.393A4.5 4.5 0 0 1 50.2 7.9a4.59 4.59 0 0 1-3.3 1.113zm0-7.989a3.6 3.6 0 0 0-2.589.832 3.568 3.568 0 0 0-.888 2.658 3.545 3.545 0 0 0 .888 2.65 3.616 3.616 0 0 0 2.589.827 3.645 3.645 0 0 0 2.6-.827 3.537 3.537 0 0 0 .894-2.648c-.005-2.35-1.147-3.492-3.494-3.492zM54.391 18H39.412a.514.514 0 0 1-.512-.512v-1.5a4.978 4.978 0 0 1 1.29-3.536 5.319 5.319 0 0 1 3.958-1.47h5.492a5.33 5.33 0 0 1 3.96 1.469 4.971 4.971 0 0 1 1.3 3.539v1.5a.514.514 0 0 1-.509.51zm-14.467-1.024h13.955v-.986a3.986 3.986 0 0 0-1.011-2.829 4.293 4.293 0 0 0-3.226-1.152h-5.493a4.266 4.266 0 0 0-3.219 1.152 3.986 3.986 0 0 0-1.006 2.829z" transform="translate(-38.9)" style="fill:#fff"/>
</svg>
