<svg xmlns="http://www.w3.org/2000/svg" width="20" height="14.168">
    <path data-name="Trazado 356" d="M18.742 115.708a1 1 0 0 1-.717.233c-1.537.026-16.015 0-16.175 0a.539.539 0 0 1-.3-.139 1.078 1.078 0 0 1-.219-.746V106.2l6.942 4.363a3.091 3.091 0 0 0 1.688.521 2.873 2.873 0 0 0 1.588-.492l7.332-4.417-.011 8.877.009.1a.82.82 0 0 1-.134.555M1.862 104.215h16.525c.014 0 .347.011.458.561l-7.952 4.793a1.73 1.73 0 0 1-1.93-.009l-7.611-4.784a.883.883 0 0 1 .182-.455.427.427 0 0 1 .327-.108m18.23 10.8.014-9.933c-.046-1.739-1.244-2.109-1.733-2.081L1.865 103a1.636 1.636 0 0 0-1.221.5 2.321 2.321 0 0 0-.535 1.6v9.956a2.155 2.155 0 0 0 .591 1.611 1.693 1.693 0 0 0 1.17.487c.393 0 6.623.014 11.271.014 2.4 0 4.386 0 4.912-.014a2.073 2.073 0 0 0 1.645-.677 1.971 1.971 0 0 0 .4-1.46" transform="translate(-.106 -103)" style="fill:#fff;fill-rule:evenodd"/>
</svg>
