<svg xmlns="http://www.w3.org/2000/svg" width="19.24" height="21.989">
    <path data-name="Escudo ok seguridad ok _2Regular" d="M61.9 13.732a80.154 80.154 0 0 0 .482-9.471 6.423 6.423 0 0 1-4.192-1.445 6.647 6.647 0 0 0-4.1-1.471h-.006a6.626 6.626 0 0 0-4.1 1.471A6.416 6.416 0 0 1 45.8 4.261a78.908 78.908 0 0 0 .488 9.471c.46 2.666 5.538 5.707 7.8 6.836 2.265-1.129 7.35-4.177 7.806-6.836zm1.813-10.225a90.089 90.089 0 0 1-.5 10.456c-.695 4.033-8.5 7.8-8.833 7.963a.664.664 0 0 1-.569 0c-.332-.156-8.132-3.93-8.826-7.96a87.844 87.844 0 0 1-.51-10.456.681.681 0 0 1 .257-.529.667.667 0 0 1 .569-.122 4.883 4.883 0 0 0 3.958-1.164A7.916 7.916 0 0 1 54.092 0h.008a7.925 7.925 0 0 1 4.831 1.7 4.914 4.914 0 0 0 3.983 1.161.688.688 0 0 1 .8.651zM52.43 13.1 58 7.465a.661.661 0 0 1 .942 0 .678.678 0 0 1 0 .951L52.9 14.524a.657.657 0 0 1-.939 0l-2.71-2.744a.678.678 0 0 1 0-.951.661.661 0 0 1 .942 0z" transform="translate(-44.473)" style="fill:#86888c;fill-rule:evenodd"/>
</svg>
