<svg id="Pagar_factura_2Regular" data-name="Pagar factura_2Regular" xmlns="http://www.w3.org/2000/svg" width="19.221" height="19.24">
    <defs>
        <style>
            .cls-1{fill:#86888c}
        </style>
    </defs>
    <path id="Trazado_4499" data-name="Trazado 4499" class="cls-1" d="M5.068 79.441a5.161 5.161 0 0 1-3.715-1.257 6.049 6.049 0 0 1 0-7.626A5.161 5.161 0 0 1 5.068 69.3a5.129 5.129 0 0 1 3.8 1.263 5.12 5.12 0 0 1 1.268 3.808 5.085 5.085 0 0 1-1.353 3.813 5.168 5.168 0 0 1-3.715 1.257zm0-9.047c-2.673 0-3.974 1.3-3.974 3.977s1.3 3.977 3.974 3.977 3.974-1.3 3.974-3.977a4.12 4.12 0 0 0-.942-3.035 4.11 4.11 0 0 0-3.029-.943z" transform="translate(0 -67.406)"/>
    <path id="Trazado_4500" data-name="Trazado 4500" class="cls-1" d="M126.9 168.328a.21.21 0 0 1-.1-.189.2.2 0 0 1 .2-.2.288.288 0 0 1 .148.049 2.3 2.3 0 0 0 1.266.418c.763 0 1.23-.391 1.23-.97 0-.476-.265-.809-1.14-.921l-.224-.027c-.929-.12-1.361-.566-1.361-1.257a1.321 1.321 0 0 1 1.487-1.334 2.358 2.358 0 0 1 1.222.314.238.238 0 0 1 .134.194.187.187 0 0 1-.186.189.317.317 0 0 1-.139-.041 2.126 2.126 0 0 0-1.041-.279c-.692 0-1.077.385-1.077.921 0 .489.3.8 1.118.907l.216.027c.943.118 1.391.566 1.391 1.279 0 .8-.574 1.378-1.676 1.378a2.627 2.627 0 0 1-1.462-.462z" transform="translate(-123.334 -159.42)"/>
    <path id="Trazado_4501" data-name="Trazado 4501" class="cls-1" d="M121.068 161.7a2.811 2.811 0 0 1-1.577-.5.416.416 0 0 1-.191-.355.405.405 0 0 1 .407-.4.486.486 0 0 1 .26.082 2.084 2.084 0 0 0 1.151.385c.631 0 1.025-.292 1.025-.765 0-.309-.118-.612-.959-.719l-.224-.027c-1.274-.164-1.542-.886-1.542-1.46a1.518 1.518 0 0 1 1.692-1.539 2.577 2.577 0 0 1 1.331.344.429.429 0 0 1 .23.369.4.4 0 0 1-.394.394.527.527 0 0 1-.232-.063h-.005a1.9 1.9 0 0 0-.943-.254c-.544 0-.872.268-.872.716 0 .189 0 .585.94.705l.216.027c1.3.164 1.569.9 1.569 1.481a1.471 1.471 0 0 1-.495 1.145 2.088 2.088 0 0 1-1.387.434zm-1.342-.834a2.366 2.366 0 0 0 .372.21 2.769 2.769 0 0 1-.358-.208.1.1 0 0 0-.025-.011l.011.009zm1.84-1.788a1.235 1.235 0 0 1 .877.574 1.184 1.184 0 0 0-.877-.573zm-1.684-.782a1.056 1.056 0 0 0 .853.645 1.12 1.12 0 0 1-.853-.641z" transform="translate(-116.039 -152.125)"/>
    <path id="Trazado_4502" data-name="Trazado 4502" class="cls-1" d="M170.81 132.772a.409.409 0 0 1-.41-.41v-6.052a.41.41 0 1 1 .82 0v6.052a.411.411 0 0 1-.41.41z" transform="translate(-165.742 -122.459)"/>
    <path id="Trazado_4503" data-name="Trazado 4503" class="cls-1" d="M172.93 19.237h-6.38a1.129 1.129 0 0 1-.845-.312 1.163 1.163 0 0 1-.306-.847v-6.59a.547.547 0 0 1 1.093 0v6.593a.484.484 0 0 0 0 .063H179V5.866l-4.756-4.772h-7.7a.315.315 0 0 0-.055 0v1.349a.547.547 0 0 1-1.093 0v-1.3a1.062 1.062 0 0 1 1.152-1.138C167.25 0 171.782 0 174.475 0a.548.548 0 0 1 .388.161l5.079 5.092a.546.546 0 0 1 .159.385v12.473a1.049 1.049 0 0 1-1.126 1.129c-.375-.003-3.183-.003-6.045-.003zm-6.423-1.049zm10.633-2.408h-8a.547.547 0 1 1 0-1.093h8a.547.547 0 0 1 0 1.093zm0-3.2h-6.929a.547.547 0 1 1 0-1.093h6.929a.547.547 0 0 1 0 1.093zm0-3.731h-4.8a.547.547 0 0 1 0-1.093h4.8a.547.547 0 0 1 0 1.093z" transform="translate(-160.879)"/>
    <path id="Trazado_4504" data-name="Trazado 4504" class="cls-1" d="M483.025 6.283h-3.105a2.312 2.312 0 0 1-1.952-.916 3.378 3.378 0 0 1-.569-2.028V.647a.547.547 0 0 1 .932-.388l5.079 5.092a.545.545 0 0 1-.385.932zm-4.532-4.316v1.367a2.331 2.331 0 0 0 .355 1.383 1.242 1.242 0 0 0 1.071.47h1.788z" transform="translate(-464.351 -.097)"/>
</svg>
