<svg xmlns="http://www.w3.org/2000/svg" width="16.28" height="18.312">
    <path data-name="Trazado 4714" d="M47.04 9.169a4.663 4.663 0 0 1-3.358-1.133 4.591 4.591 0 0 1-1.221-3.446 4.608 4.608 0 0 1 1.222-3.451A4.654 4.654 0 0 1 47.04 0a4.671 4.671 0 0 1 3.36 1.138 4.59 4.59 0 0 1 1.23 3.452 4.574 4.574 0 0 1-1.23 3.446 4.67 4.67 0 0 1-3.36 1.133zm0-8.127a3.665 3.665 0 0 0-2.633.847 3.63 3.63 0 0 0-.9 2.7 3.606 3.606 0 0 0 .9 2.7 3.679 3.679 0 0 0 2.633.841 3.708 3.708 0 0 0 2.641-.841 3.6 3.6 0 0 0 .909-2.693c-.002-2.396-1.164-3.554-3.55-3.554zm7.619 17.27H39.421a.522.522 0 0 1-.521-.521v-1.524a5.064 5.064 0 0 1 1.313-3.6 5.412 5.412 0 0 1 4.027-1.5h5.587a5.423 5.423 0 0 1 4.032 1.493 5.057 5.057 0 0 1 1.321 3.6v1.524a.522.522 0 0 1-.521.528zM39.942 17.27h14.2v-1a4.055 4.055 0 0 0-1.029-2.878 4.367 4.367 0 0 0-3.282-1.172H44.24a4.34 4.34 0 0 0-3.274 1.172 4.055 4.055 0 0 0-1.024 2.878z" transform="translate(-38.9)" style="fill:#86888c"/>
</svg>
