<svg id="Grupo_6206" data-name="Grupo 6206" xmlns="http://www.w3.org/2000/svg" width="19.24" height="21.093">
    <defs>
        <style>
            .cls-1{fill:#019df4}
        </style>
    </defs>
    <path id="Sustracción_2" data-name="Sustracción 2" class="cls-1" d="M5.546 16.144.372 10.972a1.381 1.381 0 0 1-.345-1.245A2.208 2.208 0 0 1 .643 8.6L8.607.638a2.387 2.387 0 0 1 .538-.406 1.975 1.975 0 0 1 .593-.216A.988.988 0 0 1 9.861 0h7.879a1.493 1.493 0 0 1 1.06.44 1.5 1.5 0 0 1 .44 1.06l-.006 7.6.006.205c0 .027-.006.118-.008.145a2.167 2.167 0 0 1-.216.643 2.118 2.118 0 0 1-.405.542L15.7 13.548a4.517 4.517 0 0 0-.592-1.157l2.63-2.629a1.177 1.177 0 0 0 .183-.234.674.674 0 0 0 .088-.232L18 9.116l.005-7.616a.26.26 0 0 0-.077-.186.265.265 0 0 0-.188-.077H9.913a1.053 1.053 0 0 0-.433.277L1.519 9.469a1.011 1.011 0 0 0-.256.4.348.348 0 0 0-.018.227l4.4 4.395a7.4 7.4 0 0 0-.1 1.27c0 .129 0 .257.009.381zm8.829-8.816a2.2 2.2 0 0 1-.927-.209 3.068 3.068 0 0 1-.877-.628 2.574 2.574 0 0 1-.839-1.81 2.186 2.186 0 0 1 .205-.913 2.977 2.977 0 0 1 .615-.861 2.982 2.982 0 0 1 .862-.614 2.15 2.15 0 0 1 1.841 0 3.054 3.054 0 0 1 .878.629 3.07 3.07 0 0 1 .626.874 2.212 2.212 0 0 1 .212.922 2.183 2.183 0 0 1-.2.919 3.21 3.21 0 0 1-1.479 1.482 2.184 2.184 0 0 1-.917.21zm-.044-4.005a1 1 0 0 0-.452.114 1.8 1.8 0 0 0-.452.34 1.142 1.142 0 0 0 .016 1.834 1.885 1.885 0 0 0 .468.355 1.016 1.016 0 0 0 .463.119 1 1 0 0 0 .451-.114 1.8 1.8 0 0 0 .453-.341 1.142 1.142 0 0 0-.016-1.83 1.9 1.9 0 0 0-.468-.355 1.016 1.016 0 0 0-.463-.122z"/>
    <g id="Grupo_6205" data-name="Grupo 6205" transform="translate(5.49 10.608)">
        <path id="Trazado_4716" data-name="Trazado 4716" class="cls-1" d="M836.847-5481.49a.526.526 0 0 0-.546.542v.03a.519.519 0 0 0 .56.532.525.525 0 0 0 .546-.564.529.529 0 0 0-.56-.54z" transform="translate(-831.559 5488.659)"/>
        <path id="Trazado_4718" data-name="Trazado 4718" class="cls-1" d="M740.48-5662.4s-.494-.041-.495-.04l-.686-.037c-3.341 0-5.293 1.672-5.293 5.24s1.952 5.242 5.29 5.245l.965-.057c.075 0 .142-.014.142-.014l.081-.011c2.617-.365 4.111-2.04 4.111-5.163s-1.5-4.8-4.116-5.163m-1.181 9.329c-2.865 0-4.2-1.321-4.2-4.164s1.341-4.164 4.2-4.164 4.212 1.321 4.212 4.164-1.341 4.166-4.21 4.166z" transform="translate(-734.006 5662.476)"/>
    </g>
    <path id="Trazado_4719" data-name="Trazado 4719" class="cls-1" d="M.544 0a.544.544 0 0 1 .544.544v3.309a.544.544 0 0 1-1.088 0V.544A.544.544 0 0 1 .544 0z" transform="translate(10.223 12.87)"/>
</svg>
