<svg xmlns="http://www.w3.org/2000/svg" width="22" height="24.746">
    <path data-name="Trazado 4714" d="M49.9 12.39a6.3 6.3 0 0 1-4.537-1.531A6.2 6.2 0 0 1 43.712 6.2a6.227 6.227 0 0 1 1.651-4.664A6.289 6.289 0 0 1 49.9 0a6.312 6.312 0 0 1 4.544 1.538A6.2 6.2 0 0 1 56.1 6.2a6.181 6.181 0 0 1-1.661 4.657A6.31 6.31 0 0 1 49.9 12.39zm0-10.982a4.953 4.953 0 0 0-3.559 1.144 4.905 4.905 0 0 0-1.221 3.654 4.873 4.873 0 0 0 1.221 3.643 4.972 4.972 0 0 0 3.559 1.137 5.011 5.011 0 0 0 3.569-1.137 4.863 4.863 0 0 0 1.231-3.64c-.006-3.231-1.576-4.801-4.8-4.801zm10.3 23.338H39.6a.706.706 0 0 1-.7-.7v-2.064a6.843 6.843 0 0 1 1.774-4.861 7.313 7.313 0 0 1 5.442-2.02h7.55a7.328 7.328 0 0 1 5.449 2.017 6.834 6.834 0 0 1 1.785 4.864v2.059a.706.706 0 0 1-.7.705zm-19.892-1.408h19.184v-1.356a5.48 5.48 0 0 0-1.39-3.89 5.9 5.9 0 0 0-4.435-1.584h-7.55a5.865 5.865 0 0 0-4.425 1.584 5.48 5.48 0 0 0-1.383 3.89z" transform="translate(-38.9)" style="fill:#019df4"/>
</svg>
