<svg xmlns="http://www.w3.org/2000/svg" width="26" height="28.504">
    <defs>
        <style>
            .cls-1{fill:#86888c}
        </style>
    </defs>
    <g id="Grupo_6206" data-name="Grupo 6206" transform="translate(-3602.899 -1018.692)">
        <path id="Sustracción_2" data-name="Sustracción 2" class="cls-1" d="M7.495 21.817.5 14.828a1.866 1.866 0 0 1-.466-1.683 2.984 2.984 0 0 1 .832-1.528L11.631.862a3.226 3.226 0 0 1 .726-.549 2.669 2.669 0 0 1 .8-.291A1.335 1.335 0 0 1 13.326 0h10.647A2.017 2.017 0 0 1 25.4.595a2.032 2.032 0 0 1 .6 1.432L25.993 12.3l.007.277c0 .037-.008.16-.011.2a2.929 2.929 0 0 1-.292.869 2.862 2.862 0 0 1-.548.733l-3.938 3.936a6.1 6.1 0 0 0-.8-1.563l3.554-3.553a1.591 1.591 0 0 0 .247-.316.911.911 0 0 0 .119-.313l-.011-.244.011-10.3a.351.351 0 0 0-.1-.251.358.358 0 0 0-.254-.1H13.4a1.424 1.424 0 0 0-.585.374L2.053 12.8a1.367 1.367 0 0 0-.346.545.47.47 0 0 0-.024.306l5.941 5.939a9.995 9.995 0 0 0-.141 1.71c0 .174 0 .347.012.515zM19.426 9.9a2.98 2.98 0 0 1-1.252-.283 4.146 4.146 0 0 1-1.186-.849 3.478 3.478 0 0 1-1.134-2.446 2.954 2.954 0 0 1 .277-1.234 4.022 4.022 0 0 1 .831-1.163 4.029 4.029 0 0 1 1.164-.83 2.9 2.9 0 0 1 2.488.006 4.127 4.127 0 0 1 1.186.849 4.149 4.149 0 0 1 .846 1.181 2.989 2.989 0 0 1 .286 1.245 2.951 2.951 0 0 1-.274 1.242 4.338 4.338 0 0 1-2 2 2.951 2.951 0 0 1-1.232.282zm-.059-5.412a1.351 1.351 0 0 0-.61.154 2.434 2.434 0 0 0-.61.46 1.543 1.543 0 0 0 .022 2.479 2.548 2.548 0 0 0 .632.48 1.373 1.373 0 0 0 .625.16 1.352 1.352 0 0 0 .61-.153 2.434 2.434 0 0 0 .612-.461 1.543 1.543 0 0 0-.022-2.479 2.568 2.568 0 0 0-.633-.48 1.372 1.372 0 0 0-.626-.157z" transform="translate(3602.899 1018.692)"/>
        <g id="Grupo_6205" data-name="Grupo 6205" transform="translate(3610.319 1033.028)">
            <path id="Trazado_4716" data-name="Trazado 4716" class="cls-1" d="M837.039-5481.49a.711.711 0 0 0-.738.732v.041a.7.7 0 0 0 .757.719.71.71 0 0 0 .738-.763.715.715 0 0 0-.757-.729z" transform="translate(-829.893 5491.178)"/>
            <path id="Trazado_4718" data-name="Trazado 4718" class="cls-1" d="M742.754-5662.372s-.668-.055-.669-.054l-.927-.05c-4.514 0-7.152 2.259-7.152 7.081s2.638 7.084 7.149 7.087l1.3-.077c.1-.006.192-.019.192-.019l.11-.016c3.537-.494 5.556-2.756 5.556-6.976s-2.026-6.493-5.562-6.977m-1.6 12.607c-3.872 0-5.681-1.786-5.681-5.627s1.813-5.627 5.681-5.627 5.691 1.786 5.691 5.627-1.805 5.629-5.684 5.629z" transform="translate(-734.006 5662.476)"/>
        </g>
        <path id="Trazado_4719" data-name="Trazado 4719" class="cls-1" d="M.736 0a.736.736 0 0 1 .736.736v4.471a.736.736 0 0 1-1.472 0V.736A.736.736 0 0 1 .736 0z" transform="translate(3616.714 1036.084)"/>
    </g>
</svg>
