<svg id="Pagar_factura_2Regular" data-name="Pagar factura_2Regular" xmlns="http://www.w3.org/2000/svg" width="25.974" height="26">
    <defs>
        <style>
            .cls-1{fill:#019df4}
        </style>
    </defs>
    <path id="Trazado_4499" data-name="Trazado 4499" class="cls-1" d="M6.848 83a6.974 6.974 0 0 1-5.02-1.7A6.877 6.877 0 0 1 0 76.152 6.877 6.877 0 0 1 1.828 71a6.974 6.974 0 0 1 5.02-1.7 6.931 6.931 0 0 1 5.138 1.706 6.919 6.919 0 0 1 1.714 5.146 6.871 6.871 0 0 1-1.828 5.148A6.983 6.983 0 0 1 6.848 83zm0-12.226c-3.612 0-5.371 1.758-5.371 5.374s1.758 5.374 5.371 5.374 5.371-1.758 5.371-5.374a5.567 5.567 0 0 0-1.278-4.1 5.553 5.553 0 0 0-4.093-1.274z" transform="translate(0 -66.74)"/>
    <path id="Trazado_4500" data-name="Trazado 4500" class="cls-1" d="M126.94 169.884a.283.283 0 0 1-.14-.255.274.274 0 0 1 .273-.266.389.389 0 0 1 .2.066 3.112 3.112 0 0 0 1.71.565c1.031 0 1.662-.528 1.662-1.311 0-.643-.358-1.093-1.54-1.245l-.3-.037c-1.256-.163-1.839-.765-1.839-1.7a1.785 1.785 0 0 1 2.009-1.8 3.187 3.187 0 0 1 1.651.425.322.322 0 0 1 .181.262.252.252 0 0 1-.251.255.428.428 0 0 1-.188-.055 2.873 2.873 0 0 0-1.407-.377c-.935 0-1.455.521-1.455 1.245 0 .661.406 1.086 1.511 1.226l.292.037c1.274.159 1.88.765 1.88 1.729 0 1.086-.776 1.862-2.264 1.862a3.55 3.55 0 0 1-1.976-.624z" transform="translate(-122.116 -157.846)"/>
    <path id="Trazado_4501" data-name="Trazado 4501" class="cls-1" d="M121.69 163.562a3.8 3.8 0 0 1-2.131-.676.563.563 0 0 1-.259-.48.548.548 0 0 1 .55-.543.657.657 0 0 1 .351.111 2.816 2.816 0 0 0 1.555.521c.853 0 1.385-.4 1.385-1.034 0-.417-.159-.827-1.3-.971l-.3-.037c-1.721-.222-2.083-1.2-2.083-1.972a2.052 2.052 0 0 1 2.286-2.08 3.483 3.483 0 0 1 1.8.465.58.58 0 0 1 .31.5.534.534 0 0 1-.532.532.712.712 0 0 1-.314-.085h-.007a2.563 2.563 0 0 0-1.274-.344c-.735 0-1.178.362-1.178.968 0 .255 0 .79 1.271.953l.292.037c1.751.222 2.12 1.212 2.12 2a1.988 1.988 0 0 1-.669 1.548 2.821 2.821 0 0 1-1.873.587zm-1.814-1.127a3.2 3.2 0 0 0 .5.284 3.742 3.742 0 0 1-.484-.281.131.131 0 0 0-.033-.015s.01.005.017.013zm2.486-2.416a1.669 1.669 0 0 1 1.186.776 1.6 1.6 0 0 0-1.186-.775zm-2.275-1.056a1.427 1.427 0 0 0 1.152.872 1.513 1.513 0 0 1-1.152-.872z" transform="translate(-114.893 -150.623)"/>
    <path id="Trazado_4502" data-name="Trazado 4502" class="cls-1" d="M170.954 135.186a.553.553 0 0 1-.554-.554v-8.178a.554.554 0 1 1 1.108 0v8.178a.556.556 0 0 1-.554.554z" transform="translate(-164.106 -121.25)"/>
    <path id="Trazado_4503" data-name="Trazado 4503" class="cls-1" d="M175.576 26h-8.621a1.525 1.525 0 0 1-1.141-.421 1.571 1.571 0 0 1-.414-1.145v-8.909a.739.739 0 1 1 1.477 0v8.909a.654.654 0 0 0 0 .085h16.903V7.927l-6.427-6.449h-10.4a.426.426 0 0 0-.074 0V3.3a.739.739 0 1 1-1.477 0V1.551a1.436 1.436 0 0 1 1.549-1.544C167.9 0 174.025 0 177.663 0a.741.741 0 0 1 .525.218l6.863 6.882a.738.738 0 0 1 .214.521v16.853A1.417 1.417 0 0 1 183.743 26h-8.167zm-8.676-1.422zm14.369-3.254h-10.8a.739.739 0 0 1 0-1.477h10.8a.739.739 0 0 1 0 1.477zm0-4.322H171.9a.739.739 0 1 1 0-1.477h9.364a.739.739 0 0 1 0 1.477zm0-5.042h-6.482a.739.739 0 0 1 0-1.477h6.482a.739.739 0 0 1 0 1.477z" transform="translate(-159.291)"/>
    <path id="Trazado_4504" data-name="Trazado 4504" class="cls-1" d="M485 8.455h-4.2a3.124 3.124 0 0 1-2.637-1.237 4.564 4.564 0 0 1-.768-2.741V.839a.739.739 0 0 1 1.26-.525l6.867 6.886A.737.737 0 0 1 485 8.455zm-6.124-5.832V4.47a3.15 3.15 0 0 0 .48 1.869 1.679 1.679 0 0 0 1.448.635h2.416z" transform="translate(-459.766 -.096)"/>
</svg>
