<svg xmlns="http://www.w3.org/2000/svg" width="26" height="29.715">
    <path data-name="Escudo ok seguridad ok _2Regular" d="M68.02 18.557a108.317 108.317 0 0 0 .651-12.8 8.68 8.68 0 0 1-5.661-1.952 8.983 8.983 0 0 0-5.535-1.987h-.008a8.955 8.955 0 0 0-5.539 1.987 8.671 8.671 0 0 1-5.657 1.953 106.632 106.632 0 0 0 .66 12.8c.622 3.6 7.484 7.712 10.541 9.238 3.061-1.526 9.932-5.645 10.549-9.238zM70.473 4.74c0 .406.03 9.987-.676 14.13-.939 5.45-11.488 10.545-11.936 10.761a.9.9 0 0 1-.77 0c-.448-.211-10.989-5.311-11.928-10.756-.719-4.144-.693-13.724-.689-14.13a.921.921 0 0 1 .347-.715.9.9 0 0 1 .77-.165c2.435.385 3.721-.482 5.349-1.573A10.7 10.7 0 0 1 57.471 0h.013a10.71 10.71 0 0 1 6.528 2.292c1.628 1.09 2.918 1.953 5.383 1.568a.929.929 0 0 1 1.078.879zM55.226 17.7l7.522-7.611a.893.893 0 0 1 1.273 0 .916.916 0 0 1 0 1.285l-8.156 8.253a.888.888 0 0 1-1.268 0l-3.662-3.708a.916.916 0 0 1 0-1.285.893.893 0 0 1 1.273 0z" transform="translate(-44.473)" style="fill:#019df4;fill-rule:evenodd"/>
</svg>
