<svg xmlns="http://www.w3.org/2000/svg" width="426" height="247" viewBox="0 0 426 247">
    <defs>
        <clipPath id="clip-path">
            <path id="Rect치ngulo_3199" data-name="Rect치ngulo 3199" class="cls-1" transform="translate(728 72)" d="M0 0h426v247H0z"/>
        </clipPath>
        <clipPath id="clip-path-2">
            <path id="Rect치ngulo_3198" data-name="Rect치ngulo 3198" transform="translate(636.822 140.379)" style="fill:none" d="M0 0h15.794v50.013H0z"/>
        </clipPath>
        <style>
            .cls-1{fill:#fff}.cls-21,.cls-34{fill:none}.cls-5{opacity:.664}.cls-26,.cls-7{fill:#ec624b}.cls-8{fill:#e5e5e5}.cls-9{fill:#019df4}.cls-10{fill:#3f3d54}.cls-11{fill:#00425e}.cls-33{fill:#cbcbcb}.cls-13{fill:#009efb}.cls-15{fill:#036995}.cls-18{fill:#00273b}.cls-29{fill:#0b2739}.cls-21{stroke:#fff;stroke-width:1.974px}.cls-21,.cls-34{stroke-linecap:round}.cls-25,.cls-26,.cls-27,.cls-29,.cls-31{opacity:.96}.cls-25{fill:#86888c}.cls-27{fill:#c18773}.cls-31{fill:#d3d4d3}.cls-34{stroke:#d3d4d3;stroke-width:.658px}.cls-35{fill:#aadaf5}.cls-36{fill:#d8f1ff}.cls-37{fill:#f8cccc}
        </style>
    </defs>
    <g id="Enmascarar_grupo_132" data-name="Enmascarar grupo 132" transform="translate(-728 -72)" style="clip-path:url(#clip-path)">
        <g id="Grupo_5985" data-name="Grupo 5985" transform="translate(495.025 71.44)" style="opacity:.94">
            <g id="Grupo_5980" data-name="Grupo 5980" class="cls-5">
                <path id="Trazado_4446" data-name="Trazado 4446" d="M262.454 138.268c16.117 10.141 23.027 12.713 23.027 12.713 3.869 1.321 5.2 2.26 5.2 5.168v54.868a5.264 5.264 0 0 1-5.264 5.265s-14.729-6.288-26.517-15.382-15.6-19.893-15.6-22.8l.157-64.846c-.001-2.909 2.877 14.874 18.997 25.014z" style="fill:#185e8b"/>
                <path id="Trazado_4447" data-name="Trazado 4447" class="cls-7" d="M268.883 75.94c3.259-1.352 4.115.628 4.115 3.535l.572 56.76c0 2.907-.127 2.939-5.892 5.183a42.836 42.836 0 0 1-15.844-12.318c-3.907-4.754-9.278-13.089-8.635-19.676.656-20.913 25.684-33.484 25.684-33.484z"/>
                <path id="Trazado_4300" data-name="Trazado 4300" class="cls-1" d="M244.638 115.473s6.738-5.78 10.727-6.093c.967.044 1.149.571.6.932-4.5 2.3-6.279 3.074-10.68 6.683-.285-.722-.647-1.522-.647-1.522z"/>
                <path id="Trazado_4301" data-name="Trazado 4301" class="cls-1" d="M247.795 122.5a18.009 18.009 0 0 1 7.613-3.693c.967.044.944.816.51 1.009a16.777 16.777 0 0 0-7.219 4.108 9.233 9.233 0 0 1-.904-1.424z"/>
                <path id="Trazado_4302" data-name="Trazado 4302" class="cls-1" d="M251.8 127.756a13 13 0 0 1 4.436-1.756.569.569 0 0 1 .475.972 16.885 16.885 0 0 0-4.129 1.75c-.511-.622-.782-.966-.782-.966z"/>
                <g id="Grupo_5936" data-name="Grupo 5936">
                    <path id="Trazado_4351" data-name="Trazado 4351" class="cls-8" d="m275.827 169.429-.019-.145.486.335.018.145z"/>
                    <path id="Trazado_4352" data-name="Trazado 4352" class="cls-8" d="m274.852 168.755-.97-.669-.018-.144.969.669zm-1.933-1.334-.958-.662-.018-.143.957.658zm-1.909-1.321-.945-.654-.019-.143.947.653zm-1.886-1.3-.934-.647-.019-.142.935.646zm-1.863-1.288-.922-.638-.019-.141.922.637zm-1.843-1.272-.913-.631-.019-.14.913.63zm-1.819-1.26-.9-.623-.019-.14.9.622zm-1.8-1.243-.892-.615-.019-.14.891.616zm-1.777-1.227-.881-.609-.018-.139.881.608zm-1.757-1.214-.873-.6-.02-.138.871.6zm-1.736-1.2-.861-.593-.02-.137.862.592zm-1.717-1.185-.851-.587-.02-.137.851.587zm-1.7-1.174-.842-.581-.02-.136.842.581zm-1.678-1.159-.832-.574-.02-.136.832.575zm-1.657-1.146-.825-.569-.02-.135.823.568zm-1.645-1.133-.811-.562-.02-.132.813.562z"/>
                    <path id="Trazado_4353" data-name="Trazado 4353" class="cls-8" d="m246.116 148.907-.021-.137.4.278.021.132z"/>
                    <path id="Trazado_4354" data-name="Trazado 4354" class="cls-8" d="m262.446 171.765-.019-.139.438.322.019.139z"/>
                    <path id="Trazado_4355" data-name="Trazado 4355" class="cls-8" d="m261.58 171.135-.86-.627-.02-.136.862.628zm-1.717-1.25-.852-.621-.019-.132.852.621zm-1.7-1.238-.841-.613-.019-.132.842.614zm-1.679-1.223-.833-.607-.019-.131.833.606zm-1.66-1.212-.824-.6-.019-.131.824.6zm-1.646-1.2-.814-.593-.019-.131.814.592zm-1.624-1.185-.8-.586-.02-.131.806.587zm-1.6-1.17-.8-.58-.02-.132.8.58z"/>
                    <path id="Trazado_4356" data-name="Trazado 4356" class="cls-8" d="m247.966 161.212-.02-.132.4.292.019.131z"/>
                    <path id="Trazado_4357" data-name="Trazado 4357" class="cls-8" d="m255.011 171.549-.02-.132.413.311.019.131z"/>
                    <path id="Trazado_4358" data-name="Trazado 4358" class="cls-8" d="m254.169 170.925-.836-.625-.019-.131.837.624zm-1.669-1.245-.828-.617-.019-.132.828.617zm-1.649-1.23-.818-.611-.02-.131.818.61z"/>
                    <path id="Trazado_4359" data-name="Trazado 4359" class="cls-8" d="m248.826 166.936-.02-.131.4.3.02.132z"/>
                    <path id="Trazado_4360" data-name="Trazado 4360" class="cls-8" d="m256.428 181.331-.019-.132.412.322.018.131z"/>
                    <path id="Trazado_4361" data-name="Trazado 4361" class="cls-8" d="m255.592 180.683-.833-.646-.019-.131.833.645zm-1.658-1.287-.826-.638-.019-.128.824.639zm-1.646-1.273-.812-.631-.019-.128.814.631z"/>
                    <path id="Trazado_4362" data-name="Trazado 4362" class="cls-8" d="m250.273 176.56-.02-.132.395.308.018.128z"/>
                    <path id="Trazado_4363" data-name="Trazado 4363" class="cls-9" d="m252.521 178.391 24.956 19.352a1.7 1.7 0 0 0 .921.409.8.8 0 0 0 .676-.311 1.968 1.968 0 0 0 .366-.962 5.74 5.74 0 0 0-.012-1.538l-2.98-24.034-.055-.036-8.564 12.022-4.111-8.489a2.277 2.277 0 0 0-.121-.221 1.67 1.67 0 0 0-.127-.184 1.166 1.166 0 0 0-.132-.14.563.563 0 0 0-.127-.09.333.333 0 0 0-.088-.027.205.205 0 0 0-.078 0 .191.191 0 0 0-.066.035.272.272 0 0 0-.056.066l-3.968 6-2.877-6a2.347 2.347 0 0 0-.205-.349 1.055 1.055 0 0 0-.207-.22.31.31 0 0 0-.185-.075.165.165 0 0 0-.141.089l-.395.658-.871 1.448-.939 1.559c-.279.474-.505.852-.614 1.038z"/>
                    <path id="Trazado_4364" data-name="Trazado 4364" class="cls-10" d="m252.442 178.44-.061-.127 2.93-4.688a.187.187 0 0 1 .158-.1.345.345 0 0 1 .208.083 1.152 1.152 0 0 1 .231.247 2.5 2.5 0 0 1 .229.39l2.822 5.877 3.948-5.974a.2.2 0 0 1 .17-.1.386.386 0 0 1 .222.087 1.234 1.234 0 0 1 .244.256 2.581 2.581 0 0 1 .241.4l4.053 8.372 8.61-12.1.069.142-8.656 12.148-4.114-8.5a2.138 2.138 0 0 0-.212-.357 1.129 1.129 0 0 0-.216-.226.334.334 0 0 0-.2-.077.18.18 0 0 0-.15.09l-3.984 6.026-2.884-6.009a2.326 2.326 0 0 0-.2-.344 1 1 0 0 0-.2-.217.3.3 0 0 0-.183-.074.164.164 0 0 0-.139.087z"/>
                    <path id="Elipse_881" data-name="Elipse 881" class="cls-11" d="M255.053 170.818a.181.181 0 0 1 .163.013.646.646 0 0 1 .188.157 1.684 1.684 0 0 1 .189.276 2.592 2.592 0 0 1 .167.368 2.666 2.666 0 0 1 .114.395 1.89 1.89 0 0 1 .04.344.843.843 0 0 1-.033.264.219.219 0 0 1-.107.138.184.184 0 0 1-.163-.014.653.653 0 0 1-.188-.159 1.6 1.6 0 0 1-.188-.279 2.692 2.692 0 0 1-.168-.366 2.868 2.868 0 0 1-.113-.4 1.868 1.868 0 0 1-.039-.342.811.811 0 0 1 .032-.263.222.222 0 0 1 .106-.132z"/>
                    <path id="Elipse_882" data-name="Elipse 882" class="cls-11" d="M262.5 171.007a.2.2 0 0 1 .174.014.687.687 0 0 1 .2.163 1.689 1.689 0 0 1 .2.285 2.725 2.725 0 0 1 .29.787 1.787 1.787 0 0 1 .039.357.769.769 0 0 1-.039.269.234.234 0 0 1-.115.144.2.2 0 0 1-.172-.016.678.678 0 0 1-.2-.163 1.742 1.742 0 0 1-.2-.285 2.7 2.7 0 0 1-.174-.379 2.772 2.772 0 0 1-.118-.406 1.848 1.848 0 0 1-.038-.356.794.794 0 0 1 .038-.269.235.235 0 0 1 .115-.145z"/>
                    <path id="Elipse_883" data-name="Elipse 883" class="cls-11" d="M275.549 168.122a.236.236 0 0 1 .2.012.742.742 0 0 1 .219.171 1.737 1.737 0 0 1 .217.3 2.6 2.6 0 0 1 .188.4 2.69 2.69 0 0 1 .122.432 1.8 1.8 0 0 1 .035.38.83.83 0 0 1-.049.288.263.263 0 0 1-.132.155.235.235 0 0 1-.2-.015.733.733 0 0 1-.219-.172 1.737 1.737 0 0 1-.217-.3 2.7 2.7 0 0 1-.189-.4 2.8 2.8 0 0 1-.121-.43 1.932 1.932 0 0 1-.035-.38.849.849 0 0 1 .049-.287.267.267 0 0 1 .132-.154z"/>
                </g>
            </g>
            <path id="Trazado_4442" data-name="Trazado 4442" d="m478.6 212.637-24.435-.618a1.53 1.53 0 0 1-.4-.066 1.2 1.2 0 0 1-.329-.153.765.765 0 0 1-.217-.222.48.48 0 0 1-.076-.263.47.47 0 0 1 .087-.263.735.735 0 0 1 .227-.21 1.163 1.163 0 0 1 .329-.139 1.536 1.536 0 0 1 .4-.041l24.434.622a1.515 1.515 0 0 1 .4.066 1.223 1.223 0 0 1 .33.153.765.765 0 0 1 .218.221.489.489 0 0 1 .077.263.477.477 0 0 1-.086.263.74.74 0 0 1-.225.21 1.156 1.156 0 0 1-.329.136 1.47 1.47 0 0 1-.405.041z" style="fill:#cbcbcb;opacity:.664"/>
            <g id="Grupo_5979" data-name="Grupo 5979" class="cls-5">
                <path id="Trazado_4365" data-name="Trazado 4365" class="cls-13" d="M376.149 58.175 364.4 98.333l67.569 18.039 11.749-40.159z"/>
                <path id="Trazado_4366" data-name="Trazado 4366" d="M376.149 58.175 364.4 98.333l67.569 18.039 11.749-40.159z" style="isolation:isolate;opacity:.2;fill:#fff"/>
                <path id="Trazado_4367" data-name="Trazado 4367" class="cls-15" d="m378.2 23.516 86.052 22.971a3.2 3.2 0 0 1 1.506 5.282l-21.782 23.555-67.566-18.039-3.14-29.553a3.945 3.945 0 0 1 4.931-4.216z"/>
                <path id="Trazado_4368" data-name="Trazado 4368" d="m376.5 27.591 86.74 23.388-20.66 22.343-63.033-17.057z" style="fill:#a4defc"/>
                <path id="Trazado_4369" data-name="Trazado 4369" class="cls-15" d="m376.409 57.283-11.748 40.159 67.569 18.039 11.749-40.159z"/>
                <path id="Trazado_4370" data-name="Trazado 4370" class="cls-13" d="M464.253 46.487S422.219 26.361 378.2 23.515z"/>
                <path id="Trazado_4371" data-name="Trazado 4371" d="M464.253 46.487S422.219 26.361 378.2 23.515z" style="isolation:isolate;opacity:.2"/>
                <path id="Trazado_4372" data-name="Trazado 4372" class="cls-18" d="M419.3 36.819a.65.65 0 0 1 .829-.352.638.638 0 0 1 .532.718.649.649 0 0 1-.829.351.637.637 0 0 1-.532-.717z"/>
                <path id="Trazado_4373" data-name="Trazado 4373" class="cls-18" d="m378.331 59.288-7.312 24.556 62.916 16.8 7.312-24.556z"/>
                <path id="Trazado_4374" data-name="Trazado 4374" class="cls-18" d="m390.394 90.446-2.894 9.719 24.9 6.65 2.9-9.715z"/>
                <path id="Trazado_4375" data-name="Trazado 4375" d="m375.271 61.175 1.138-3.892 67.569 18.04-11.748 40.159-9.275-2.482c-9.749-26.455-36.381-44.942-47.684-51.825z" style="opacity:.1;isolation:isolate"/>
            </g>
            <g id="Grupo_5983" data-name="Grupo 5983" class="cls-5">
                <path id="Trazado_4452" data-name="Trazado 4452" d="M602.6 66.134s18.734 5.082 40.34 23.737c.429.45 9.647 6.508 9.317 21.42s-18.313 32.16-18.313 32.16.022 2.478 0 5.4c-14.866-11.92-32.77-16.191-32.77-16.191a2.632 2.632 0 0 1-2.633-2.632l1.427-61.258a2.633 2.633 0 0 1 2.632-2.636z" style="fill:#0b2739"/>
                <path id="Trazado_4448" data-name="Trazado 4448" class="cls-21" d="M621.365 93.948c12.209 4.87 25.662 20.607 26.009 20.959"/>
                <path id="Trazado_4449" data-name="Trazado 4449" class="cls-21" d="M621.365 104.428a82.525 82.525 0 0 1 12.493 7.694 63.242 63.242 0 0 1 11.107 9.82"/>
                <path id="Trazado_4450" data-name="Trazado 4450" class="cls-21" d="M621.534 114.012a73.186 73.186 0 0 1 10.7 6.551c5.093 3.84 9.178 7.116 9.525 7.468"/>
                <path id="Trazado_4453" data-name="Trazado 4453" class="cls-7" d="M636.6 140.035s13.747-11.708 15.286-28.548c.515 30.246.921 66.091.921 69-3.759 14.764-13.571 26.092-14.665 25.847a5.264 5.264 0 0 1-5.264-5.265l.772-54.765c-.004-2.91.008-4.736 2.95-6.269z"/>
                <g id="Grupo_5982" data-name="Grupo 5982">
                    <g id="Grupo_5981" data-name="Grupo 5981" style="clip-path:url(#clip-path-2)">
                        <g id="Enmascarar_grupo_131" data-name="Enmascarar grupo 131">
                            <g id="Grupo_5976" data-name="Grupo 5976">
                                <path id="Trazado_4333" data-name="Trazado 4333" d="m682.562 164.362-44.744 31.794a3.5 3.5 0 0 1-1.226.587 1.6 1.6 0 0 1-1-.066 1.374 1.374 0 0 1-.676-.677 2.786 2.786 0 0 1-.244-1.25l.263-47.513a4.863 4.863 0 0 1 .2-1.316 6.593 6.593 0 0 1 .542-1.306 6.324 6.324 0 0 1 .8-1.148 4.4 4.4 0 0 1 .972-.838l49.414-30.305a1.62 1.62 0 0 1 .8-.267.888.888 0 0 1 .618.225 1.344 1.344 0 0 1 .379.658 3.074 3.074 0 0 1 .081 1.042l-3.276 45a6.583 6.583 0 0 1-.307 1.508 8.987 8.987 0 0 1-.647 1.51 8.56 8.56 0 0 1-.895 1.344 5.6 5.6 0 0 1-1.054 1.018z" style="fill:transparent"/>
                                <path id="Trazado_4335" data-name="Trazado 4335" class="cls-8" d="m682.031 129.281.009-.127.558-.358-.009.127z"/>
                                <path id="Trazado_4336" data-name="Trazado 4336" class="cls-8" d="m680.9 130.007-1.137.728.008-.128 1.137-.728zm-2.278 1.46-1.147.734.008-.127 1.146-.735zm-2.3 1.473-1.157.742.007-.128 1.158-.742zm-2.32 1.487-1.168.748.007-.132 1.168-.748zm-2.341 1.5-1.178.755.006-.132 1.179-.755zm-2.361 1.513-1.189.762.007-.131 1.189-.762zm-2.388 1.528-1.2.769.006-.131 1.2-.769zm-2.4 1.541-1.211.777.006-.132 1.21-.776zm-2.428 1.557-1.221.783.005-.131 1.222-.783zm-2.45 1.57-1.233.79.005-.132 1.234-.79zm-2.472 1.585-1.245.8v-.132l1.246-.8zm-2.5 1.6-1.257.805v-.131l1.257-.806zm-2.519 1.615-1.269.813v-.131l1.268-.813zm-2.542 1.63-1.281.821v-.131l1.286-.822zm-2.567 1.645-1.293.829v-.131l1.3-.83zm-2.592 1.662-1.3.836v-.132l1.3-.836z"/>
                                <path id="Trazado_4337" data-name="Trazado 4337" class="cls-8" d="M641.176 155.467v-.131l.654-.419v.132z"/>
                                <path id="Trazado_4338" data-name="Trazado 4338" class="cls-8" d="m662.494 153.394.006-.124.592-.4-.005.126z"/>
                                <path id="Trazado_4339" data-name="Trazado 4339" class="cls-8" d="m661.312 154.177-1.185.789.005-.126 1.188-.79zm-2.381 1.579-1.2.794v-.127l1.2-.793zm-2.4 1.593-1.209.8v-.127l1.21-.8zm-2.424 1.606-1.22.809v-.127l1.22-.808zm-2.446 1.62-1.231.817v-.128l1.232-.816zm-2.467 1.637-1.244.824v-.129l1.244-.823zm-2.493 1.651-1.253.831v-.128l1.255-.831zm-2.513 1.667-1.266.839v-.129l1.271-.841z"/>
                                <path id="Trazado_4340" data-name="Trazado 4340" class="cls-8" d="M641.007 167.637v-.132l.643-.422v.132z"/>
                                <path id="Trazado_4341" data-name="Trazado 4341" class="cls-8" d="M650.529 166.8v-.126l.615-.413v.126z"/>
                                <path id="Trazado_4342" data-name="Trazado 4342" class="cls-8" d="M649.268 167.648 648 168.5v-.126l1.268-.855zm-2.545 1.711-1.28.862v-.121l1.283-.861zm-2.566 1.727-1.293.87v-.127l1.295-.869z"/>
                                <path id="Trazado_4343" data-name="Trazado 4343" class="cls-8" d="M640.929 173.259v-.127l.638-.428v.127z"/>
                                <path id="Trazado_4344" data-name="Trazado 4344" class="cls-8" d="M650.28 176.117v-.122l.611-.419v.123z"/>
                                <path id="Trazado_4345" data-name="Trazado 4345" class="cls-8" d="m649.033 176.978-1.25.865v-.123l1.25-.864zm-2.512 1.734-1.265.872v-.123l1.268-.873zm-2.535 1.749-1.276.88v-.123l1.278-.881z"/>
                                <path id="Trazado_4346" data-name="Trazado 4346" class="cls-8" d="M640.8 182.66v-.124l.63-.433v.123z"/>
                                <path id="Trazado_4347" data-name="Trazado 4347" class="cls-1" d="m644.321 180.322 33.6-23.187a5.829 5.829 0 0 0 1.138-1.069 8.916 8.916 0 0 0 .962-1.434 9.4 9.4 0 0 0 .691-1.621 6.961 6.961 0 0 0 .323-1.628l1.393-21.022-.066.043-14.609 26.931-4.069-2.628a.327.327 0 0 0-.132-.047.438.438 0 0 0-.149.01.67.67 0 0 0-.164.066 1.073 1.073 0 0 0-.172.119 1.621 1.621 0 0 0-.128.122c-.041.044-.082.092-.121.143s-.077.1-.114.16-.069.114-.1.174l-7.831 14.421-3.171-1.807a.365.365 0 0 0-.249-.036.8.8 0 0 0-.289.127 1.538 1.538 0 0 0-.294.264 2.168 2.168 0 0 0-.263.381l-.851 1.58-1.893 3.532-2.068 3.849-1.374 2.557z"/>
                                <path id="Trazado_4348" data-name="Trazado 4348" class="cls-10" d="m644.167 180.549-.072-.037 6.383-11.734a2.406 2.406 0 0 1 .294-.428 1.7 1.7 0 0 1 .329-.3.865.865 0 0 1 .323-.137.407.407 0 0 1 .28.039l3.108 1.771 7.793-14.346a2.351 2.351 0 0 1 .286-.419 1.638 1.638 0 0 1 .318-.287.789.789 0 0 1 .311-.132.373.373 0 0 1 .263.049l4.009 2.593 14.688-27.075.06.048-14.757 27.2-4.073-2.632a.332.332 0 0 0-.234-.044.692.692 0 0 0-.275.116 1.4 1.4 0 0 0-.28.254 2.076 2.076 0 0 0-.253.369L654.8 169.9l-3.177-1.808a.358.358 0 0 0-.247-.034.769.769 0 0 0-.285.126 1.451 1.451 0 0 0-.29.263 2.125 2.125 0 0 0-.26.377z"/>
                                <path id="Elipse_878" data-name="Elipse 878" class="cls-11" d="M650.8 165.81a1.661 1.661 0 0 1 .272-.3.945.945 0 0 1 .274-.165.423.423 0 0 1 .244-.021.3.3 0 0 1 .183.131.563.563 0 0 1 .084.267 1.192 1.192 0 0 1-.026.347 1.929 1.929 0 0 1-.125.383 2.164 2.164 0 0 1-.219.375 1.592 1.592 0 0 1-.272.3.926.926 0 0 1-.273.165.431.431 0 0 1-.241.024.306.306 0 0 1-.184-.132.558.558 0 0 1-.083-.263 1.2 1.2 0 0 1 .025-.348 1.917 1.917 0 0 1 .125-.384 2.154 2.154 0 0 1 .216-.379z"/>
                                <path id="Elipse_879" data-name="Elipse 879" class="cls-11" d="M662.769 152.412a1.558 1.558 0 0 1 .263-.287.853.853 0 0 1 .263-.155.386.386 0 0 1 .235-.014.3.3 0 0 1 .172.138.614.614 0 0 1 .076.271 1.272 1.272 0 0 1-.03.348 1.97 1.97 0 0 1-.126.38 2.088 2.088 0 0 1-.214.369 1.558 1.558 0 0 1-.263.287.864.864 0 0 1-.263.156.379.379 0 0 1-.233.014.3.3 0 0 1-.173-.137.6.6 0 0 1-.077-.271 1.276 1.276 0 0 1 .03-.348 1.91 1.91 0 0 1 .126-.381 2.068 2.068 0 0 1 .214-.37z"/>
                                <path id="Elipse_880" data-name="Elipse 880" class="cls-11" d="M681.957 128.3a1.425 1.425 0 0 1 .252-.274.738.738 0 0 1 .249-.14.33.33 0 0 1 .215 0 .3.3 0 0 1 .156.153.662.662 0 0 1 .066.28 1.379 1.379 0 0 1-.037.35 1.945 1.945 0 0 1-.127.377 2.014 2.014 0 0 1-.207.36 1.477 1.477 0 0 1-.251.273.743.743 0 0 1-.25.143.336.336 0 0 1-.217 0 .3.3 0 0 1-.157-.152.672.672 0 0 1-.065-.279 1.387 1.387 0 0 1 .037-.352 2.035 2.035 0 0 1 .128-.379 1.984 1.984 0 0 1 .208-.36z"/>
                            </g>
                        </g>
                    </g>
                </g>
            </g>
            <path id="Trazado_4458" data-name="Trazado 4458" d="M429.15 79.414c-9.608 9.3-20.4 10.126-24.78 16.811s-25.281 52.009-27.062 52.424-23.939-27.829-25.615-27.829h-7.454s-11.3 4.744-9.694 5.418 23.637 33.264 24.507 34.235 5.471 6.889 7.628 8.851 6.8 6.663 9.828 7.371 7.678.519 9.712-2.082 20.642-26.4 25.293-33.113a19.728 19.728 0 0 1 .275 2.84c.468 8.253-2.563 61.762-2.563 61.762l34.206 8.4H476.2l.62-11.122s2.925-61.386 3.692-61.6 7.208 11.654 8.377 13.276 4.153 6.464 5.413 7.872 11.757 6.771 14.792 8.511 40.993 19.47 41.767 19.47 4.239-3.144 4.683-5.181 2.322-11.009 1.6-11.479-35.3-21.19-37.362-22.7-5.821-3.129-10.259-12.215-15.685-29.613-16-30.7-5.446-11.165-6.555-12.317-2.691-3.13-14.284-8.728-21.657-10.962-22.244-11.313-3.584-.044-4.035.878-7.651-7.037-17.255 2.26z" style="opacity:.96;fill:#f8f9f9"/>
            <path id="Trazado_4459" data-name="Trazado 4459" class="cls-25" d="M344.249 120.6s7.444-.447 7.316 0-.177 2.149-3.352 3.367-3.964-3.367-3.964-3.367z"/>
            <path id="Trazado_4460" data-name="Trazado 4460" class="cls-25" d="M409.709 120.549c.7 1.1 1.77 20.971 1.77 20.971s-11.924 16.1-12.217 16.259 8.194-30.14 8.561-31.9c.082-.395-.162.785 0 0 .377-1.845 1.343-6.187 1.886-5.33z"/>
            <path id="Trazado_4461" data-name="Trazado 4461" class="cls-25" d="M480.2 142.007s-7.973-16.2-9.059-16.885 5.881 44.677 5.881 44.677z" transform="translate(1 2)"/>
            <path id="Trazado_4462" data-name="Trazado 4462" class="cls-26" d="M435.467 90.631a21.258 21.258 0 0 0-5.008 15.33c.77 9.212 2.294 10.913 2.294 10.913s.058 1.163 3.844 4.682 13.529 14.795 13.529 14.795 4.694 6.175 4.876 9.265-2.058 12.71-2.058 12.71-1.551 2.721-4.738 0a19.6 19.6 0 0 0-5.04-3.409s-1.4-.807-2.406-5.71-8.008-13.581-8.008-13.581-8.386-13.908-9.086-15.139-3.923-8.7 0-15.86a92.064 92.064 0 0 1 9.9-13.993z"/>
            <path id="Trazado_4466" data-name="Trazado 4466" class="cls-27" d="M319.565 119.933s4.247 4.206 8.522 4.631 7.371 1.726 8.295 1.7 8.875-.55 10.65-2.125-9.778-8.456-10.65-8.433.263-.589-11.136 0-16.625.3-18.96.563-3.817 3.554.6 3.662 12.679.002 12.679.002z"/>
            <path id="Trazado_4467" data-name="Trazado 4467" class="cls-25" d="M552.106 182.821c.487-.936 3.411 1.645 3.224 2.983s-3.027 4.469-3.762 4.9.05-6.947.538-7.883z"/>
            <path id="Trazado_4468" data-name="Trazado 4468" class="cls-27" d="m576.271 173.114 6.291 4.376s2.561 3.637-3.731 1.956-11.216-3.563-13.6-1.382-5.517 7.3-9.179 8.048-3.64-1.08-4.107-1.191.541-5.633 2.962-8.226 8.968-7.4 9.447-7.766 2.369-2.76 4.8-.671a64.526 64.526 0 0 0 7.117 4.856z"/>
            <path id="Trazado_4470" data-name="Trazado 4470" d="M443.681 284.6c38.342-23.559 39.747-20.508 39.747-20.508l-2.47-51.238-49.936-4.3 4.972 59.879z" style="fill:#a7b7cd;opacity:.96"/>
            <path id="Trazado_4456" data-name="Trazado 4456" class="cls-29" d="M423.681 40.516a2.966 2.966 0 0 1-2.895-.574c-1.654-1.173 1.539-.246 1.623-2.479s-3.052-2.122-3.225-4.759.673-7.011 4.495-7.948c1.776-2.891 1.041.623 3-5.311s11.142-3.658 11.752-2.3 1.469 6.305 4.382 5.818 5.492-.964 6.247 0-.071 3.984.776 5.03 3.574 2.281 4.134 3.811-.015 6.4-1.859 7.422-.921 4.534-.962 6.223.747 4.1-.449 3.6.925-2.49-.864-4.533-6.373 8.174-7.478 3.811 3.474-15.805.455-19.806-9.937-2.756-9.937-2.756l-7.094 1.448-1.682 2.54z"/>
            <path id="Trazado_4454" data-name="Trazado 4454" class="cls-27" d="M425.4 29.233s-1.535 9.665-1.5 10.232-1.131 19.638 1.5 24.4 5.5 4.114 5.5 4.114h2.04s-1.544 9.838-3.282 11.3-1.711 6.112-1.711 6.112 7.561 8.973 14.062 1.73 7.651-11.558 7.651-11.558l-2.134-23.767s2.338 1.724 3.147-2.229-1.227-8.433-4.171-5.788c-1.153 1.606-.263 3.7-1.137 3.98s-2.9 1.382-3.356-1.519.9-13.079.9-13.079 1.834-3.5 0-2.879-17.509-1.049-17.509-1.049z"/>
            <path id="Trazado_4455" data-name="Trazado 4455" d="M432.977 68.059s6.11-4.468 7.788-5.528-.621 2.041-.621 2.041l-9.111 12.019z" style="fill:#67493f;opacity:.96"/>
            <path id="Trazado_4457" data-name="Trazado 4457" class="cls-29" d="M446.543 42.505a25.419 25.419 0 0 1-.96 5.9c-.788 2.15-3.7 1.452-3.323-.507s.949-11.216 1.107-12.86 1.857-4.9-2.065-3.014-11.159 3.691-13.244 1.909-1.788-2.52-2.258-1.24-.756 7.468-1.212 7.786-2.044-8.456-2.044-8.456l3.952-7.74h5.254l10.955 1.189 3.837 7.849z" transform="translate(-.789)"/>
            <path id="Trazado_4463" data-name="Trazado 4463" class="cls-26" d="M434.485 84.39s-3.281 3.594-2.887 4.35a3.08 3.08 0 0 0 2.027 1.809 14.53 14.53 0 0 0 2.323 0s1.105-.019 1.184-.2 1.316-2.951.184-3.971a19.169 19.169 0 0 0-2.831-1.988z"/>
            <path id="Trazado_4464" data-name="Trazado 4464" class="cls-31" d="M449.807 75.974s-13.722 7.945-14.526 8.175 2.873 6.844 3.108 7.082.773 1.214 1.7.665 14.543-12.569 14.685-12.986-4.967-2.936-4.967-2.936z"/>
            <path id="Trazado_4465" data-name="Trazado 4465" class="cls-31" d="M428.24 89.013c-1.753-2.226-4.228-4.954-3.554-5.76s4.4-4.218 4.942-4.036 4.481 4.56 5.223 4.645-3.194 5.8-3.612 6.108-1.246 1.268-2.999-.957z"/>
            <path id="Trazado_4469" data-name="Trazado 4469" d="M414.357 206.058s-1.207 94.1 1.593 93.479S443.681 285 443.681 285l-10.843-76.05z" style="fill:#8b9eb0;opacity:.96"/>
            <g id="Grupo_5977" data-name="Grupo 5977" class="cls-5">
                <path id="Trazado_4443" data-name="Trazado 4443" class="cls-33" d="m477.557 219.758-23.2-.428a1.338 1.338 0 0 1-.377-.06 1.067 1.067 0 0 1-.3-.151.709.709 0 0 1-.2-.218.5.5 0 0 1-.066-.264.514.514 0 0 1 .086-.263.777.777 0 0 1 .21-.21 1.156 1.156 0 0 1 .318-.139 1.4 1.4 0 0 1 .381-.046l23.2.413a1.379 1.379 0 0 1 .382.061 1.045 1.045 0 0 1 .311.152.7.7 0 0 1 .206.221.5.5 0 0 1 .065.268.507.507 0 0 1-.088.263.751.751 0 0 1-.222.213 1.144 1.144 0 0 1-.322.141 1.422 1.422 0 0 1-.39.047z"/>
                <path id="Trazado_4441" data-name="Trazado 4441" class="cls-33" d="m478.084 205.568-23.2-.27a1.335 1.335 0 0 1-.376-.058 1.049 1.049 0 0 1-.3-.149.694.694 0 0 1-.2-.217.5.5 0 0 1-.066-.263.524.524 0 0 1 .087-.263.774.774 0 0 1 .211-.212 1.087 1.087 0 0 1 .318-.139 1.384 1.384 0 0 1 .379-.05l23.2.254a1.4 1.4 0 0 1 .386.058 1.07 1.07 0 0 1 .312.15.707.707 0 0 1 .206.219.5.5 0 0 1 .07.266.528.528 0 0 1-.087.264.78.78 0 0 1-.221.215 1.149 1.149 0 0 1-.322.143 1.388 1.388 0 0 1-.39.05z"/>
                <path id="Trazado_4310" data-name="Trazado 4310" class="cls-33" d="m447.341 219.786-22.538-.423a1.3 1.3 0 0 1-.366-.059 1.022 1.022 0 0 1-.3-.148.686.686 0 0 1-.2-.215.486.486 0 0 1-.066-.263.511.511 0 0 1 .088-.256.737.737 0 0 1 .211-.209 1.077 1.077 0 0 1 .306-.136 1.322 1.322 0 0 1 .37-.046l22.539.408a1.317 1.317 0 0 1 .374.06 1.051 1.051 0 0 1 .3.15.717.717 0 0 1 .2.217.5.5 0 0 1 .066.264.514.514 0 0 1-.086.263.758.758 0 0 1-.216.21 1.126 1.126 0 0 1-.313.139 1.386 1.386 0 0 1-.379.046z"/>
                <path id="Trazado_4309" data-name="Trazado 4309" class="cls-33" d="m447.607 212.791-22.54-.345a1.3 1.3 0 0 1-.366-.059 1.016 1.016 0 0 1-.294-.148.668.668 0 0 1-.194-.216.5.5 0 0 1-.066-.263.513.513 0 0 1 .088-.253.743.743 0 0 1 .21-.208 1.1 1.1 0 0 1 .3-.138 1.312 1.312 0 0 1 .369-.047l22.539.329a1.315 1.315 0 0 1 .374.058 1.029 1.029 0 0 1 .306.151.7.7 0 0 1 .2.217.5.5 0 0 1 .066.263.518.518 0 0 1-.086.264.749.749 0 0 1-.216.211 1.059 1.059 0 0 1-.313.139 1.347 1.347 0 0 1-.377.045z"/>
                <path id="Trazado_4308" data-name="Trazado 4308" class="cls-33" d="m447.871 205.8-22.539-.269a1.253 1.253 0 0 1-.365-.057 1.006 1.006 0 0 1-.3-.147.689.689 0 0 1-.194-.215.494.494 0 0 1-.066-.26.511.511 0 0 1 .088-.256.721.721 0 0 1 .211-.208 1.061 1.061 0 0 1 .3-.139 1.278 1.278 0 0 1 .369-.049l22.538.254a1.349 1.349 0 0 1 .374.056 1.054 1.054 0 0 1 .3.148.69.69 0 0 1 .2.216.486.486 0 0 1 .066.263.5.5 0 0 1-.085.263.733.733 0 0 1-.214.212 1.09 1.09 0 0 1-.313.141 1.339 1.339 0 0 1-.378.049z"/>
                <path id="Trazado_4307" data-name="Trazado 4307" class="cls-33" d="m420.317 220.162-2.492-.05a.482.482 0 0 1-.355-.167.523.523 0 0 1-.1-.175.569.569 0 0 1-.032-.213l.105-2.66a.564.564 0 0 1 .051-.214.555.555 0 0 1 .116-.168.529.529 0 0 1 .166-.114.491.491 0 0 1 .2-.039l2.5.045a.464.464 0 0 1 .2.047.5.5 0 0 1 .158.12.537.537 0 0 1 .1.175.566.566 0 0 1 .032.212l-.106 2.665a.592.592 0 0 1-.049.211.556.556 0 0 1-.116.171.521.521 0 0 1-.168.114.49.49 0 0 1-.21.04z"/>
                <path id="Trazado_4306" data-name="Trazado 4306" class="cls-11" d="m420.592 213.259-2.493-.041a.478.478 0 0 1-.2-.046.5.5 0 0 1-.158-.12.536.536 0 0 1-.1-.174.566.566 0 0 1-.031-.212l.1-2.66a.6.6 0 0 1 .051-.214.579.579 0 0 1 .116-.169.54.54 0 0 1 .166-.114.493.493 0 0 1 .2-.04l2.494.036a.468.468 0 0 1 .2.047.48.48 0 0 1 .157.119.532.532 0 0 1 .1.175.57.57 0 0 1 .03.209l-.106 2.668a.571.571 0 0 1-.049.211.557.557 0 0 1-.116.171.527.527 0 0 1-.167.114.493.493 0 0 1-.194.04z"/>
                <path id="Trazado_4305" data-name="Trazado 4305" class="cls-9" d="m420.866 206.358-2.493-.034a.465.465 0 0 1-.2-.045.492.492 0 0 1-.157-.118.532.532 0 0 1-.1-.175.566.566 0 0 1-.032-.212l.1-2.658a.574.574 0 0 1 .166-.383.533.533 0 0 1 .167-.114.493.493 0 0 1 .2-.041l2.5.028a.464.464 0 0 1 .2.044.5.5 0 0 1 .156.121.538.538 0 0 1 .1.174.551.551 0 0 1 .031.213l-.105 2.662a.6.6 0 0 1-.049.212.572.572 0 0 1-.117.171.52.52 0 0 1-.167.115.49.49 0 0 1-.2.04z"/>
            </g>
            <path id="Trazado_4471" data-name="Trazado 4471" class="cls-34" d="M331.566 80.228s-19.059 3.553-30.7 10.989"/>
            <path id="Trazado_4472" data-name="Trazado 4472" class="cls-34" d="M325.554 106.786s17.87-5.648 22.59-5.49"/>
            <path id="Trazado_4473" data-name="Trazado 4473" class="cls-34" d="M324.249 179.606s23.393 7.875 31.692 8.525"/>
            <path id="Trazado_4474" data-name="Trazado 4474" class="cls-34" d="M333.888 208.425s27.074 8.818 47.244 9.308"/>
            <path id="Trazado_4475" data-name="Trazado 4475" class="cls-34" d="M493.328 68.571S542.033 73.68 560.6 82.09"/>
            <path id="Trazado_4476" data-name="Trazado 4476" class="cls-34" d="M529.916 110.907s21.563 2.9 30.26 7.819"/>
            <path id="Trazado_4477" data-name="Trazado 4477" class="cls-34" d="M545.417 214.644s18.5-1.213 35.419-8.9"/>
            <path id="Trazado_4478" data-name="Trazado 4478" class="cls-34" d="M569.217 195.066s21.107-5.572 35.448-14.955"/>
            <circle id="Elipse_889" data-name="Elipse 889" class="cls-35" cx="4.936" cy="4.936" r="4.936" transform="translate(305.657 72.402)"/>
            <circle id="Elipse_890" data-name="Elipse 890" class="cls-36" cx="2.961" cy="2.961" r="2.961" transform="translate(333.954 92.144)"/>
            <circle id="Elipse_893" data-name="Elipse 893" class="cls-36" cx="2.961" cy="2.961" r="2.961" transform="translate(315.128 136.235)"/>
            <circle id="Elipse_894" data-name="Elipse 894" class="cls-36" cx="2.961" cy="2.961" r="2.961" transform="translate(336.586 221.126)"/>
            <circle id="Elipse_895" data-name="Elipse 895" class="cls-35" cx="2.961" cy="2.961" r="2.961" transform="translate(560.716 222.442)"/>
            <circle id="Elipse_900" data-name="Elipse 900" class="cls-37" cx="3.948" cy="3.948" r="3.948" transform="translate(552.69 95.435)"/>
            <circle id="Elipse_904" data-name="Elipse 904" class="cls-37" cx="2.961" cy="2.961" r="2.961" transform="translate(503.335 60.557)"/>
            <circle id="Elipse_905" data-name="Elipse 905" class="cls-35" cx="1.974" cy="1.974" r="1.974" transform="translate(523.735 84.248)"/>
            <circle id="Elipse_891" data-name="Elipse 891" class="cls-37" cx="5.594" cy="5.594" r="5.594" transform="translate(292.496 101.357)"/>
            <circle id="Elipse_892" data-name="Elipse 892" class="cls-35" cx="5.594" cy="5.594" r="5.594" transform="translate(310.263 190.855)"/>
            <circle id="Elipse_898" data-name="Elipse 898" class="cls-36" cx="5.594" cy="5.594" r="5.594" transform="translate(595.594 198.093)"/>
            <circle id="Elipse_902" data-name="Elipse 902" class="cls-35" cx="5.594" cy="5.594" r="5.594" transform="translate(542.819 59.899)"/>
            <circle id="Elipse_896" data-name="Elipse 896" class="cls-37" cx="4.936" cy="4.936" r="4.936" transform="translate(369.49 181.642)"/>
            <circle id="Elipse_897" data-name="Elipse 897" class="cls-37" cx="4.936" cy="4.936" r="4.936" transform="translate(545.58 196.777)"/>
            <circle id="Elipse_899" data-name="Elipse 899" class="cls-35" cx="4.936" cy="4.936" r="4.936" transform="translate(592.961 165.19)"/>
            <circle id="Elipse_901" data-name="Elipse 901" class="cls-36" cx="4.936" cy="4.936" r="4.936" transform="translate(503.335 96.093)"/>
            <g id="Grupo_5984" data-name="Grupo 5984" style="opacity:.915">
                <path id="Trazado_4444" data-name="Trazado 4444" d="M409.89 162.429a267.006 267.006 0 0 0 50.544 5.264c26.488 0 55.4-5.264 55.4-5.264a5.265 5.265 0 0 1 5.265 5.264V225.6a5.265 5.265 0 0 1-5.265 5.265s-28.916 5.55-55.4 5.55a253.881 253.881 0 0 1-50.544-5.55 5.265 5.265 0 0 1-5.265-5.265v-57.91a5.264 5.264 0 0 1 5.265-5.261z" style="fill:#d3cfcf"/>
                <path id="Trazado_4445" data-name="Trazado 4445" class="cls-1" d="M412.9 167.95a271.158 271.158 0 0 0 47.561 4.573c24.92 0 52.128-4.573 52.128-4.573a4.775 4.775 0 0 1 4.953 4.573v50.3a4.775 4.775 0 0 1-4.953 4.573s-27.208 4.821-52.13 4.821a257.882 257.882 0 0 1-47.559-4.821 4.775 4.775 0 0 1-4.953-4.573v-50.3a4.775 4.775 0 0 1 4.953-4.573z"/>
                <g id="Grupo_5978" data-name="Grupo 5978">
                    <path id="Trazado_4311" data-name="Trazado 4311" class="cls-9" d="m507.058 203.623.021-.172.019-.173.017-.175.015-.175a13.6 13.6 0 0 0-.4-4.541 12.1 12.1 0 0 0-1.77-3.849 10.03 10.03 0 0 0-2.876-2.763 8.5 8.5 0 0 0-3.722-1.271l-.939 12.372z"/>
                    <path id="Trazado_4312" data-name="Trazado 4312" class="cls-11" d="m496.745 203.874.939-12.377a8.446 8.446 0 0 0-3.9.57 9.865 9.865 0 0 0-3.347 2.238 11.952 11.952 0 0 0-2.422 3.566 13.769 13.769 0 0 0-.68 9.175 12 12 0 0 0 1.863 3.88 9.892 9.892 0 0 0 2.965 2.709 8.412 8.412 0 0 0 7.468.545 9.836 9.836 0 0 0 3.177-2.1 11.8 11.8 0 0 0 2.354-3.287 13.439 13.439 0 0 0 1.239-4.18z"/>
                </g>
                <path id="Trazado_4442-2" data-name="Trazado 4442" class="cls-33" d="m478.56 202.632-24.435-.618a1.537 1.537 0 0 1-.4-.066 1.2 1.2 0 0 1-.329-.154.759.759 0 0 1-.216-.221.469.469 0 0 1 .01-.527.763.763 0 0 1 .228-.21 1.191 1.191 0 0 1 .329-.138 1.5 1.5 0 0 1 .4-.041l24.434.622a1.514 1.514 0 0 1 .4.065 1.178 1.178 0 0 1 .329.154.741.741 0 0 1 .219.22.492.492 0 0 1 .077.263.48.48 0 0 1-.086.264.737.737 0 0 1-.225.209 1.187 1.187 0 0 1-.329.137 1.514 1.514 0 0 1-.406.041z"/>
                <g id="Grupo_5977-2" data-name="Grupo 5977">
                    <path id="Trazado_4443-2" data-name="Trazado 4443" class="cls-33" d="m477.517 209.753-23.2-.429a1.338 1.338 0 0 1-.377-.06 1.051 1.051 0 0 1-.3-.15.724.724 0 0 1-.2-.219.5.5 0 0 1-.066-.263.514.514 0 0 1 .086-.263.75.75 0 0 1 .21-.21 1.087 1.087 0 0 1 .318-.139 1.357 1.357 0 0 1 .381-.046l23.2.412a1.417 1.417 0 0 1 .382.061 1.1 1.1 0 0 1 .311.152.721.721 0 0 1 .205.221.492.492 0 0 1 .066.268.507.507 0 0 1-.088.263.751.751 0 0 1-.222.213 1.115 1.115 0 0 1-.322.141 1.385 1.385 0 0 1-.39.047z"/>
                    <path id="Trazado_4441-2" data-name="Trazado 4441" class="cls-33" d="m478.044 195.562-23.2-.27a1.335 1.335 0 0 1-.376-.058 1.046 1.046 0 0 1-.3-.148.709.709 0 0 1-.2-.218.493.493 0 0 1-.066-.263.506.506 0 0 1 .087-.263.76.76 0 0 1 .211-.212 1.121 1.121 0 0 1 .317-.139 1.351 1.351 0 0 1 .379-.049l23.2.254a1.368 1.368 0 0 1 .386.058 1.068 1.068 0 0 1 .312.149.718.718 0 0 1 .206.219.5.5 0 0 1 .07.267.524.524 0 0 1-.087.263.78.78 0 0 1-.221.215 1.164 1.164 0 0 1-.322.144 1.465 1.465 0 0 1-.39.05z"/>
                    <path id="Trazado_4310-2" data-name="Trazado 4310" class="cls-33" d="m447.3 209.78-22.538-.422a1.258 1.258 0 0 1-.366-.06.962.962 0 0 1-.3-.148.679.679 0 0 1-.2-.215.486.486 0 0 1-.065-.263.5.5 0 0 1 .088-.255.727.727 0 0 1 .211-.21 1.077 1.077 0 0 1 .306-.136 1.285 1.285 0 0 1 .37-.045l22.539.408a1.317 1.317 0 0 1 .374.06 1.048 1.048 0 0 1 .3.149.709.709 0 0 1 .2.218.5.5 0 0 1 .066.263.514.514 0 0 1-.086.263.745.745 0 0 1-.216.21 1.064 1.064 0 0 1-.314.139 1.337 1.337 0 0 1-.378.046z"/>
                    <path id="Trazado_4309-2" data-name="Trazado 4309" class="cls-33" d="m447.567 202.786-22.54-.346a1.3 1.3 0 0 1-.366-.058 1 1 0 0 1-.3-.149.674.674 0 0 1-.193-.215.5.5 0 0 1-.066-.264.51.51 0 0 1 .088-.252.73.73 0 0 1 .21-.208 1.048 1.048 0 0 1 .3-.138 1.274 1.274 0 0 1 .368-.048l22.54.329a1.316 1.316 0 0 1 .374.059 1.051 1.051 0 0 1 .306.15.709.709 0 0 1 .2.218.493.493 0 0 1 .066.263.514.514 0 0 1-.086.263.762.762 0 0 1-.216.211 1.1 1.1 0 0 1-.313.14 1.352 1.352 0 0 1-.372.045z"/>
                    <path id="Trazado_4308-2" data-name="Trazado 4308" class="cls-33" d="m447.83 195.793-22.538-.269a1.266 1.266 0 0 1-.366-.057.99.99 0 0 1-.294-.147.666.666 0 0 1-.194-.215.494.494 0 0 1-.066-.26.514.514 0 0 1 .088-.256.757.757 0 0 1 .21-.208 1.079 1.079 0 0 1 .3-.139 1.313 1.313 0 0 1 .369-.049l22.538.254a1.314 1.314 0 0 1 .374.057 1.037 1.037 0 0 1 .3.147.69.69 0 0 1 .2.216.486.486 0 0 1 .066.263.51.51 0 0 1-.085.264.742.742 0 0 1-.214.211 1.09 1.09 0 0 1-.313.141 1.34 1.34 0 0 1-.378.05z"/>
                    <path id="Trazado_4307-2" data-name="Trazado 4307" class="cls-33" d="m420.277 210.156-2.493-.05a.467.467 0 0 1-.2-.047.484.484 0 0 1-.157-.12.513.513 0 0 1-.1-.175.566.566 0 0 1-.032-.212l.105-2.661a.587.587 0 0 1 .05-.214.573.573 0 0 1 .117-.167.513.513 0 0 1 .166-.114.476.476 0 0 1 .2-.04l2.5.046a.478.478 0 0 1 .2.046.5.5 0 0 1 .158.12.548.548 0 0 1 .1.175.572.572 0 0 1 .032.213l-.106 2.664a.6.6 0 0 1-.049.212.585.585 0 0 1-.117.171.5.5 0 0 1-.167.113.474.474 0 0 1-.207.04z"/>
                    <path id="Trazado_4306-2" data-name="Trazado 4306" class="cls-11" d="m420.552 203.253-2.493-.041a.483.483 0 0 1-.2-.046.506.506 0 0 1-.157-.119.53.53 0 0 1-.1-.175.56.56 0 0 1-.031-.211l.1-2.661a.589.589 0 0 1 .051-.214.561.561 0 0 1 .116-.168.524.524 0 0 1 .166-.114.474.474 0 0 1 .2-.04l2.494.036a.483.483 0 0 1 .2.046.5.5 0 0 1 .157.119.543.543 0 0 1 .1.175.57.57 0 0 1 .03.209l-.106 2.668a.567.567 0 0 1-.049.211.557.557 0 0 1-.116.171.512.512 0 0 1-.167.114.477.477 0 0 1-.195.04z"/>
                    <path id="Trazado_4305-2" data-name="Trazado 4305" class="cls-9" d="m420.826 196.352-2.493-.033a.484.484 0 0 1-.354-.164.518.518 0 0 1-.1-.174.575.575 0 0 1-.032-.213l.105-2.658a.574.574 0 0 1 .166-.382.52.52 0 0 1 .167-.115.493.493 0 0 1 .2-.041l2.5.028a.465.465 0 0 1 .2.045.483.483 0 0 1 .156.12.532.532 0 0 1 .1.175.566.566 0 0 1 .031.212l-.106 2.662a.571.571 0 0 1-.165.384.533.533 0 0 1-.167.114.49.49 0 0 1-.208.04z"/>
                </g>
            </g>
        </g>
    </g>
</svg>
