<svg data-name="Grupo 5092" xmlns="http://www.w3.org/2000/svg" width="26" height="19.499">
    <path d="M1.89 89.557a.3.3 0 0 0-.3.307v15.567a.3.3 0 0 0 .3.307h22.22a.3.3 0 0 0 .3-.307V89.864a.3.3 0 0 0-.3-.307zM24.106 107.4H1.89A1.933 1.933 0 0 1 0 105.431V89.864A1.929 1.929 0 0 1 1.89 87.9h22.22A1.929 1.929 0 0 1 26 89.864v15.567a1.938 1.938 0 0 1-1.894 1.968zm-12.4-6.585H3.462a.829.829 0 0 1 0-1.657H11.7a.829.829 0 0 1 0 1.657zM9.055 96.39H3.462a.829.829 0 0 1 0-1.657h5.593a.829.829 0 0 1 0 1.657zm9.584-3.79a2.374 2.374 0 0 1 1.746.614 3.05 3.05 0 0 1 0 3.729 2.372 2.372 0 0 1-1.746.61 2.372 2.372 0 0 1-1.742-.61 3.059 3.059 0 0 1 0-3.725 2.342 2.342 0 0 1 1.742-.618zm0 1.435a1.2 1.2 0 0 0-.78.211 1.721 1.721 0 0 0 0 1.657 1.144 1.144 0 0 0 .784.211 1.16 1.16 0 0 0 .792-.211 1.713 1.713 0 0 0 0-1.654 1.222 1.222 0 0 0-.788-.215zm1.454 4.6a2.768 2.768 0 0 1 2.094.806 2.8 2.8 0 0 1 .684 1.946v.825a.276.276 0 0 1-.27.281h-7.912a.271.271 0 0 1-.27-.277v-.829a2.819 2.819 0 0 1 .681-1.946 2.754 2.754 0 0 1 2.09-.806zm0 1.439h-2.9a1.491 1.491 0 0 0-1.095.366 1.2 1.2 0 0 0-.274.618h5.637a1.16 1.16 0 0 0-.274-.618 1.483 1.483 0 0 0-1.094-.369z" transform="translate(0 -87.9)" style="fill:#019df4;fill-rule:evenodd"/>
</svg>
