<svg data-name="Grupo 5090" xmlns="http://www.w3.org/2000/svg" width="26" height="29.243">
    <path data-name="Trazado 1348" d="M51.9 14.642a7.447 7.447 0 0 1-5.362-1.81 7.332 7.332 0 0 1-1.951-5.5 7.359 7.359 0 0 1 1.951-5.512A7.432 7.432 0 0 1 51.9 0a7.46 7.46 0 0 1 5.371 1.818A7.33 7.33 0 0 1 59.23 7.33a7.3 7.3 0 0 1-1.964 5.5 7.458 7.458 0 0 1-5.366 1.81zm0-12.979a5.854 5.854 0 0 0-4.206 1.352 5.8 5.8 0 0 0-1.444 4.318 5.759 5.759 0 0 0 1.444 4.305 5.876 5.876 0 0 0 4.206 1.345 5.923 5.923 0 0 0 4.218-1.344 5.747 5.747 0 0 0 1.452-4.3c-.004-3.82-1.859-5.675-5.67-5.675zm12.168 27.58H39.732a.834.834 0 0 1-.832-.832v-2.433a8.087 8.087 0 0 1 2.1-5.745 8.643 8.643 0 0 1 6.431-2.388h8.923a8.661 8.661 0 0 1 6.44 2.384 8.076 8.076 0 0 1 2.106 5.749v2.433a.834.834 0 0 1-.832.832zm-23.5-1.664h22.668v-1.6a6.476 6.476 0 0 0-1.643-4.6 6.974 6.974 0 0 0-5.242-1.872h-8.923a6.931 6.931 0 0 0-5.228 1.874 6.476 6.476 0 0 0-1.635 4.6z" transform="translate(-38.9)" style="fill:#019df4"/>
</svg>
