<svg id="Escritorio" xmlns="http://www.w3.org/2000/svg" width="121.417" height="38.525" viewBox="0 0 121.417 38.525">
  <path id="Fill_4" data-name="Fill 4" d="M.883,14.021A28.649,28.649,0,0,0,.416,25.935a45.922,45.922,0,0,0,2.758,9.711,8.667,8.667,0,0,0,1.072,1.827,2.865,2.865,0,0,0,3.315.834c.752-.373,1.616-1.274,1.3-3.33a27.527,27.527,0,0,0-.832-3.255c-.753-2.479-1.755-5.471-1.842-7.6-.117-2.851,1-3.223,1.738-3.388,1.244-.276,2.288,1.1,3.279,2.829,1.183,2.061,3.211,5.714,4.864,8.5a9.453,9.453,0,0,0,8.674,5.03c4.512-.189,7.837-1.924,9.549-7.388a90.792,90.792,0,0,1,3.562-10.271c1.616-3.6,3.773-5.522,5.589-4.935,1.686.546,2.107,2.208,2.128,4.651a55.714,55.714,0,0,1-.423,6.293,18.253,18.253,0,0,0-.145,2.622c.1,1.394.7,2.787,2.258,3.01,1.659.237,2.99-1.1,3.521-2.715a15.225,15.225,0,0,0,.485-2.3,41.728,41.728,0,0,0,.394-9.411A33.9,33.9,0,0,0,49.181,5.365C47.828,2.212,45.654.191,42.867.013c-3.086-.2-6.627,1.867-8.485,5.872C32.67,9.577,31.3,13.367,30.469,15.3c-.842,1.962-2.081,3.17-3.985,3.373-2.328.247-4.335-1.457-5.8-3.887A55.783,55.783,0,0,0,15.5,7.28c-1.277-1.273-2.735-2.866-5.769-2.818C7.333,4.5,2.906,5.694.883,14.021Z" transform="translate(0 0)" fill="#019df4"/>
  <path id="Trazado_4836" data-name="Trazado 4836" d="M-30.349-15.048h1.716l5.236,9.9,5.3-9.9h1.672V0h-1.848V-11.2L-22.649-3.19h-1.628l-4.334-8.1V0h-1.738ZM-8.723.308a4.509,4.509,0,0,1-3.685-1.474A6.459,6.459,0,0,1-13.629-5.39a6.459,6.459,0,0,1,1.221-4.224,4.509,4.509,0,0,1,3.685-1.474A4.509,4.509,0,0,1-5.038-9.614,6.459,6.459,0,0,1-3.817-5.39,6.459,6.459,0,0,1-5.038-1.166,4.509,4.509,0,0,1-8.723.308Zm0-1.5a2.562,2.562,0,0,0,2.3-1.034A5.766,5.766,0,0,0-5.731-5.39a5.766,5.766,0,0,0-.693-3.168,2.562,2.562,0,0,0-2.3-1.034,2.562,2.562,0,0,0-2.3,1.034,5.766,5.766,0,0,0-.693,3.168,5.766,5.766,0,0,0,.693,3.168A2.562,2.562,0,0,0-8.723-1.188Zm7.414-9.592H.209L.3-9.988A7.551,7.551,0,0,1,2.123-10.8a6.659,6.659,0,0,1,1.892-.286,3.616,3.616,0,0,1,2.706.946,3.843,3.843,0,0,1,.9,2.816V0H5.8V-7.106a4.2,4.2,0,0,0-.121-1.111,1.606,1.606,0,0,0-.407-.715,2.376,2.376,0,0,0-1.738-.55,6.525,6.525,0,0,0-1.54.2,7.893,7.893,0,0,0-1.474.506V0H-1.309ZM15.345.308a5.223,5.223,0,0,1-3.85-1.3,5.971,5.971,0,0,1-1.408-4.378,6.333,6.333,0,0,1,1.265-4.257,4.265,4.265,0,0,1,3.4-1.463A3.927,3.927,0,0,1,18.095-9.6a6.833,6.833,0,0,1,1.122,4.191v.418q0,.242-.264.242H12A3.591,3.591,0,0,0,12.947-2a2.689,2.689,0,0,0,1.1.616,5.834,5.834,0,0,0,1.65.2,12.955,12.955,0,0,0,2.662-.286L18.535-.11A10.173,10.173,0,0,1,16.984.2,13.083,13.083,0,0,1,15.345.308Zm2.068-6.4a4.658,4.658,0,0,0-.7-2.574,2.232,2.232,0,0,0-1.958-.946,2.385,2.385,0,0,0-2.035.924A4.352,4.352,0,0,0,12-6.094ZM26.147,5.258a11.408,11.408,0,0,1-1.166-.066,8.4,8.4,0,0,1-1.012-.154l-.154-1.43a16.666,16.666,0,0,0,2.068.132,3.345,3.345,0,0,0,2.244-.594,1.94,1.94,0,0,0,.517-.88A5.2,5.2,0,0,0,28.809.814V-.66a6.887,6.887,0,0,1-3.454.968,3.616,3.616,0,0,1-2.706-.946,3.843,3.843,0,0,1-.9-2.816V-10.78h1.826v7.106a4.2,4.2,0,0,0,.121,1.111,1.606,1.606,0,0,0,.407.715,2.376,2.376,0,0,0,1.738.55,6.521,6.521,0,0,0,1.5-.187A7.139,7.139,0,0,0,28.809-2V-10.78h1.826V.836a4.589,4.589,0,0,1-.99,3.234A4.564,4.564,0,0,1,26.147,5.258Z" transform="translate(90.782 25.709)" fill="#019df4"/>
</svg>
