<svg id="Buscar_2Regular" xmlns="http://www.w3.org/2000/svg" width="18" height="17.918">
    <defs>
        <style>
            .cls-1{fill:#0b2739}
        </style>
    </defs>
    <path id="Trazado_2831" data-name="Trazado 2831" class="cls-1" d="M8.092 18.353A7.193 7.193 0 0 1 3.005 6.075a7.192 7.192 0 0 1 10.17 10.17 7.144 7.144 0 0 1-5.083 2.108zM8.092 5a6.149 6.149 0 1 0 4.36 1.8A6.165 6.165 0 0 0 8.092 5z" transform="translate(-.9 -4.05)"/>
    <path id="Trazado_2832" data-name="Trazado 2832" class="cls-1" d="M451.6 452.035a.5.5 0 0 1-.362-.151l-5.572-5.572a.514.514 0 0 1 .727-.727l5.572 5.572a.514.514 0 0 1 0 .727.52.52 0 0 1-.365.151z" transform="translate(-434.114 -434.117)"/>
</svg>
