<svg xmlns="http://www.w3.org/2000/svg" width="26" height="18.409">
    <g data-name="Grupo 5091">
        <path data-name="Mail correo_2Regular" d="M24.333 119.512a1.305 1.305 0 0 1-.932.3c-2 .033-20.82 0-21.027 0a.7.7 0 0 1-.392-.181 1.4 1.4 0 0 1-.285-.969v-11.5l9.024 5.669a4.02 4.02 0 0 0 2.194.677 3.736 3.736 0 0 0 2.065-.64l9.531-5.739-.011 11.536.011.126a1.065 1.065 0 0 1-.174.721M2.389 104.579h21.482c.018 0 .451.015.6.729l-10.338 6.228a2.25 2.25 0 0 1-2.509-.011l-9.894-6.216a1.147 1.147 0 0 1 .237-.592.555.555 0 0 1 .425-.141m23.7 14.034.018-12.906c-.059-2.26-1.617-2.74-2.253-2.7H2.397a2.127 2.127 0 0 0-1.587.643 3.015 3.015 0 0 0-.7 2.082v12.936a2.8 2.8 0 0 0 .762 2.1 2.2 2.2 0 0 0 1.521.632c.511 0 8.61.018 14.652.018 3.126 0 5.7 0 6.386-.018a2.7 2.7 0 0 0 2.139-.88 2.56 2.56 0 0 0 .518-1.9" transform="translate(-.106 -103)" style="fill:#019df4;fill-rule:evenodd"/>
    </g>
</svg>
