<svg xmlns="http://www.w3.org/2000/svg" width="20" height="20">
    <path data-name="Trazado 2771" d="M14.983 9.345a.626.626 0 0 1 0 1.252H10.62v4.371a.626.626 0 0 1-1.252 0v-4.373H5.014a.626.626 0 0 1 0-1.252h4.354V5.031a.626.626 0 1 1 1.252 0v4.314zm-4.55 9.4c2.5-.046 8.315-.987 8.315-8.719S12.9 1.318 10.387 1.258q-.359-.009-.717-.009h-.188c-2.476.023-8.23.913-8.23 8.719s5.811 8.745 8.31 8.779c.29.004.58.004.871-.002zM10.415.009C12.379.057 20 .831 20 10.026c0 9.217-7.635 9.932-9.542 9.969-.179 0-.384.006-.592.006h-.324C7.533 19.969 0 19.243 0 9.969S7.462.017 9.471 0h.2c.255 0 .52 0 .744.009z" style="fill:#86888c;fill-rule:evenodd"/>
</svg>
