<svg xmlns="http://www.w3.org/2000/svg" width="20" height="22.496">
    <path data-name="Trazado 2412" d="M48.9 11.264a5.728 5.728 0 0 1-4.125-1.392 5.64 5.64 0 0 1-1.5-4.234 5.661 5.661 0 0 1 1.5-4.24A5.717 5.717 0 0 1 48.9 0a5.739 5.739 0 0 1 4.131 1.4 5.639 5.639 0 0 1 1.507 4.24 5.619 5.619 0 0 1-1.51 4.234 5.737 5.737 0 0 1-4.128 1.39zM58.26 22.5H39.54a.642.642 0 0 1-.64-.64v-1.876a6.221 6.221 0 0 1 1.613-4.419 6.648 6.648 0 0 1 4.947-1.837h6.864a6.662 6.662 0 0 1 4.954 1.834 6.213 6.213 0 0 1 1.622 4.422v1.872a.642.642 0 0 1-.64.644z" transform="translate(-38.9)" style="fill:#019df4"/>
</svg>
