<svg xmlns="http://www.w3.org/2000/svg" width="20" height="19.999">
    <path data-name="Pregunta interrogacion _2Regular" d="M10.418 18.79c1.961-.037 8.358-.771 8.358-8.745s-6.429-8.745-8.4-8.793a30.811 30.811 0 0 0-.871-.009c-1.944.02-8.284.7-8.284 8.748s6.394 8.776 8.355 8.8c.285.009.592.009.842-.001zM10.407.03C12.009.067 20 .73 20 10.045s-7.962 9.94-9.562 9.969c-.176 0-.384.006-.589.006h-.287C7.965 20 0 19.4 0 9.99S7.911.036 9.5.022c.3-.006.628 0 .907.008zm-.854 14.613a.882.882 0 0 1 .031 1.764.811.811 0 0 1-.888-.839V15.5a.823.823 0 0 1 .857-.857zM12.24 4.424a2.589 2.589 0 0 1 1.042 2.268c0 1.252-.518 2-1.7 3.4-1.36 1.574-1.414 1.636-1.414 3.1a.407.407 0 0 1-.407.407h-.45a.411.411 0 0 1-.4-.33 3.238 3.238 0 0 1-.057-.643 3.977 3.977 0 0 1 1.255-2.8l.165-.2c1.429-1.69 1.7-2.163 1.7-2.96a1.429 1.429 0 0 0-.544-1.241 2.479 2.479 0 0 0-1.653-.376 6.535 6.535 0 0 0-1.693.222.409.409 0 0 1-.5-.293c0-.009 0-.017-.006-.026l-.068-.34a.407.407 0 0 1 .225-.444A6.329 6.329 0 0 1 9.969 3.8a3.672 3.672 0 0 1 2.271.626z" transform="translate(0 -.02)" style="fill:#86888c;fill-rule:evenodd"/>
</svg>
