<svg xmlns="http://www.w3.org/2000/svg" width="20" height="20.005">
    <path data-name="Pregunta interrogacion _3Masa" d="M11.575 10.106c-1.36 1.574-1.412 1.637-1.412 3.105a.407.407 0 0 1-.407.407h-.45a.4.4 0 0 1-.4-.33 3.181 3.181 0 0 1-.057-.643 3.978 3.978 0 0 1 1.255-2.8l.165-.2c1.429-1.691 1.7-2.16 1.7-2.96a1.429 1.429 0 0 0-.544-1.241 2.479 2.479 0 0 0-1.654-.376 6.552 6.552 0 0 0-1.693.222.407.407 0 0 1-.319-.054.4.4 0 0 1-.179-.268l-.065-.35a.407.407 0 0 1 .225-.444 6.311 6.311 0 0 1 2.231-.37 3.71 3.71 0 0 1 2.271.629A2.586 2.586 0 0 1 13.286 6.7c0 1.252-.524 2-1.711 3.4m-1.986 6.321a.813.813 0 0 1-.888-.84v-.065a.82.82 0 0 1 .857-.857.881.881 0 0 1 .031 1.762M10.408.044C10.13.039 9.8.03 9.5.036 7.912.05 0 .594 0 10.006s7.966 10.007 9.563 10.03h.287c.208 0 .413 0 .589-.006 1.6-.028 9.56-.646 9.56-9.97S12.011.081 10.408.044" transform="translate(0 -.034)" style="fill:#019df4;fill-rule:evenodd"/>
</svg>
