<svg xmlns="http://www.w3.org/2000/svg" width="33.568" height="38.273">
    <defs>
        <style>
            .cls-3{fill:#019df4}
        </style>
    </defs>
    <g id="Page-1" style="opacity:.8">
        <g id="Portabilidad-web">
            <g id="Group-14">
                <g id="Group">
                    <path id="Path" d="M26.705 14.212v2.541h-7.94v-2.541a3.725 3.725 0 0 1 3.868-3.558h.2a3.728 3.728 0 0 1 3.872 3.558z" transform="translate(-5.815 -3.333)" style="fill:#019bf2"/>
                    <path id="Shape" class="cls-3" d="M11.76 13.64a3.1 3.1 0 0 0-1.368.734 3.5 3.5 0 0 0-.985 2.673v6.437a3.507 3.507 0 0 0 .985 2.67 3.7 3.7 0 0 0 2.638.888h7.824a3.73 3.73 0 0 0 2.648-.885 3.589 3.589 0 0 0 1.007-2.667v-6.45a3.584 3.584 0 0 0-1.007-2.67 3.121 3.121 0 0 0-1.349-.728v-2.7a4.949 4.949 0 0 0-5.1-4.781h-.2a4.946 4.946 0 0 0-5.095 4.781v2.698zM33.6 6.191c0 .524.033 12.849-.874 18.179-1.186 6.905-13.95 13.17-15.403 13.863a1.289 1.289 0 0 1-.507.106 1.161 1.161 0 0 1-.5-.112c-1.453-.693-14.2-6.957-15.391-13.86C0 19.034.036 6.708.036 6.185A1.183 1.183 0 0 1 1.51 5.032c3.121.5 4.771-.617 6.867-2.022A13.83 13.83 0 0 1 16.811.066h.018a13.815 13.815 0 0 1 8.427 2.951c2.1 1.4 3.755 2.506 6.922 2.009a1.224 1.224 0 0 1 .977.266 1.239 1.239 0 0 1 .445.899z" transform="translate(-.036 -.066)"/>
                </g>
                <path id="Path-2" data-name="Path" class="cls-3" d="M19.319 24.269c-.45.007-1.279.229-1.658 1.776a5.285 5.285 0 0 0-.088 2.214 8.465 8.465 0 0 0 .517 1.8 1.618 1.618 0 0 0 .2.339.539.539 0 0 0 .621.155c.141-.069.3-.237.244-.619a5.019 5.019 0 0 0-.156-.6 6.67 6.67 0 0 1-.345-1.412c-.022-.53.187-.6.325-.629.233-.051.429.2.615.526.221.383.6 1.061.911 1.58a1.773 1.773 0 0 0 1.625.935 1.747 1.747 0 0 0 1.789-1.372 16.827 16.827 0 0 1 .667-1.908c.3-.669.707-1.026 1.047-.917.316.1.395.41.4.863a10.335 10.335 0 0 1-.079 1.17 3.41 3.41 0 0 0-.027.487.535.535 0 0 0 .423.559.646.646 0 0 0 .659-.5 2.787 2.787 0 0 0 .091-.428 7.684 7.684 0 0 0 .074-1.748 6.254 6.254 0 0 0-.465-2.1 1.442 1.442 0 0 0-1.183-1 1.733 1.733 0 0 0-1.589 1.091c-.321.686-.577 1.39-.733 1.749a.908.908 0 0 1-.747.627 1.217 1.217 0 0 1-1.087-.722 10.26 10.26 0 0 0-.97-1.394 1.368 1.368 0 0 0-1.08-.524" transform="translate(-5.423 -7.278)"/>
            </g>
        </g>
    </g>
</svg>
