<svg xmlns="http://www.w3.org/2000/svg" width="372.319" height="152.716">
    <defs>
        <style>
            .cls-2{fill:#d3d4d3}.cls-3,.cls-4,.cls-5,.cls-8{fill:none}.cls-3,.cls-5{stroke:#86888c}.cls-3,.cls-4,.cls-8{stroke-linecap:round;stroke-miterlimit:10}.cls-4{stroke:#b6b7b7}.cls-8{stroke:#50535a}
        </style>
    </defs>
    <g id="Grupo_6119" data-name="Grupo 6119" style="opacity:.56">
        <g id="Grupo_6104" data-name="Grupo 6104" transform="translate(2.346 104.735)">
            <path id="Trazado_4646" data-name="Trazado 4646" class="cls-2" d="M-526 438.045a46.291 46.291 0 0 1-5.935-.754c-3.364-.7-9.651-6.05-.575-15.01 1.692-1.67-.356-6.868-1.287-7.8s-4.761-5.835 2.692-10.706c2.137-1.4 1.544-4.912 2.661-10.24.757-3.607 6.051-4.131 7.1 1.862a7.832 7.832 0 0 0 4.073 5.353s2.833 1.551 1.047 8.495c-.965 3.751 1.574 4.729 2.585 5.843 1.722 1.9.042 3.847.79 8.586.349 2.211 2.317 2.362 2.56 4.306.7 5.586-2.327 9.827-7.447 10.033s-8.264.032-8.264.032z" transform="translate(537.206 -390.85)"/>
            <g id="Grupo_6101" data-name="Grupo 6101" transform="translate(6.977 9.203)">
                <path id="Trazado_4647" data-name="Trazado 4647" class="cls-3" d="M-502.494 500.457v.776" transform="translate(508.309 -469.27)"/>
                <path id="Trazado_4648" data-name="Trazado 4648" class="cls-3" d="M-503.772 415.825s-.31 10.628 0 11.792c.273 1.022.366 15.815.384 19.395" transform="translate(509.203 -415.825)"/>
                <path id="Trazado_4649" data-name="Trazado 4649" class="cls-3" d="M-508.8 415.825s.034 2.715 1.8 2.715" transform="translate(512.29 -415.825)"/>
                <path id="Trazado_4650" data-name="Trazado 4650" class="cls-3" d="M-499.424 432.036s-1.862 5.2-4.112 5.818" transform="translate(508.967 -426.062)"/>
                <path id="Trazado_4651" data-name="Trazado 4651" class="cls-3" d="M-514.273 450.772s.771 4.811 4.226 6.44" transform="translate(515.747 -437.894)"/>
                <path id="Trazado_4652" data-name="Trazado 4652" class="cls-3" d="M-517.187 480.036a3.235 3.235 0 0 1 .853 3.258c-.087.409-1.939-.7-1.939-.7" transform="translate(518.273 -456.375)"/>
                <path id="Trazado_4653" data-name="Trazado 4653" class="cls-3" d="M-509.131 492.214s-1.939-2.638-3.879-3.336" transform="translate(514.949 -461.958)"/>
                <path id="Trazado_4654" data-name="Trazado 4654" class="cls-3" d="M-496.045 475.4a5.805 5.805 0 0 1-3.375 4.655c-3.089 1.24-3.064 2.4-3.064 3.025" transform="translate(508.302 -453.449)"/>
            </g>
        </g>
        <g id="Grupo_6103" data-name="Grupo 6103" transform="translate(23.411 116.889)">
            <path id="Trazado_4656" data-name="Trazado 4656" class="cls-4" d="M-436.007 480.285c3.255.974 8.259 4.686 3.059 12.808-1.8 2.815-.346 3.3.314 4.084.7.829 2.723 3.979-4.084 6.388-8.168.418-15.5 0-15.5 0s-11.193-4.349-2.3-13.125c2.723-2.687-1.257-9.145 1.256-11.449s5.354 3.12 5.539-6.846c.093-5.017 8.076-4.464 9.122.493.51 2.422-.828 6.624 2.594 7.647z" transform="translate(457.951 -468.641)"/>
            <g id="Grupo_6102" data-name="Grupo 6102" transform="translate(8.597 8.465)">
                <path id="Trazado_4657" data-name="Trazado 4657" class="cls-4" d="M-436.406 481.4s0 13.474-.7 16.406a15.921 15.921 0 0 0-.346 5.375" transform="translate(442.48 -481.404)"/>
                <path id="Trazado_4658" data-name="Trazado 4658" class="cls-4" d="M-444.989 493.193s.768 6.912 5.375 8.587" transform="translate(444.989 -485.374)"/>
                <path id="Trazado_4659" data-name="Trazado 4659" class="cls-4" d="M-433.675 497.825s-.086 2.454-3.01 4.787" transform="translate(442.192 -486.934)"/>
                <path id="Trazado_4660" data-name="Trazado 4660" class="cls-4" d="M-433.388 487.614s-1.606 2.025-2.443 2.234" transform="translate(441.905 -483.495)"/>
            </g>
        </g>
        <g id="Grupo_6115" data-name="Grupo 6115">
            <g id="Grupo_6112" data-name="Grupo 6112" transform="translate(61.5 20.691)">
                <path id="Trazado_4661" data-name="Trazado 4661" class="cls-5" d="M264.621 430.917c-.85 14.768-9.634 33.131-21.982 35.28-11.5 2-16.69-11.7-32.566-10.855-12.62.672-15.806 9.675-24.7 7.6-11.354-2.652-20.264-20.633-15.469-29.038 5.188-9.1 24.3-3.259 27.681-11.4 3.233-7.787-13.006-16.164-10.856-25.782 2.443-10.928 27.782-19.677 48.036-12.212 18.822 6.936 30.971 27.028 29.856 46.407z" transform="translate(-168.581 -381.729)"/>
                <g id="Grupo_6111" data-name="Grupo 6111" transform="translate(23.948 55.254)">
                    <path id="Línea_291" data-name="Línea 291" class="cls-3" transform="translate(22.529)" d="M0 0v69.972"/>
                    <path id="Trazado_4662" data-name="Trazado 4662" class="cls-3" d="M309.113 543.19s-2.577 11.443-11.244 14.421" transform="translate(-275.34 -540.402)"/>
                    <path id="Trazado_4663" data-name="Trazado 4663" class="cls-3" d="M247.621 558.718s3.377 18.794 18.063 21.4" transform="translate(-243.155 -550.348)"/>
                    <path id="Trazado_4664" data-name="Trazado 4664" class="cls-3" d="M316.463 558.718s-.251 22.888-18.594 25.772" transform="translate(-275.34 -550.348)"/>
                    <path id="Trazado_4665" data-name="Trazado 4665" class="cls-3" d="M351.845 570.106s-.512 6.606-10.211 8.792" transform="translate(-303.372 -557.642)"/>
                    <path id="Trazado_4666" data-name="Trazado 4666" class="cls-3" d="M250.658 598.263s-7.666 2.657-15.46-6.676" transform="translate(-235.198 -571.401)"/>
                </g>
                <path id="Trazado_4667" data-name="Trazado 4667" d="M233.132 449.933c-2.926 3.577-4.285 8.178-6.819 12.043a23.289 23.289 0 0 1-12.228 9.315c-7.995 2.574-16.938.675-24.875 3.42a22.732 22.732 0 0 0-13.733 13.789c2.968 6.31 8.3 12.022 14.316 13.428 8.89 2.077 12.076-6.927 24.7-7.6 15.876-.846 21.064 12.858 32.566 10.855 12.348-2.149 21.132-20.512 21.982-35.28a47.358 47.358 0 0 0-6.319-25.976c-10.39-2.392-22.866-2.214-29.59 6.006z" transform="translate(-172.998 -420.714)" style="opacity:.1;mix-blend-mode:luminosity;isolation:isolate"/>
            </g>
            <g id="Grupo_6114" data-name="Grupo 6114" transform="translate(122.497)">
                <path id="Trazado_4668" data-name="Trazado 4668" d="M405.948 426.183c-3.531 8.956-32.64 12.649-50.991-1.767-12.836-10.083-20.636-29.2-14.641-37.36 5.7-7.75 19.9-.223 26-8.078 7.984-10.278-11.01-29.978-3.534-43.418 4.929-8.865 18.155-13.309 27.515-10.6 19.866 5.744 28.556 45.337 16.408 62.856-3 4.319-6.556 6.285-7.826 12.117-2.679 12.309 9.691 19.6 7.069 26.25z" transform="translate(-338.261 -324.17)" style="fill:#c6c6c6"/>
                <g id="Grupo_6113" data-name="Grupo 6113" transform="translate(12.51 77.225)">
                    <path id="Línea_292" data-name="Línea 292" class="cls-8" transform="translate(26.4 12.672)" d="M0 0v60.49"/>
                    <path id="Trazado_4669" data-name="Trazado 4669" class="cls-8" d="M461.886 587.435a19.529 19.529 0 0 1-15.386 11.908" transform="translate(-420.099 -570.021)"/>
                    <path id="Trazado_4670" data-name="Trazado 4670" class="cls-8" d="M469.824 596.177S467 614.37 446.5 613.874" transform="translate(-420.099 -575.62)"/>
                    <path id="Trazado_4671" data-name="Trazado 4671" class="cls-8" d="M499.839 597.943s-4.349-1.454-4.4-5.754" transform="translate(-451.443 -573.066)"/>
                    <path id="Trazado_4672" data-name="Trazado 4672" class="cls-8" d="M419.283 606.376s-14.777-.83-15.275-28.878" transform="translate(-392.883 -563.656)"/>
                    <path id="Trazado_4673" data-name="Trazado 4673" class="cls-8" d="M373.065 538.992s-.646 18.119 11.959 23.369" transform="translate(-373.06 -538.992)"/>
                </g>
                <path id="Trazado_4674" data-name="Trazado 4674" d="M461.368 389.3c12.119-17.477 3.5-56.917-16.265-62.81a36.192 36.192 0 0 1-2.72 32.889c-2.968 4.6-6.97 8.444-10.032 12.977-5.206 7.708-7.459 17.061-8.351 26.32-1.2 12.444.1 25.663 6.8 36.181 14.11 2.315 27.491-1.3 29.813-7.187 2.622-6.65-9.75-13.942-7.068-26.253 1.268-5.834 4.828-7.8 7.823-12.117z" transform="translate(-392.924 -325.655)" style="fill:#fff;opacity:.22"/>
            </g>
            <path id="Trazado_4675" data-name="Trazado 4675" d="M590.3 720.507c-3.167-.325-6.293-.7-9.359-1.135-19.8-2.834-36.656-8.154-57.96-9.258-35.9-1.86-72.546 8.858-106.3 4.4-10.735-1.419-19.295-5.262-29.691-6.935-20.581-3.312-45-1.777-67.132.143-34.686 3.009-68.749 7.874-101.881 12.787z" transform="translate(-217.982 -568.507)" style="fill:#86888c"/>
        </g>
        <g id="Grupo_6106" data-name="Grupo 6106" transform="translate(252.589 99.061)" style="opacity:.7">
            <path id="Trazado_4646-2" data-name="Trazado 4646" class="cls-5" d="M-524.608 443.913a52.031 52.031 0 0 1-6.673-.848c-3.782-.788-10.851-6.8-.646-16.876 1.9-1.878-.4-7.722-1.447-8.768s-5.353-6.561 3.027-12.037c2.4-1.57 1.736-5.523 2.991-11.513.851-4.056 6.8-4.645 7.981 2.094a8.805 8.805 0 0 0 4.58 6.018s3.186 1.744 1.177 9.551c-1.085 4.218 1.77 5.317 2.906 6.57 1.937 2.134.047 4.325.888 9.654.392 2.486 2.605 2.655 2.878 4.841.785 6.28-2.617 11.049-8.373 11.281s-9.289.033-9.289.033z" transform="translate(537.206 -390.85)"/>
            <g id="Grupo_6101-2" data-name="Grupo 6101" transform="translate(7.844 10.348)">
                <path id="Trazado_4647-2" data-name="Trazado 4647" class="cls-3" d="M-502.494 500.457v.872" transform="translate(509.031 -465.393)"/>
                <path id="Trazado_4648-2" data-name="Trazado 4648" class="cls-3" d="M-503.755 415.825s-.349 11.95 0 13.258c.307 1.149.411 17.781.432 21.806" transform="translate(509.861 -415.825)"/>
                <path id="Trazado_4649-2" data-name="Trazado 4649" class="cls-3" d="M-508.8 415.825s.039 3.053 2.025 3.053" transform="translate(512.724 -415.825)"/>
                <path id="Trazado_4650-2" data-name="Trazado 4650" class="cls-3" d="M-498.913 432.036s-2.094 5.844-4.623 6.542" transform="translate(509.642 -425.32)"/>
                <path id="Trazado_4651-2" data-name="Trazado 4651" class="cls-3" d="M-514.273 450.772s.867 5.41 4.751 7.241" transform="translate(515.93 -436.293)"/>
                <path id="Trazado_4652-2" data-name="Trazado 4652" class="cls-3" d="M-517.052 480.036a3.637 3.637 0 0 1 .959 3.663c-.1.46-2.181-.785-2.181-.785" transform="translate(518.273 -453.432)"/>
                <path id="Trazado_4653-2" data-name="Trazado 4653" class="cls-3" d="M-508.649 492.628s-2.181-2.966-4.361-3.75" transform="translate(515.191 -458.611)"/>
                <path id="Trazado_4654-2" data-name="Trazado 4654" class="cls-3" d="M-495.244 475.4a6.527 6.527 0 0 1-3.795 5.234c-3.473 1.394-3.445 2.7-3.445 3.4" transform="translate(509.026 -450.72)"/>
            </g>
        </g>
        <g id="Grupo_6105" data-name="Grupo 6105" transform="translate(277.853 130.899)">
            <path id="Trazado_4656-2" data-name="Trazado 4656" class="cls-2" d="M-444.447 475.806c2 .6 5.082 2.884 1.883 7.882-1.109 1.733-.213 2.031.193 2.513.43.51 1.676 2.449-2.513 3.931-5.027.258-9.538 0-9.538 0s-6.888-2.677-1.417-8.077c1.675-1.654-.773-5.628.773-7.046s3.295 1.92 3.408-4.213c.057-3.087 4.97-2.747 5.614.3.314 1.495-.509 4.081 1.597 4.71z" transform="translate(457.951 -468.641)"/>
            <g id="Grupo_6102-2" data-name="Grupo 6102" transform="translate(5.291 5.209)">
                <path id="Trazado_4657-2" data-name="Trazado 4657" class="cls-4" d="M-436.842 481.4s0 8.292-.43 10.1a9.8 9.8 0 0 0-.213 3.308" transform="translate(440.58 -481.404)"/>
                <path id="Trazado_4658-2" data-name="Trazado 4658" class="cls-4" d="M-444.989 493.193s.473 4.253 3.308 5.285" transform="translate(444.989 -488.381)"/>
                <path id="Trazado_4659-2" data-name="Trazado 4659" class="cls-4" d="M-434.833 497.825a4.369 4.369 0 0 1-1.852 2.946" transform="translate(440.074 -491.123)"/>
                <path id="Trazado_4660-2" data-name="Trazado 4660" class="cls-4" d="M-434.327 487.614s-.988 1.246-1.5 1.375" transform="translate(439.569 -485.079)"/>
            </g>
        </g>
    </g>
</svg>
