<svg xmlns="http://www.w3.org/2000/svg" width="34" height="34.019">
    <defs>
        <style>
            .cls-1{fill:#019df4}
        </style>
    </defs>
    <g id="Pagar_factura_3Masa" data-name="Pagar factura_3Masa" transform="translate(-.5 .1)">
        <path id="Trazado_4720" data-name="Trazado 4720" class="cls-1" d="M123.507 130.192v-2.564a3.718 3.718 0 0 1 .934.368h.01a.89.89 0 0 0 .4.111.671.671 0 0 0 .673-.673.741.741 0 0 0-.4-.634 4.182 4.182 0 0 0-1.621-.556v-.823a.726.726 0 0 0-1.452 0v.837a2.551 2.551 0 0 0-2.24 2.637 2.423 2.423 0 0 0 2.24 2.482v2.723a4.1 4.1 0 0 1-1.306-.6.816.816 0 0 0-.45-.145.692.692 0 0 0-.7.687.705.705 0 0 0 .329.61 4.964 4.964 0 0 0 2.119.827v.653a.726.726 0 0 0 1.452 0v-.663a3.24 3.24 0 0 0 1.645-.706 2.572 2.572 0 0 0 .866-2.008c.012-.986-.433-2.215-2.499-2.563zm-2.313-1.355a1.179 1.179 0 0 1 .861-1.19v2.279c-.74-.262-.861-.687-.861-1.089zm2.313 2.782c.977.247 1.132.711 1.132 1.185a1.323 1.323 0 0 1-1.132 1.3z" transform="translate(-113.335 -118.762)"/>
        <path id="Trazado_4721" data-name="Trazado 4721" class="cls-1" d="M34.5 9.824v-.015a.32.32 0 0 0 0-.068v-.024l-.015-.087c0-.029-.015-.053-.019-.077s0-.015-.01-.024a.542.542 0 0 0-.024-.063l-.01-.019a.577.577 0 0 0-.039-.077l-.044-.073-.015-.019-.039-.053-.022-.025a.744.744 0 0 0-.058-.063L25.254.185c-.019-.019-.044-.039-.063-.058l-.02-.014-.053-.039L25.1.06l-.074-.044C25 0 24.973-.008 24.949-.023l-.019-.01a.24.24 0 0 0-.063-.019h-.024a.41.41 0 0 0-.082-.019l-.088-.019h-.024a.373.373 0 0 0-.073-.01h-.015c-4.916 0-11.99 0-13.107.01a1.883 1.883 0 0 0-2.032 2.022v1.292A9.1 9.1 0 0 0 2.89 5.44C1.3 6.964.5 9.233.5 12.17s.8 5.2 2.39 6.73a9.091 9.091 0 0 0 6.532 2.216v10.757a2.058 2.058 0 0 0 .542 1.5 2.014 2.014 0 0 0 1.5.547h21.043a1.859 1.859 0 0 0 1.993-2V9.82zM9.446 19.235c-4.756 0-7.064-2.313-7.064-7.069S4.695 5.1 9.446 5.1c2.487 0 4.248.547 5.38 1.679s1.684 2.893 1.684 5.39c0 4.761-2.313 7.069-7.064 7.069zm19.185 8.54H14.744a.968.968 0 1 1 0-1.935h13.882a.968.968 0 0 1 0 1.935zm0-5.661H16.994a.968.968 0 0 1 0-1.935h11.637a.968.968 0 0 1 0 1.935zm0-5.661h-7.863a.968.968 0 1 1 0-1.935h7.863a.968.968 0 0 1 0 1.935zm-.6-7.6a2.135 2.135 0 0 1-1.843-.837 4.2 4.2 0 0 1-.644-2.443V3.21l5.646 5.646h-3.154z"/>
    </g>
</svg>
