<svg xmlns="http://www.w3.org/2000/svg" width="181.626" height="153.284">
    <defs>
        <style>
            .cls-1{fill:#fff}.cls-23{fill:#019df4}.cls-7{fill:#ec624b}.cls-8{fill:#102633}.cls-9{fill:#f4a391}.cls-10{fill:#0b293c}.cls-11{fill:#08202f}.cls-14{fill:#df5843}.cls-15{fill:#f9d4d3}.cls-16{fill:#dc9586}.cls-19{fill:#fdd5c9}.cls-23{mix-blend-mode:multiply;isolation:isolate}
        </style>
    </defs>
    <g id="Grupo_6258" data-name="Grupo 6258" transform="translate(-287 -1323.788)">
        <path id="Path" class="cls-1" d="m18.78 21.262 2.154-3.072 1.71.38a8.393 8.393 0 0 0-2.771 4.07z" transform="translate(324.878 1371.81)"/>
        <path id="Trazado_4722" data-name="Trazado 4722" d="M2096.284 237.061s132.619.646 92.187-19.132 84.42-12.9 57.693-47.908" transform="translate(-1789.263 1239)" style="fill:none;stroke:rgba(11,39,57,.47);stroke-width:2px;stroke-dasharray:10"/>
        <path id="Ubicacion__3Masa" data-name="Ubicacion _3Masa" d="M124.182 0c13.225.042 21.089 8.008 21.055 21.327-.042 12.962-16.194 33.78-20.326 37.937a1.229 1.229 0 0 1-1.748 0C119.05 55.124 102.966 34.289 103 21.2c.017-6.574 1.96-11.987 5.616-15.643C112.246 1.917 117.591 0 124.08 0zm7.635 19.978c0-4.742-2.833-7.567-7.567-7.567s-7.567 2.833-7.567 7.567 2.833 7.567 7.567 7.567 7.567-2.825 7.567-7.567z" transform="translate(184 1414.433)" style="fill-rule:evenodd;fill:#983230"/>
        <path id="Ubicacion__3Masa-2" data-name="Ubicacion _3Masa" d="M116.206 0c8.245.026 13.148 4.993 13.127 13.3-.026 8.081-10.1 21.06-12.672 23.652a.766.766 0 0 1-1.09 0c-2.565-2.585-12.593-15.574-12.571-23.735.011-4.1 1.222-7.473 3.5-9.753C108.764 1.2 112.1 0 116.142 0zm4.76 12.455a4.718 4.718 0 0 0-9.435 0 4.718 4.718 0 0 0 9.435 0z" transform="translate(339.293 1372.257)" style="fill:#019df4;fill-rule:evenodd"/>
        <g id="Group" transform="translate(320.77 1468.974)" style="opacity:.2">
            <g id="Clipped">
                <g id="Grupo_2344" data-name="Grupo 2344">
                    <path id="Path-2" data-name="Path" d="M33.839 79.822c1.033 0 1.033-.971 0-1.012-8.947-.269-21.448-.517-31.9-1.612-2.6-.269-2.583-2.624.124-2.913 42.913-3.451 63.452-3.555 122.774 1.215 2.066.165 1.591 1.88-.393 2.066" transform="translate(-.006 -71.796)" style="fill:#020303"/>
                </g>
            </g>
        </g>
        <path id="Path-3" data-name="Path" class="cls-7" d="m18.307 21.266 1.55 1.756s2.211-1.033 2.5-2.48-.372-1.839-.372-1.839-.124 1.033-2.252-.186-1.591-.827-1.591-.827z" transform="translate(340.036 1339.425)"/>
        <path id="Path-4" data-name="Path" class="cls-8" d="M56.09 67.459s2.356 10.331 1.9 11.84.372 5.29 2.438-2.273 3.2-11.592 1.715-12.4a11.778 11.778 0 0 0-3.492-.868z" transform="translate(380.564 1388.61)"/>
        <path id="Path-5" data-name="Path" class="cls-9" d="M58.019 62.39a48.789 48.789 0 0 0 4.9 4.133c1.343.992-.888 4.133-2.252 3.058-1.88-1.384-7.6-4.98-7.6-4.98z" transform="translate(377.333 1387.149)"/>
        <path id="Path-6" data-name="Path" class="cls-10" d="M69.622 80.991a45.459 45.459 0 0 0 5.269-5.29s-18.8-20.869-27.109-25c-3.017-2.376-9.443 5.848-6.426 8.265 0 0 26.531 19.609 28.266 22.068" transform="translate(364.015 1374.23)"/>
        <path id="Path-7" data-name="Path" class="cls-11" d="M52.6 34.755s1.343 6.2-3.2 16.84-13.352 26.861-13.352 26.861c-4.918 2.459-8.823 2.459-9.918-3.864 0 0 5.434-33.06 7.4-37.709s16.819-5.7 19.072-2.066" transform="translate(348.619 1355.421)"/>
        <path id="Path-8" data-name="Path" class="cls-10" d="M47.328 30.815s4.67 4.257 7.108 15.6 4.628 29.733 4.628 29.733c1.054 4.318-9.3 6.839-10.331 2.521 0 0-14.608-30.105-15.724-35.126S43.4 29.307 47.328 30.815" transform="translate(355.873 1353.307)"/>
        <g id="Group-2" data-name="Group" transform="translate(395.907 1383.941)" style="opacity:.49">
            <g id="Clipped-2" data-name="Clipped">
                <g id="Grupo_2346" data-name="Grupo 2346">
                    <g id="Grupo_2345" data-name="Grupo 2345">
                        <path id="Path-9" data-name="Path" d="M52.136 71.528c-.847-6.364-2.294-16.323-3.823-23.493-2.438-11.364-7.108-15.621-7.108-15.621a6.509 6.509 0 0 0-4.835 1.033c2.81-2.066 5.765-3.285 7.377-2.624 0 0 4.67 4.256 7.108 15.6 1.839 8.658 3.554 21.344 4.277 26.861 9.092 6.405 24.32 23.287 24.32 23.287L77.9 98.266c-2.066-2.335-14.051-15.311-22.378-21.737-2.356-1.591-3.451-2.955-3.389-5.062" transform="translate(-36.37 -30.643)" style="fill:#00425e"/>
                    </g>
                </g>
            </g>
        </g>
        <path id="Path-10" data-name="Path" class="cls-1" d="m58.029 34.12 1.777 5.248S39.453 46.848 28.44 37.8l.909-2.934s22.729 4.628 28.68-.744" transform="translate(351.082 1357.006)"/>
        <path id="Path-11" data-name="Path" class="cls-7" d="M38.006 11.493s4.649-2.913 10.641 2.521 14.464 26.551 9.939 46.821c0 0-22.212 4.711-28.928.248 0 0-2.975-1.942-.1-13 2.066-7.624-2.211-25.394-.351-28.928s8.8-7.666 8.8-7.666" transform="translate(350.938 1332.048)"/>
        <path id="Path-12" data-name="Path" class="cls-8" d="M36.275 71.21s-8.968 5.455-10.621 5.517-4.876 2.066 2.934 1.612 11.964-.6 12.191-2.232a11.819 11.819 0 0 0-.269-3.6z" transform="translate(345.892 1396.554)"/>
        <path id="Path-13" data-name="Path" class="cls-9" d="M34.03 70.337a48.185 48.185 0 0 0-.847 6.343c-.124 1.694-3.905 1.426-3.8-.248.165-2.356.145-9.133.145-9.133z" transform="translate(352.083 1392.385)"/>
        <path id="Path-14" data-name="Path" class="cls-11" d="M31.048 90.721a47.523 47.523 0 0 0 7.459-.124s.971-28.122-2.066-36.883c-.517-3.8-10.848-2.376-10.331 1.426 0 0 5.455 32.585 4.98 35.581" transform="translate(348.577 1375.514)"/>
        <path id="Path-15" data-name="Path" class="cls-14" d="M20.372 21.118s1.694-2.81 2.769-2.686 12.4 2.975 14.96 5.062 6.509 6.1 1.839 9.773-20.1-7.459-20.415-9.525a2.438 2.438 0 0 1 .847-2.645" transform="translate(341.463 1340.275)"/>
        <path id="Path-16" data-name="Path" class="cls-1" d="m18.78 22.2 2.81-4.009 2.232.5A10.951 10.951 0 0 0 20.206 24z" transform="translate(340.782 1340.021)"/>
        <path id="Path-17" data-name="Path" class="cls-14" d="M26.552 33.487c5.538-11.261-1.116-16.943 4.133-20.539S40 11.708 41.739 17.08s-1.9 25.808-12.645 24.22c-2.376-3.017-3.533-5.971-2.624-7.852" transform="translate(348.651 1332.597)"/>
        <path id="Path-18" data-name="Path" class="cls-14" d="M36.187 55.648c0-6.2 12.15-10.435 15.766-15.6a40.83 40.83 0 0 0 4.628-11.116c-2.293-7.067-5.434-12.522-8.081-14.919-5.909-5.434-10.517-2.521-10.517-2.521s-6.9 3.947-8.761 7.6 2.356 21.365.351 28.928c-2.872 11.054.1 13 .1 13 2.459 1.653 7.067 2.066 11.881 1.88-2.4-1.26-5.414-3.6-5.372-7.315" transform="translate(350.959 1332.048)"/>
        <path id="Path-19" data-name="Path" class="cls-15" d="m30.87 10.827.785 6.715s3.471 2.583 7.686-2.066l-2.066-8z" transform="translate(353.673 1328.601)"/>
        <path id="Path-20" data-name="Path" class="cls-9" d="m30.87 10.827.785 6.715s3.471 2.583 7.686-2.066l-2.066-8z" transform="translate(353.673 1328.601)"/>
        <path id="Path-21" data-name="Path" class="cls-16" d="M33.308 13.389a13.575 13.575 0 0 1 4.732-2.769l-.847-3.14-6.323 3.347.785 6.715a4.257 4.257 0 0 0 1.57.62 5 5 0 0 1 0-4.773" transform="translate(353.673 1328.601)"/>
        <path id="Path-22" data-name="Path" d="M42.437 11.757s2.624-3.347 2.232-5.476S42.6 4.732 42.6 4.732s0-1.715-2.934-2.831a10.166 10.166 0 0 0-7.769.971c-1.922.847-1.012 1.488-1.012 1.488s-2.5-.579-1.426.372A2.665 2.665 0 0 1 26.61 5s-.537 3.2 4.133 3.037a5.476 5.476 0 0 1 5.847 3.12l3.244 3.143z" transform="translate(349.11 1322.258)" style="fill:#0b6fa8"/>
        <path id="Path-23" data-name="Path" class="cls-15" d="M30.021 16.533s7.315-.847 8.43-2.583S39.526 12.5 40 12.3s2.955-3.2 1.364-4.3-2.418.971-2.418.971l-.186 1.136h-.97s-1.674-1.86-1.736-2.686a12.4 12.4 0 0 1 .475-2.872 9.711 9.711 0 0 0-4.773-.6 13.472 13.472 0 0 0-3 .806 18.328 18.328 0 0 1 .289 6.777c-.661 2.418-1.1 4.711 1.033 4.98" transform="translate(351.154 1324.755)"/>
        <path id="Path-24" data-name="Path" class="cls-9" d="M30.021 16.533s7.315-.847 8.43-2.583S39.526 12.5 40 12.3s2.955-3.2 1.364-4.3-2.418.971-2.418.971l-.186 1.136h-.97s-1.674-1.86-1.736-2.686a12.4 12.4 0 0 1 .475-2.872 9.711 9.711 0 0 0-4.773-.6 13.472 13.472 0 0 0-3 .806 18.328 18.328 0 0 1 .289 6.777c-.661 2.418-1.1 4.711 1.033 4.98" transform="translate(351.154 1324.755)"/>
        <path id="Path-25" data-name="Path" d="M34.38 8.388a6.53 6.53 0 0 0 .93-1.488 13.2 13.2 0 0 0-.93 1.488" transform="translate(357.416 1327.983)" style="fill:#e9b897"/>
        <path id="Path-26" data-name="Path" class="cls-16" d="M32.036 14.974c-2.066-.227-1.632-2.955-.888-5.806a17.046 17.046 0 0 0 .207-5.248 12.088 12.088 0 0 0-2.624.723 18.328 18.328 0 0 1 .289 6.777c-.661 2.418-1.1 4.711 1.033 4.98 0 0 7.315-.847 8.43-2.583.248-.393.455-.661.6-.888A29.2 29.2 0 0 1 32.036 15" transform="translate(351.122 1324.805)"/>
        <path id="Path-27" data-name="Path" class="cls-7" d="M33.677 36.189c4.256-12.583-3.513-17.625 1.57-22.13s9.629-2.6 12.191 2.831 1.55 27.337-9.918 27.151c-2.913-2.831-4.546-5.765-3.843-7.852" transform="translate(356.425 1332.932)"/>
        <g id="Grupo_6092" data-name="Grupo 6092" transform="rotate(10.02 -32271.184 4946.4)">
            <g id="Grupo_6091" data-name="Grupo 6091" transform="translate(-794.07 -4281.217)">
                <g id="Grupo_6090" data-name="Grupo 6090">
                    <g id="Grupo_6089" data-name="Grupo 6089">
                        <path id="Rectángulo_3212" data-name="Rectángulo 3212" class="cls-19" transform="rotate(-8.88 44.809 -38.21)" d="M0 0h41.959v41.959H0z"/>
                        <path id="Trazado_4557" data-name="Trazado 4557" class="cls-19" d="m-794.07-4269.858 6.422-4.917 41.462-6.441 6.441 41.462-6.422 4.917z" transform="translate(794.07 4281.217)"/>
                        <path id="Rectángulo_3213" data-name="Rectángulo 3213" transform="rotate(-8.88 73.315 5.713)" style="fill:#e5bbaf" d="M0 0h41.959v41.959H0z"/>
                        <path id="Trazado_4558" data-name="Trazado 4558" d="m-749.6-4272.588-5.818.9c10.533 32.215-13.958 33.774-31.663 31.165l2.46 15.835 41.462-6.441z" transform="translate(791.065 4277.505)" style="mix-blend-mode:multiply;isolation:isolate;opacity:.16;fill:#242c37"/>
                        <path id="Rectángulo_3214" data-name="Rectángulo 3214" transform="rotate(-8.88 63.817 -118.397)" style="opacity:.996;mix-blend-mode:multiply;isolation:isolate;fill:#019df4" d="M0 0h3.506v7.489H0z"/>
                        <path id="Rectángulo_3215" data-name="Rectángulo 3215" class="cls-23" transform="rotate(-8.88 286.325 -135.416)" d="M0 0h3.506v7.489H0z"/>
                    </g>
                    <path id="Trazado_4559" data-name="Trazado 4559" d="m-794.07-4269.858 41.462-6.441 6.422-4.917-41.462 6.441z" transform="translate(794.07 4281.217)" style="opacity:.2;fill:#fff"/>
                    <path id="Trazado_4560" data-name="Trazado 4560" d="m-714.893-4281.217-6.422 4.917 6.441 41.461 6.422-4.917z" transform="translate(762.777 4281.217)" style="fill:#040505;opacity:.305;mix-blend-mode:multiply;isolation:isolate"/>
                </g>
                <path id="Trazado_4561" data-name="Trazado 4561" class="cls-23" d="m-757.268-4268.71-3.465.538 2.035-1.724 3.464-.538z" transform="translate(779.731 4276.579)"/>
                <path id="Línea_290" data-name="Línea 290" transform="translate(16.787 1.112)" style="opacity:.1;mix-blend-mode:multiply;isolation:isolate;fill:#242c37" d="M20.242 0 0 3.145"/>
            </g>
            <path id="Trazado_4562" data-name="Trazado 4562" d="m-787.823-4274.641-6.247 4.783 41.462-6.441 6.422-4.917-41.244 6.408a.861.861 0 0 0-.393.167z" style="opacity:.19;fill:#242c37"/>
        </g>
        <path id="Path-28" data-name="Path" class="cls-9" d="M24.214 21.426a1.818 1.818 0 0 1 2.232-.682c4.133 1.9 14.753 5.1 18.2 4.918 2.645-.124 3.43.5 3.657.971a.723.723 0 0 1 0 .475l.417 4.592a1.715 1.715 0 0 1-1.632 1.9c-4.938.145-14.836-4.938-22.46-9.525a1.777 1.777 0 0 1-.413-2.645" transform="translate(346.133 1342.591)"/>
        <path id="Path-29" data-name="Path" class="cls-9" d="M22.371 17.158c1.508.1 3.037 3.513 3.823 3.43s0-1.054-.1-2.872 1.322.62 2.748 3.079a16.861 16.861 0 0 1 1.3 3.657.517.517 0 0 1 0 .517 14.464 14.464 0 0 1-1.591 2.438.413.413 0 0 1-.517 0 60.023 60.023 0 0 1-7.667-5.207c-1.054-1.756.517-5.228 2.066-5.1" transform="translate(342.108 1338.842)"/>
        <g id="Grupo_6257" data-name="Grupo 6257" transform="translate(372.741 1363.353)">
            <path id="Path-30" data-name="Path" class="cls-7" d="M25.8 23.967s1.281-3.223 2.418-3.285 13.389.909 16.53 2.624 7.852 5.207 3.637 9.877-22.293-4.34-22.955-6.323a2.562 2.562 0 0 1 .413-2.893" transform="translate(-25.158 -20.679)"/>
        </g>
        <path id="Path-31" data-name="Path" class="cls-1" d="m24.4 25.29 2.232-4.67 2.4.124a11.426 11.426 0 0 0-2.831 6.2z" transform="translate(346.774 1342.612)"/>
        <ellipse id="Elipse_935" data-name="Elipse 935" cx="9" cy="1" rx="9" ry="1" transform="translate(299 1475)" style="fill:#983230"/>
    </g>
</svg>
