<svg xmlns="http://www.w3.org/2000/svg" width="34" height="38.243">
    <path data-name="Trazado 4714" d="M55.9 19.149c-3.025 0-5.38-.794-7.012-2.366-1.692-1.632-2.551-4.053-2.551-7.2s.86-5.571 2.551-7.208C50.52.8 52.875 0 55.9 0s5.386.8 7.023 2.377c1.7 1.637 2.562 4.064 2.562 7.208s-.865 5.565-2.568 7.2c-1.631 1.57-3.992 2.364-7.017 2.364zm15.912 19.094H39.988a1.091 1.091 0 0 1-1.088-1.088v-3.182a10.576 10.576 0 0 1 2.742-7.513c1.958-2.04 4.863-3.123 8.41-3.123h11.669c3.547 0 6.463 1.077 8.421 3.117a10.562 10.562 0 0 1 2.758 7.519v3.182a1.091 1.091 0 0 1-1.088 1.088z" transform="translate(-38.9)" style="fill:#019df4"/>
</svg>
