<svg xmlns="http://www.w3.org/2000/svg" width="24" height="25.411">
    <defs>
        <style>
            .cls-1{fill:#019df4}
        </style>
    </defs>
    <g id="Grupo_6231" data-name="Grupo 6231" transform="translate(-81.004 -2179)">
        <g id="Grupo_6215" data-name="Grupo 6215" transform="translate(87.671 2191.074)">
            <g id="Grupo_6205" data-name="Grupo 6205">
                <path id="Trazado_4716" data-name="Trazado 4716" class="cls-1" d="M837-5481.49a.67.67 0 0 0-.7.689v.038a.662.662 0 0 0 .714.677.669.669 0 0 0 .7-.718.674.674 0 0 0-.714-.686z" transform="translate(-830.258 5490.61)"/>
                <path id="Trazado_4718" data-name="Trazado 4718" class="cls-1" d="M742.255-5662.378s-.63-.052-.63-.05l-.875-.047c-4.257 0-6.744 2.125-6.744 6.665s2.487 6.669 6.741 6.672l1.23-.071c.1-.006.181-.02.181-.02l.1-.014c3.335-.465 5.239-2.595 5.239-6.567s-1.91-6.111-5.245-6.568m-1.505 11.868c-3.651 0-5.357-1.681-5.357-5.3s1.709-5.3 5.357-5.3 5.367 1.681 5.367 5.3-1.707 5.3-5.364 5.3z" transform="translate(-734.006 5662.475)"/>
            </g>
            <path id="Trazado_4719" data-name="Trazado 4719" class="cls-1" d="M.694 0a.693.693 0 0 1 .694.693V4.9A.694.694 0 0 1 0 4.9V.693A.693.693 0 0 1 .694 0z" transform="translate(6.03 2.877)"/>
        </g>
        <path id="Sustracción_3" data-name="Sustracción 3" class="cls-1" d="M6.911 19.949.373 13.454a1.89 1.89 0 0 1 .356-2.619L10.894.724A2.588 2.588 0 0 1 12.189 0h10.175A1.646 1.646 0 0 1 24 1.626h-.006v10.09a2.444 2.444 0 0 1-.717 1.337l-3.73 3.687a5.776 5.776 0 0 0-5.752-3.693h-.125c-.173 0-.349 0-.493.007a7.444 7.444 0 0 0-3.617 1.028c-1.762 1.1-2.655 2.95-2.655 5.5 0 .123 0 .246.006.365zM18.006 3.663a1.911 1.911 0 0 0-1.353.653 1.955 1.955 0 0 0-.666 1.327v.026a1.983 1.983 0 0 0 .686 1.358 2.009 2.009 0 0 0 1.383.663 1.972 1.972 0 0 0 1.363-.663 1.866 1.866 0 0 0 .656-1.316 2 2 0 0 0-.687-1.374 2.028 2.028 0 0 0-1.383-.674z" transform="translate(81.004 2179)"/>
    </g>
</svg>
