<svg xmlns="http://www.w3.org/2000/svg" width="34" height="38.848">
    <path data-name="Escudo ok seguridad ok _3Masa" d="M78.373 6.2c0 .531.033 13.058-.885 18.475C76.261 31.8 62.463 38.46 61.877 38.736a1.186 1.186 0 0 1-1.006 0c-.586-.282-14.368-6.943-15.6-14.069-.94-5.418-.907-17.944-.9-18.475a1.2 1.2 0 0 1 .453-.934 1.174 1.174 0 0 1 1.006-.216c3.184.5 4.865-.63 6.993-2.056C54.922 1.592 57.294 0 61.368 0h.011a14 14 0 0 1 8.536 3c2.128 1.426 3.814 2.554 7.037 2.045a1.224 1.224 0 0 1 1.4 1.006l.017.149zM58.438 23.141l-3.958-4a1.168 1.168 0 0 0-1.647-.017l-.017.017a1.2 1.2 0 0 0 0 1.681l4.793 4.848a1.169 1.169 0 0 0 1.653.006l.006-.006 10.669-10.794a1.2 1.2 0 0 0 0-1.681 1.168 1.168 0 0 0-1.647-.017l-.017.017c-.006-.006-9.835 9.945-9.835 9.945z" transform="translate(-44.373)" style="fill:#019df4;fill-rule:evenodd"/>
</svg>
