<svg xmlns="http://www.w3.org/2000/svg" width="170" height="162.68" viewBox="0 0 170 162.68">
    <defs>
        <style>
            .cls-3{fill:#ec624b}.cls-5{fill:#b7b7b7}.cls-6{fill:#c18773}.cls-7{fill:#0b2739}.cls-8{fill:#983230}.cls-11{fill:#ef7764}.cls-12{fill:#d3d4d3}.cls-13{fill:#a67879}.cls-15{fill:#855e5d}.cls-16{fill:#019df4}.cls-17{fill:#865e5d}
        </style>
    </defs>
    <g id="Grupo_6087" data-name="Grupo 6087" transform="translate(-313.93 -1062.48)">
        <path id="Escudo_ok_seguridad_ok__1Light" data-name="Escudo ok seguridad ok _1Light" d="M139.959 74.025c2.345-13.716 2.629-44.047 2.646-53.308-10.836.938-17.267-3.4-23.5-7.553C113.062 9.111 106.8 4.924 96 4.924h-.033c-10.8 0-17.066 4.187-23.129 8.24-6.28 4.17-12.846 8.441-23.48 7.587.033 9.312.335 39.575 2.7 53.258 2.964 17.25 37.465 35.254 43.929 38.5 6.465-3.232 41-21.253 43.98-38.486zm7.52-56.072c0 1.641.1 40.262-2.73 56.909-3.685 21.42-45.922 41.752-47.714 42.606a2.378 2.378 0 0 1-2.077 0c-1.809-.854-44-21.186-47.681-42.606-2.9-16.647-2.78-55.268-2.78-56.909a2.448 2.448 0 0 1 2.462-2.428 2.081 2.081 0 0 1 .553.067c10.434 1.641 16.095-2.144 22.66-6.532C76.5 4.807 83.687 0 95.963 0H96c12.276.017 19.461 4.823 25.808 9.061 6.548 4.371 12.209 8.173 22.676 6.532a2.722 2.722 0 0 1 2.043.536 2.559 2.559 0 0 1 .955 1.826zM118.22 40.429a2.411 2.411 0 0 1 3.417-.017l.017.017a2.456 2.456 0 0 1 0 3.467L88.577 77.274a2.411 2.411 0 0 1-3.417.017l-.017-.017-14.855-14.989a2.456 2.456 0 0 1 0-3.467A2.411 2.411 0 0 1 73.7 58.8l.017.017 13.13 13.248z" transform="translate(336.451 1062.48)" style="fill:rgba(236,98,75,.74);fill-rule:evenodd"/>
        <g id="Grupo_6086" data-name="Grupo 6086" transform="translate(313.93 1074.147)">
            <g id="pEeZ71">
                <g id="Grupo_6085" data-name="Grupo 6085">
                    <g id="Elipse_918" data-name="Elipse 918" transform="translate(1 133.927)" style="fill:rgba(11,39,57,.53);stroke:#b6b7b7;opacity:.331">
                        <ellipse cx="47.966" cy="8.543" rx="47.966" ry="8.543" style="stroke:none"/>
                        <ellipse cx="47.966" cy="8.543" rx="47.466" ry="8.043" style="fill:none"/>
                    </g>
                    <path id="Trazado_4505" data-name="Trazado 4505" class="cls-3" d="M459.785-4283c1.888 1.857 3.612 3.8 4.091 6.555.844 4.854-1.109 8.854-5.782 11.713a4.2 4.2 0 0 1-4.758 1.166c-1.33-1.934-1.884-4.206-2.687-6.361a67.619 67.619 0 0 1-3.109-9.018c-.171-.161-.293.185-.144.035.066-.067.114-.053.154.037a14.265 14.265 0 0 1 .92 5.079c.191 3.406.884 6.775.751 10.207.224 1.61.984 3.246-.248 4.78a1.911 1.911 0 0 1-1.064.243c-5.639-.014-11.279.1-16.915-.055-.95-.271-1.173-1.134-1.5-1.894-.433-1.013-.8-2.052-1.172-3.089-1.058-3.145-2.425-6.177-3.465-9.333a5.329 5.329 0 0 1 .015-3.7c.628-1.678 1.169-3.4 1.9-5.025 2.022-4.469 1.359-8.569-1.406-12.472a7.6 7.6 0 0 1 .963 7.228c-1.164 3.614-2.607 7.129-3.912 10.694q-2.309 6.308-4.7 12.587c-.429 1.179-.846 2.361-1.343 3.513-.27.625-.551 1.255-1.29 1.483-5.685.166-11.37.052-17.054.06a1.823 1.823 0 0 1-.914-.209c-1.315-1.513-.521-3.161-.306-4.771a109.994 109.994 0 0 1 1.178-13.57c-.8 2.918-2.623 7.137-4.195 11.445a5.752 5.752 0 0 1-1.066 2.086 4.161 4.161 0 0 1-4.786-1.145 10.782 10.782 0 0 1-4.8-14.532 21.609 21.609 0 0 1 3.107-3.74c.026-.73.588-1.082 1.072-1.472 3.674-2.962 7.332-5.947 11.067-8.833a31.676 31.676 0 0 0 3.211-2.761c2.243-1.82 4.488-3.638 6.7-5.494a8.032 8.032 0 0 1 3.029-1.93 8.557 8.557 0 0 1 6.747.1 9.312 9.312 0 0 1 3.919 3.551c.9 1.427 1.153 1.437 2.025.014a9.131 9.131 0 0 1 6.021-4.228c1.652-.388 3.109.236 4.631.587 2.584.973 4.323 3.118 6.467 4.7 1.139.84 2.186 1.808 3.294 2.694 2.453 2.368 5.257 4.3 7.9 6.439 2.123 1.715 4.274 3.4 6.346 5.175.471.399 1.051.739 1.108 1.461z" transform="translate(-374.533 4364.743)"/>
                    <path id="Trazado_4506" data-name="Trazado 4506" d="M374.62-4425.893c-7.255-8.329-4.7-21.75 5.225-27.012 1.378-.731 1.691-1.171 1-2.7-3.5-7.774 1.963-16.926 10.44-17.777 1.1-.111 2.386.32 3.214-.207s.351-1.941.685-2.943a10.808 10.808 0 0 1 3.752-5.336 2.656 2.656 0 0 0 1.04-1.662 15.546 15.546 0 0 1 15.337-11.925 15.605 15.605 0 0 1 15.022 11.925 2.466 2.466 0 0 0 .908 1.573 9.892 9.892 0 0 1 4.206 7.6c.04.742.3.985 1.074.938a12.587 12.587 0 0 1 11.849 5.806 11.894 11.894 0 0 1 .958 12.292c-.622 1.339-.267 1.69.858 2.268 10.135 5.206 12.849 18.717 5.5 27.161-.924.044-1.395-.671-1.917-1.222-2.455-2.591-4.85-5.238-7.243-7.885-3.168-3.5-6.5-6.861-9.542-10.476-4.082-4.654-8.537-8.974-12.376-13.843a7.8 7.8 0 0 0-4.076-2.539c-1.2-.11-2.484-.05-2.9-1.612a2.454 2.454 0 0 1 .98-3.045c3.1-1.9 4.266-4.69 4.158-8.265-.127-4.212-.027-4.216-4.317-4.215-2.1 0-4.21-.025-6.314.01a4.472 4.472 0 0 0-4.569 4.291 8.049 8.049 0 0 0 3.79 7.953 2.834 2.834 0 0 1 1.3 1.329 4.351 4.351 0 0 1-.468 2.9c-.673.7-1.592.543-2.421.7a6.667 6.667 0 0 0-4.069 2.5c-2.618 3.5-5.808 6.493-8.676 9.771-1.206 1.378-2.419 2.766-3.716 4.069-3.05 3.609-6.372 6.973-9.54 10.475-2.394 2.646-4.788 5.293-7.243 7.883-.515.55-.985 1.264-1.909 1.22z" transform="translate(-366.672 4495.458)" style="fill:#0b2738"/>
                    <path id="Trazado_4507" data-name="Trazado 4507" class="cls-5" d="M460.484-4173.095c.862-1.588 1.066-3.458 2.119-4.966a2.206 2.206 0 0 1 1.729-.6q3.937-.025 7.874 0a2.206 2.206 0 0 1 1.729.6c1.053 1.508 1.256 3.377 2.119 4.965.883.027 1.769-.061 2.65.051 1.363 1.11 1.387 2.864 2.066 4.3a13.236 13.236 0 0 1 1.389 4.275 1.266 1.266 0 0 1-1.115.973c-1.367.238-1.591.952-.984 2.087.52 1.427 1.9 1.822 3.027 2.532a36.634 36.634 0 0 1 2.042 3.844c1.074 1.995 1.855 4.127 2.9 6.137a2.755 2.755 0 0 1-.174 3.115c-2.5 3.452-5.058 6.862-7.6 10.286a1.679 1.679 0 0 1-.852.673.412.412 0 0 1-.417-.16H457.55a.457.457 0 0 1-.415.158c-.6-.193-.886-.716-1.229-1.177-2.262-3.039-4.473-6.118-6.78-9.121a3.544 3.544 0 0 1-.359-4.35c1.01-1.787 1.642-3.762 2.637-5.56a39.494 39.494 0 0 1 2.035-3.839c1.121-.714 2.512-1.1 3.036-2.536.584-1.105.425-1.84-.949-2.082a1.307 1.307 0 0 1-1.136-.939 12.427 12.427 0 0 1 1.369-4.3c.688-1.437.707-3.192 2.059-4.312a24.776 24.776 0 0 1 2.666-.054z" transform="translate(-419.785 4278.972)"/>
                    <path id="Trazado_4508" data-name="Trazado 4508" class="cls-5" d="M582.9-4173.712c.6-1.639-.191-3.293.058-4.936a4.113 4.113 0 0 1 4.607-.044 11.689 11.689 0 0 0 4.687-.9c2.568.031 5.14-.148 7.535 1.188a10.352 10.352 0 0 1 5.8 9.439c.069 9.167.023 18.336.021 27.5 0 3.792-2.023 5.834-5.854 5.859-4.057.026-8.117.072-12.172-.026-1.558-.037-6.672.023-8.789.026-12.783-.141.608-5.936 1.627-9.663a2.525 2.525 0 0 1 .345-.507c1.736-2.068 1.762-2.3.544-4.63a3.546 3.546 0 0 1-.286-.72 81.83 81.83 0 0 1-.082-8.472 2.335 2.335 0 0 1 1.158-2.258c.653-.338.661-1.016.77-1.627a5.65 5.65 0 0 0 .379-1.483c-.066-1.582-.134-1.665-1.693-1.41a2.216 2.216 0 0 1-1.936-.223 11.627 11.627 0 0 1-.827-6.083 1.09 1.09 0 0 1 1.291-1.056c.938.052 1.88-.001 2.817.026z" transform="translate(-508.693 4279.601)"/>
                    <path id="Trazado_4509" data-name="Trazado 4509" class="cls-5" d="M381.962-4178.641c.263 1.654-.558 3.32.062 4.969.809-.025 1.618-.016 2.427-.01 1.559.01 1.956.293 1.892 1.828-.075 1.8.081 3.675-.913 5.339a2.146 2.146 0 0 1-2.143.192c-1.314-.439-1.556.153-1.6 1.259a4.9 4.9 0 0 0 .363 1.661 2.107 2.107 0 0 0 1.046 1.845 2.152 2.152 0 0 1 .956 2.072 83.8 83.8 0 0 1-.066 8.532c-.079.194.091-.016-.041.146-1.726 2.123-1.181 4 .633 5.758 1.064 3.757 27.3 9.384-6.73 9.749-4.3.027-8.61-.024-12.914.02-3.869.041-6.518-2.042-6.437-6.231.174-9.016.05-18.038.055-27.058 0-6.346 4.809-11 11.355-11.008.817 0 1.634-.008 2.451-.011a12.367 12.367 0 0 0 4.846.9 4.345 4.345 0 0 1 4.758.048z" transform="translate(-358.49 4279.601)"/>
                    <path id="Trazado_4510" data-name="Trazado 4510" class="cls-6" d="M380.058-4329.7q8.941-9.724 17.884-19.447a4.278 4.278 0 0 1 .483-.4c1.673-.109 2.646 1.008 3.647 2.079a1.194 1.194 0 0 1 .059.456c-.748 1.961-2.261 3.4-3.473 5.049-2 2.71-3.909 5.488-5.929 7.833 2.776-1.465 5.7-3.218 8.743-4.775 3.381-1.7 6.721-3.48 10-5.375a1.746 1.746 0 0 0 .876-.865c.686-1.268.659-2.714 1.024-4.059.314-1.157.676-2.319 2.051-2.681a.667.667 0 0 1 .315.321c.042.067.118-.024.143-.167a5.379 5.379 0 0 1 .967-2.14c.3-.438.565-1.1 1.344-.706.925 1.271.525 2.731.484 4.094a50.742 50.742 0 0 1-.486 5.584c-.3 1.293-1.45 1.812-2.35 2.556a26.962 26.962 0 0 0-3.745 2.829 14.2 14.2 0 0 1-3.171 1.966c-2.967 1.791-5.378 4.29-8.118 6.369-.412.313-.836.611-1.255.915-2.556 1.653-4.9 3.6-7.4 5.338-2.85 1.983-5.856 3.742-8.57 5.921a2.42 2.42 0 0 1-1.327.451c-4.231-2.965-4.954-6.631-2.196-11.146z" transform="translate(-372.11 4399.261)"/>
                    <path id="Trazado_4511" data-name="Trazado 4511" class="cls-6" d="m543.181-4340.245 15.147 16.36q1.611 1.741 3.22 3.484c2.759 4.511 2.038 8.173-2.2 11.148a3.715 3.715 0 0 1-1.96-.922q-7.739-5.287-15.327-10.789c-2.116-1.7-4.239-3.4-6.347-5.109a13.531 13.531 0 0 0-3.072-2.126 43.134 43.134 0 0 1-6.111-4.124 2.239 2.239 0 0 1-.926-1.049 20.041 20.041 0 0 1 .148-7.1 2.47 2.47 0 0 1 3.852.727 10.409 10.409 0 0 1 1.249 3.208 5.51 5.51 0 0 0 3.407 3.851c2.005.927 3.864 2.146 5.853 3.112 3.037 1.563 6.016 3.232 8.716 4.727-2.873-3.6-5.741-7.63-8.716-11.578a3.48 3.48 0 0 1-.638-1.263 1.2 1.2 0 0 1 .044-.463c1-1.08 1.98-2.202 3.661-2.094z" transform="translate(-472.528 4389.966)"/>
                    <path id="Trazado_4512" data-name="Trazado 4512" class="cls-7" d="M559.315-4113.4q-1.152 6.486-2.3 12.974l-.417.783a6.591 6.591 0 0 1-3.041-.5c-1.848-.72-3.654-1.542-5.508-2.247-.626-.237-1.3-.471-1.466-1.264 2.57-3.521 5.082-7.084 7.741-10.535a2.65 2.65 0 0 0 .318-3.346c-1.053-1.929-1.9-3.974-2.827-5.969.814-1.542 2.348-2.209 3.761-2.972.722-.389 1.354-.112 1.3.894a1.3 1.3 0 0 0 .287 1.027c.283 2.419.752 4.809 1.2 7.2a4.436 4.436 0 0 1-.355 3.3c-1.545 3.744-2.9 7.567-4.045 10.264 1.141-2.586 2.406-6.336 3.943-9.976a5.158 5.158 0 0 0 .406-3.928c-.524-2.329-.758-4.714-1.274-7.045-.444-2.752-.419-2.821 1.107-3.536-2.514.315-5.279.849-8.1.975-1.609-.124-2.82-.749-3.135-2.5l.165-.216c2.962-.893 6.051-1.15 9.063-1.8 1.431-.31 2.886-.511 4.329-.77.474-.084.929-.2 1.338.164a.7.7 0 0 1 .025.775c-.106 1.095.479 2.538-1.531 2.6-.5.017-.326.812-.332 1.252-.046 3.006-.059 6.012-.083 9.018a5.171 5.171 0 0 1-.569 5.378z" transform="translate(-487.025 4247.533)"/>
                    <path id="Trazado_4513" data-name="Trazado 4513" class="cls-7" d="m433.1-4100.415-2.306-12.968a5.17 5.17 0 0 1-.562-5.37c-.024-3.006-.037-6.011-.083-9.017-.007-.441.165-1.236-.332-1.252-2.01-.065-1.426-1.508-1.532-2.6a.7.7 0 0 1 .022-.773c1.213-.623 2.341.1 3.5.25 3.323.429 6.573 1.292 9.9 1.717a2.91 2.91 0 0 1 1.336.438l.165.216c-.315 1.749-1.525 2.374-3.135 2.5-2.92-.137-5.79-.7-8.687-1.036 1.678.307 2.018.719 1.86 2.3a3.343 3.343 0 0 1-.121 1.24c-.635 2.811-1.016 5.666-1.518 8.5a2.57 2.57 0 0 0 .19 1.527c1.553 3.687 2.883 7.463 4.46 11.14a3.453 3.453 0 0 1 .243.779 74.881 74.881 0 0 0-3.313-8.329 13.425 13.425 0 0 1-.8-9.889c.291-1.169.427-2.371.613-3.562.65-2.459.8-2.513 3.067-.959.847.581 1.819 1.04 2.235 2.087-.932 2-1.774 4.04-2.828 5.969a2.651 2.651 0 0 0 .318 3.346c2.659 3.451 5.171 7.015 7.741 10.535a1.142 1.142 0 0 1-.76.929c-2.873 1.064-5.531 2.725-8.642 3.135a1.27 1.27 0 0 1-.615-.06z" transform="translate(-406.11 4247.52)"/>
                    <path id="Trazado_4514" data-name="Trazado 4514" class="cls-8" d="m539.611-4041.01 10.015 4.01a100.505 100.505 0 0 1-11.01 1.808 1.824 1.824 0 0 1-2.03-1.187 2.036 2.036 0 0 1 .511-2.449c.728-.684 1.443-1.38 2.164-2.072z" transform="translate(-480.058 4184.898)"/>
                    <path id="Trazado_4515" data-name="Trazado 4515" class="cls-8" d="m445.025-4037.006 10.017-4 .349.106c.684.654 1.352 1.326 2.055 1.958a2.1 2.1 0 0 1 .62 2.565 1.9 1.9 0 0 1-2.189 1.185c-3.62-.598-7.296-.85-10.852-1.814z" transform="translate(-417.626 4184.897)"/>
                    <path id="Trazado_4516" data-name="Trazado 4516" d="M578.106-4277.523c2.068.621 3.611 2.126 5.33 3.293 3.821 2.594 7.775 5 11.422 7.851a5.007 5.007 0 0 1 .536.566l-1.571 1.028c-5.344-4.115-10.57-8.378-15.717-12.738z" transform="translate(-508.571 4346.526)" style="fill:#875f5e"/>
                    <path id="Trazado_4517" data-name="Trazado 4517" d="M390.535-4265.818c2.08-2.124 4.71-3.505 7.1-5.211 2.906-2.078 5.938-3.979 8.914-5.959a2.036 2.036 0 0 1 1.281-.539c-5.152 4.353-10.373 8.62-15.72 12.734z" transform="translate(-380.389 4346.531)" style="fill:#875f5d"/>
                    <path id="Trazado_4518" data-name="Trazado 4518" class="cls-11" d="M505.055-4246.223h-11.332c.857-3.647 2.528-7.007 3.73-10.534a203.06 203.06 0 0 1 4.168-11.077 9.758 9.758 0 0 0-1.518-10.581c3.88 2.961 5.892 7.757 4.391 12.266-.88 2.642-1.856 5.254-2.871 7.847a2.976 2.976 0 0 0 0 2.278q1.594 4.287 3.144 8.59a10.673 10.673 0 0 1 .288 1.211z" transform="translate(-450.905 4347.135)"/>
                    <path id="Trazado_4519" data-name="Trazado 4519" class="cls-12" d="M491.561-4316.516a33.454 33.454 0 0 1 6.5 4.928c-5.059-1.286-7.592-.305-10.523 4.074-1.111 1.659-1.191 1.706-2.221-.038a8.8 8.8 0 0 0-6.389-4.6c-1.469-.241-2.782.358-4.172.521a50.205 50.205 0 0 1 6.534-5.147 3.814 3.814 0 0 0 3.275 1.027c1.3-.051 2.6-.056 3.9 0a4.85 4.85 0 0 0 3.096-.765z" transform="translate(-437.941 4373.355)"/>
                    <path id="Trazado_4520" data-name="Trazado 4520" class="cls-13" d="M554.138-4161.419a9.06 9.06 0 0 1-1.067.146c-2.725.062-2.731.058-2.426 2.821.15 1.354.325 2.707.489 4.06a1.322 1.322 0 0 1-1.072.818c-2.193.443-4.361 1.011-6.579 1.327a1.483 1.483 0 0 1-1.434-.421l-1.581-4.235c.225-.886.964-1.225 1.7-1.516 2.231-.887 4.3-2.168 6.361-2.539.493-.275.151-.437.292-.281.064.072.05.113-.02.158a3.594 3.594 0 0 1-1.974.424c-2.055.047-4.111.02-6.167.016a2.644 2.644 0 0 1-1.77-.556c-.886-.236-1.825.126-2.694-.237 5.982-.239 11.962-.216 17.942.015z" transform="translate(-479.929 4267.309)"/>
                    <path id="Trazado_4521" data-name="Trazado 4521" class="cls-13" d="M433.364-4154.39c.188-1.957.37-3.915.567-5.871.088-.873-.379-1.024-1.127-1.021a6.268 6.268 0 0 1-2.448-.138 231.034 231.034 0 0 1 17.949-.012q-1.352.122-2.695.236a1.448 1.448 0 0 1-.681.387 32.85 32.85 0 0 1-9.106-.184c-.121-.025-.167-.122-.172-.085a40.776 40.776 0 0 1 6.393 2.53c.815.34 1.715.629 1.986 1.647l-1.581 4.238a1.489 1.489 0 0 1-1.436.417c-2.217-.317-4.385-.884-6.577-1.327a1.322 1.322 0 0 1-1.072-.817z" transform="translate(-407.602 4267.306)"/>
                    <path id="Trazado_4522" data-name="Trazado 4522" class="cls-11" d="m420.243-4210.421-4.606-.045c1.162-4.163 2.9-8.118 4.387-12.166a13.861 13.861 0 0 1 1.695-3.454z" transform="translate(-397.543 4311.375)"/>
                    <path id="Trazado_4523" data-name="Trazado 4523" class="cls-11" d="m594.461-4210.679-4.608.045q-.739-7.835-1.48-15.667l.338-.1c.943 2.463 1.948 4.9 2.813 7.395.965 2.782 2.316 5.426 2.937 8.327z" transform="translate(-515.587 4311.588)"/>
                    <path id="Trazado_4524" data-name="Trazado 4524" d="m485.94-4374.443-3.495 2.211c-.587.165-.891-.263-1.146-.632a28.4 28.4 0 0 1-3.482-5.437c1.066 3.009-.78 7.042-3.535 8.058a.943.943 0 0 1-1.035-.088c-.294-.725-.61-1.44-.878-2.174-.814-2.22-1.081-2.4-3.449-2.261-.779-.447-.72-1.221-.733-1.949-.036-2.048-.03-4.1-.009-6.146.012-1.184-.45-1.738-1.675-1.714-1.891.037-3.783.007-5.675.013a1.264 1.264 0 0 0-1.45 1.433c-.015 1.523.021 3.048-.025 4.571-.022.723.031 1.5-.716 1.966a4.639 4.639 0 0 0-1.772 3.975 4.53 4.53 0 0 1-.966 2.889c-.615.432-1.214.149-1.794-.068a7.236 7.236 0 0 1-4.682-7.758 37.4 37.4 0 0 1-3.5 5.043.694.694 0 0 1-.828.284l-3.5-2.214c2.841-3.583 6.127-6.77 9.134-10.205a47.511 47.511 0 0 0 3.153-3.725 6.636 6.636 0 0 1 4.291-2.687 3 3 0 0 1 .805 1.146 5.139 5.139 0 0 0 8.874.422c.43-.585.688-1.315 1.418-1.641a9.283 9.283 0 0 1 4.99 3.524c2.876 3.47 6.016 6.721 9.032 10.075.908 1.006 1.769 2.057 2.648 3.089z" transform="translate(-415.287 4424.165)" style="fill:#f8fafd"/>
                    <path id="Trazado_4525" data-name="Trazado 4525" class="cls-6" d="M499.261-4428.346c-1.2 4.311-5.9 5.916-9.176 3.426-1.077-.82-2.072-1.78-1.923-3.35.763-.476 1.607-.08 2.4-.236a4.752 4.752 0 0 1 2.346-1.9c-.81-.26-1.579-.279-1.973-.937a8.832 8.832 0 0 1-5.427-9.248 5.083 5.083 0 0 1 5.051-4.98c3.423-.02 6.846-.013 10.268 0 .479 0 1.183-.2 1.152.648-.094 2.569.313 5.158-.256 7.708a6.991 6.991 0 0 1-3.892 5.087c-1.628.732-1.086 1.708-.969 2.812.145 1.369 1.166.642 1.807.823.194.059.394.099.592.147z" transform="translate(-445.27 4461.377)"/>
                    <path id="Trazado_4526" data-name="Trazado 4526" class="cls-6" d="M545.572-4432.058a.614.614 0 0 1-.754-.384c-.361-1.016-.564-3.1-.245-3.517a.99.99 0 0 1 1.14-.244c1.649.4 2.088 2 1.005 3.551a.627.627 0 0 1-.2.182 4.518 4.518 0 0 1-.946.412z" transform="translate(-485.546 4455.012)"/>
                    <path id="Trazado_4527" data-name="Trazado 4527" class="cls-6" d="M470.4-4432.493a.535.535 0 0 1-.1-.113c-1.109-1.589-.662-3.214 1.006-3.6a1.034 1.034 0 0 1 1.028.153c.424.4.259 2.624-.167 3.658a.5.5 0 0 1-.611.284 3.161 3.161 0 0 1-1.156-.382z" transform="translate(-434.479 4455.011)"/>
                    <path id="Trazado_4528" data-name="Trazado 4528" class="cls-15" d="M501.9-4400.592c.516.1 1.028.213 1.547.282s1.039.088 1.909.158a16.329 16.329 0 0 1-3.828 2.4l.372-2.84z" transform="translate(-456.238 4430.628)"/>
                    <path id="Trazado_4529" data-name="Trazado 4529" class="cls-16" d="M481.8-4433.035c.466-5.8-1.487-11.658 1.423-17.39-2.123 5.753-.342 11.609-1.423 17.39z" transform="translate(-442.61 4465.42)"/>
                    <path id="Trazado_4530" data-name="Trazado 4530" class="cls-16" d="M582.451-4416.417c3.524-.218 16.069 6.413 14.769 15.486-1.214-9.669-11.256-15.557-14.769-15.486z" transform="translate(-517.229 4441.062)"/>
                    <path id="Trazado_4531" data-name="Trazado 4531" class="cls-3" d="M547.2-4425.182c.288-.251.685-.209 1.185.112-.171.847-.413 1.5-1.064 1.055a.751.751 0 0 1-.121-1.167z" transform="translate(-487.297 4447.543)"/>
                    <path id="Trazado_4532" data-name="Trazado 4532" class="cls-3" d="M471.847-4425.115c.448-.254.82-.309 1.094-.1a.684.684 0 0 1-.078 1.093c-.651.441-.867.2-1.07-.873a.116.116 0 0 1 .054-.12z" transform="translate(-435.917 4447.542)"/>
                    <path id="Trazado_4533" data-name="Trazado 4533" class="cls-7" d="m431.1-4139.812 9.085 1.727c.379.133.751.3 1.139.395 2.246.566 2.248.56 1.1 2.706l-.064-.033c-4.572-.873-9.156-1.676-13.727-2.552-.362-.069-.714-.2-1.052.057l-.076.68c-.905-3.57-.712-3.8 2.678-3.15z" transform="translate(-405.339 4252.728)"/>
                    <path id="Trazado_4534" data-name="Trazado 4534" class="cls-7" d="m548.223-4138.443 9.086-1.724c1.019-.189 2.039-.372 3.057-.569.523-.1.958-.123.853.627-.137.97.121 1.984-.317 2.921l-.077-.679c-2.111-.124-4.1.584-6.147.913-2.888.464-5.759 1.033-8.632 1.582l-.064.034c-1.145-2.145-1.142-2.133 1.1-2.712.385-.101.841-.037 1.141-.393z" transform="translate(-486.102 4253.083)"/>
                    <path id="Trazado_4535" data-name="Trazado 4535" class="cls-7" d="M437.579-4116.7c.777-2.191-.984-2.981-2.7-4.23 3.482.235 6.45.72 9.417 1.19.138.021.236.307.352.469l-1.77 3.8c-.968-.608-1.952-1.194-2.9-1.829-1.7-1.138-1.694-1.15-2.3.664z" transform="translate(-410.69 4239.514)"/>
                    <path id="Trazado_4536" data-name="Trazado 4536" class="cls-7" d="M557.51-4119.088a.692.692 0 0 1 .653-.568c2.853-.37 5.706-.751 8.689-1-1.163 1.2-3.141 1.934-2.278 4.143l-.095.062c-.284-.223-.269-.546-.288-.856-.057-.942-.468-.866-1.11-.441a27.44 27.44 0 0 1-3.8 2.464z" transform="translate(-494.496 4239.33)"/>
                    <path id="Trazado_4537" data-name="Trazado 4537" class="cls-17" d="m454.036-4156.028-9.036-4.086.024-.209h10.6a21.2 21.2 0 0 1-1.588 4.295z" transform="translate(-417.608 4266.433)"/>
                    <path id="Trazado_4538" data-name="Trazado 4538" class="cls-17" d="M544.7-4160.32h11.06l-9.475 4.293a21.163 21.163 0 0 1-1.585-4.293z" transform="translate(-485.745 4266.432)"/>
                    <path id="Trazado_4539" data-name="Trazado 4539" class="cls-8" d="M586.807-4083.393a30.018 30.018 0 0 0 .562-5.37c1.907 2.62 1.869 2.986-.562 5.37z" transform="translate(-514.517 4217.531)"/>
                    <path id="Trazado_4540" data-name="Trazado 4540" class="cls-8" d="M431.736-4088.763a29.935 29.935 0 0 0 .562 5.37c-2.431-2.384-2.469-2.75-.562-5.37z" transform="translate(-407.62 4217.531)"/>
                    <path id="Trazado_4541" data-name="Trazado 4541" class="cls-16" d="M495.337-4363.968c.011-2.424.078-4.85.007-7.271-.034-1.142.372-1.446 1.456-1.417 2.475.066 4.954.062 7.43 0 1.028-.024 1.38.3 1.365 1.346-.043 3.055.01 6.111.026 9.167a67.8 67.8 0 0 0-.013 7.443c.128 1.192-.45 1.491-1.573 1.452-2.3-.08-4.619-.115-6.92.011-1.393.077-1.941-.374-1.782-1.729l2.282-1.854c2.128-2.147 2.652-5.039 3.57-7.743.623-1.834.354-2.225-1.616-2.33a4.173 4.173 0 0 0-1.858.013l-2.04 3.88c-.464-.266-.143-.7-.334-.968z" transform="translate(-451.987 4411.539)"/>
                    <path id="Trazado_4542" data-name="Trazado 4542" class="cls-12" d="m451.288-4347.519 5.269-7.454c-.923 4.673-.031 7.149 3.064 8.954a17.858 17.858 0 0 0 2.468 1 1.241 1.241 0 0 1-.733.948q-4.984 2.67-9.963 5.351a1.319 1.319 0 0 1-.46.057c-.508-.585-.18-1.191-.019-1.775.333-1.21.828-2.366 1.275-3.536.382-1 .564-1.912-.542-2.6a.741.741 0 0 1-.308-.686c-.017-.084-.039-.172-.051-.259z" transform="translate(-421.477 4399.454)"/>
                    <path id="Trazado_4543" data-name="Trazado 4543" class="cls-17" d="M429.781-4330.6c2.165 1.222 2.156 1.219 1.338 3.535-.594 1.682-1.164 3.373-1.744 5.059-1.838 1.406-4.034 2.188-5.975 3.424-1.276.813-2.678 1.427-4.285 2.269a33.109 33.109 0 0 1 2.584-3.667c2.528-3.347 5-6.735 7.505-10.1a3.85 3.85 0 0 1 .577-.52z" transform="translate(-399.919 4382.8)"/>
                    <path id="Trazado_4544" data-name="Trazado 4544" class="cls-15" d="M502.69-4355.794c.794-.867 3.669-.854 4.353.012a1.286 1.286 0 0 1 .049 1.333c-.718 2.181-1.442 4.36-2.142 6.547-.378 1.18-1.449 1.579-2.356 2.168.1-2.848.216-5.7.306-8.545a2.343 2.343 0 0 0-.21-1.515z" transform="translate(-456.967 4400.455)"/>
                    <path id="Trazado_4545" data-name="Trazado 4545" class="cls-12" d="M541.55-4345.217c3.783-1.648 5.078-4.652 4.065-9.164l5.134 7.264-.052.265c0 .052.02.131-.006.152-1.867 1.481-.794 3.108-.3 4.756.358 1.191 1.331 2.3.681 3.683a60.125 60.125 0 0 1-8.442-4.435c-.814-.465-.87-1.604-1.08-2.521z" transform="translate(-483.589 4399.049)"/>
                    <path id="Trazado_4546" data-name="Trazado 4546" class="cls-17" d="M566.743-4322.011c-.577-1.665-1.139-3.336-1.737-4.993-.844-2.342-.855-2.338 1.36-3.6q3.487 4.556 6.97 9.114a43.253 43.253 0 0 1 3.462 5.1c-2.458-1.352-4.925-2.688-7.37-4.062-.901-.506-2.037-.615-2.685-1.559z" transform="translate(-499.26 4382.799)"/>
                    <path id="Trazado_4547" data-name="Trazado 4547" class="cls-7" d="M547.812-4129.847c2.8-1.1 5.819-1.186 8.714-1.85 1.533-.352 3.1-.575 4.652-.829.476-.078 1.018-.438 1.414.184q-6.693 1.208-13.386 2.408a11.891 11.891 0 0 1-1.394.087z" transform="translate(-487.869 4247.557)"/>
                    <path id="Trazado_4548" data-name="Trazado 4548" class="cls-7" d="m572.219-4073.228-4.416 11.452-.428-.16 4.549-11.63c.268-.034.476-.016.295.338z" transform="translate(-501.237 4207.154)"/>
                    <path id="Trazado_4549" data-name="Trazado 4549" class="cls-7" d="m580.507-4096.463-.294-.339c1.316-2.323-.02-4.577-.2-6.856a30.717 30.717 0 0 1-.5-3.86l.094-.062c.926 2.869 1.146 5.876 1.721 8.813.155.813-.459 1.567-.821 2.304z" transform="translate(-509.526 4230.39)"/>
                    <path id="Trazado_4550" data-name="Trazado 4550" class="cls-7" d="M440.327-4107.511a55.464 55.464 0 0 1-1.121 7.318 5.612 5.612 0 0 0 .324 3.217c1.422 3.454 2.772 6.938 4.125 10.419a2.494 2.494 0 0 1 .278 1.864l-2.941-7.327a9.234 9.234 0 0 0-.591-1.461c-2.894-4.669-1.325-9.38-.169-14.09z" transform="translate(-413.341 4230.384)"/>
                    <path id="Trazado_4551" data-name="Trazado 4551" class="cls-7" d="M428.749-4132.406c.774-.821 1.6-.1 2.337.018 3.938.648 7.858 1.413 11.784 2.135.256.047.529.055.658.343-3.5-.189-6.88-1.13-10.324-1.671-1.491-.235-2.97-.547-4.455-.825z" transform="translate(-406.503 4247.621)"/>
                </g>
            </g>
            <path id="Trazado_4556" data-name="Trazado 4556" d="M508.442-4439.191s1.5.969.867 2.066c-1.06 1.824-.7 2.149-.083 2.537a5.346 5.346 0 0 0 .783.362" transform="translate(-460.964 4458.006)" style="stroke:#976c72;stroke-linecap:round;stroke-miterlimit:10;stroke-width:.2px;fill:none"/>
        </g>
    </g>
</svg>
