<svg xmlns="http://www.w3.org/2000/svg" width="168.681" height="163.65">
    <defs>
        <style>
            .cls-6{fill:#d3d4d3}.cls-10,.cls-13{mix-blend-mode:multiply;isolation:isolate}.cls-2{fill:#ec624b}.cls-7{fill:#0b2739}.cls-9{fill:#fff}.cls-10{fill:#983230;opacity:.134}.cls-11{fill:#f4a391}.cls-13{opacity:.1}.cls-15{fill:#313235}.cls-16{fill:#f8cccc;opacity:.103}
        </style>
    </defs>
    <g id="Grupo_6256" data-name="Grupo 6256" transform="translate(-289.175 -1577)">
        <path id="Trazado_2622" data-name="Trazado 2622" d="M-336.271 357.826c.91-.043.906-.989-.005-1.02-7.855-.271-18.907-.524-28.022-1.634-2.281-.278-2.264-2.6.02-2.861 35.484-4.058 116.277-2.608 165.812 3.073 1.725.2 1.421 2.077-.341 2.117-23.549.539-65.025 1.007-83.667 1.511" transform="translate(655.176 1381.639)" style="mix-blend-mode:multiply;isolation:isolate;fill:#d3d4d3"/>
        <path id="Trazado_2608" data-name="Trazado 2608" class="cls-2" d="M-276.867 286.892a7.4 7.4 0 0 0-7.26.771c-8.4-4.462-11.221-9.98-12.155-12.9a2.472 2.472 0 0 0-2.729-1.689l-.046.007a1.872 1.872 0 0 0-.731-.433 1.856 1.856 0 0 0-2.4 1.639l-.812 11.227a11.377 11.377 0 0 0 4.495 9.906 44 44 0 0 0 5.98 3.772c-7.258 15.641-6.878 36.812-6.878 36.812 15.735 9.173 23.87 3.319 23.87 3.319-1.186-8.393 1.571-29.984 3.38-36.3 2.487-8.688.666-14.102-4.714-16.131z" transform="translate(696.34 1331.016)"/>
        <g id="Grupo_4658" data-name="Grupo 4658" transform="translate(-433.037 1073.658)">
            <g id="Grupo_1185" data-name="Grupo 1185" transform="translate(726.637 543.744)">
                <rect id="Rect치ngulo_2799" data-name="Rect치ngulo 2799" width="98.417" height="117.372" rx="6" style="fill:#50535a"/>
                <rect id="Rect치ngulo_1776" data-name="Rect치ngulo 1776" width="93.319" height="115.673" rx="6" transform="translate(6.798 1.699)" style="fill:#f5f5f5;stroke:#50535a;stroke-width:.5px"/>
                <g id="Grupo_1184" data-name="Grupo 1184" transform="translate(13.786 16.139)">
                    <path id="Trazado_1160" data-name="Trazado 1160" d="M1431.992 769.693h31.293c2.442 0 4.421 1.527 4.421 3.411 0 1.884-1.98 3.411-4.421 3.411h-31.293c-2.442 0-4.421-1.527-4.421-3.411 0-1.884 1.98-3.411 4.421-3.411z" transform="translate(-1427.571 -769.693)" style="fill:#019df4"/>
                    <path id="Trazado_1164" data-name="Trazado 1164" class="cls-6" d="M1431.449 889.981h70.8a4.036 4.036 0 0 1 3.878 4.177 4.036 4.036 0 0 1-3.878 4.178h-70.8a4.036 4.036 0 0 1-3.877-4.178 4.035 4.035 0 0 1 3.877-4.177z" transform="translate(-1427.57 -863.503)"/>
                    <path id="Trazado_3741" data-name="Trazado 3741" class="cls-6" d="M1431.449 889.981h70.8a4.036 4.036 0 0 1 3.878 4.177 4.036 4.036 0 0 1-3.878 4.178h-70.8a4.036 4.036 0 0 1-3.877-4.178 4.035 4.035 0 0 1 3.877-4.177z" transform="translate(-1427.57 -846.509)"/>
                    <path id="Trazado_1159" data-name="Trazado 1159" class="cls-7" d="M1493.093 980.212a40.1 40.1 0 0 0 6.225-2.411 14.418 14.418 0 0 0 4.955-3.447 5.531 5.531 0 0 0 1.208-4.861 3.892 3.892 0 0 0-3.534-2.938 4.642 4.642 0 0 0-4.223 2.189 6.134 6.134 0 0 0-.357 5.322c1.347 3.543 5.419 6.074 9.083 6.454 4.127.427 8.454-2.7 7.906-7.141-.114-.924-1.388-.81-1.681-.087a4.128 4.128 0 0 0 7.394 3.641l-1.506-.078a9.937 9.937 0 0 0 8.846 4.534 9.221 9.221 0 0 0 2.527-.48 10.859 10.859 0 0 1 3.231-.233l7.587-.183c1.116-.027 1.215-1.77.09-1.743l-6.871.166c-1.146.027-2.291.045-3.436.083a19.317 19.317 0 0 0-2.4.571 8.184 8.184 0 0 1-8.027-3.516.883.883 0 0 0-1.2-.355.873.873 0 0 0-.308.277 2.39 2.39 0 0 1-4.278-2.133l-1.681-.087c.354 2.866-2.538 5.008-5.147 5.064a9.907 9.907 0 0 1-7.754-3.994 5.12 5.12 0 0 1-1-3.965 3.049 3.049 0 0 1 2.492-2.539 2.189 2.189 0 0 1 2.562 1.641 3.916 3.916 0 0 1-1.069 3.522 14.152 14.152 0 0 1-4.458 2.883 37.276 37.276 0 0 1-5.556 2.139c-1.07.318-.7 2.026.376 1.705z" transform="translate(-1466.697 -889.098)"/>
                </g>
            </g>
        </g>
        <g id="Grupo_853" data-name="Grupo 853" transform="translate(354.94 1577)">
            <path id="Correcto_3Masa" data-name="Correcto 3Masa" class="cls-7" d="M-277.862 258.762c-4.085-3.921-10-5.9-17.614-5.9s-13.542 1.988-17.606 5.917c-4.22 4.073-6.352 10.151-6.352 18.064s2.138 13.992 6.352 18.065c4.085 3.919 9.984 5.9 17.606 5.9s13.542-1.988 17.614-5.9c4.222-4.085 6.365-10.147 6.365-18.065s-2.143-13.996-6.365-18.081zm-6.02 9.3-14.067 18.838a1.246 1.246 0 0 1-.982.506h-.023a1.251 1.251 0 0 1-.982-.48l-6.436-8.1a1.254 1.254 0 0 1 .227-1.76 1.254 1.254 0 0 1 1.736.2l5.424 6.807 13.1-17.531a1.258 1.258 0 0 1 1.761-.266 1.258 1.258 0 0 1 .266 1.76l-.013.018z" transform="translate(319.434 -252.863)"/>
            <path id="Correcto_3Masa-2" data-name="Correcto 3Masa-2" class="cls-9" d="m-288.708 262.893-14.148 18.943a1.25 1.25 0 0 1-.991.509h-.022a1.265 1.265 0 0 1-.991-.48l-6.476-8.155a1.262 1.262 0 0 1 .2-1.773 1.262 1.262 0 0 1 1.773.2l5.444 6.878 13.179-17.637a1.265 1.265 0 0 1 1.773-.255 1.265 1.265 0 0 1 .255 1.773z" transform="translate(324.55 -247.626)"/>
        </g>
        <path id="Path" class="cls-9" d="m18.78 21.262 2.154-3.072 1.71.38a8.393 8.393 0 0 0-2.771 4.07z" transform="translate(324.878 1641.81)"/>
        <path id="Trazado_2609" data-name="Trazado 2609" class="cls-10" d="M-296.262 286.141c1.526 1.953 5.39 1.981 9.347 2.409q.526-.5 1.078-.964s-7.138.233-10.232-4.5a12.49 12.49 0 0 1-1.688-8.224l-.1-.294a2.468 2.468 0 0 0-2.727-1.679l-.046.007a1.839 1.839 0 0 1 .546 1.005c.496 2.736 1.92 9.807 3.822 12.24z" transform="translate(697.912 1331.207)"/>
        <path id="Trazado_2610" data-name="Trazado 2610" class="cls-7" d="M-286 286.351c.617.274 4.478 1.915 8.007-.022 1.778-.974 4.334-3.331 3.858-5.621a3.17 3.17 0 0 0-.771-1.46c.478-4.611-.177-6.155-1.04-6.544-1.169-.524-3.742.612-3.742.612a2.962 2.962 0 0 0-3.387-1.859 3.018 3.018 0 0 0-1.278 4.3q-.826 5.297-1.647 10.594z" transform="translate(707.472 1330.228)"/>
        <path id="Trazado_2611" data-name="Trazado 2611" class="cls-11" d="M-285.861 278.376a8.722 8.722 0 0 0-4.067 5.492l7.108.746a8.337 8.337 0 0 1 2.471-5.318z" transform="translate(704.907 1334.816)"/>
        <path id="Trazado_2612" data-name="Trazado 2612" d="m-289.928 283.868.584.061a12.7 12.7 0 0 1 5.907-3.966l-1.973-1.512-.451-.076a8.722 8.722 0 0 0-4.067 5.493z" transform="translate(704.907 1334.816)" style="opacity:.1;fill:#0b2739;mix-blend-mode:multiply;isolation:isolate"/>
        <path id="Trazado_2613" data-name="Trazado 2613" class="cls-7" d="M-300.04 309.18s-1.027 20.845 13.749 64.907h5.854s-3.438-28.76-2.4-41.687l-2.386-23.22z" transform="translate(698.286 1354.953)"/>
        <path id="Trazado_2614" data-name="Trazado 2614" class="cls-13" d="M-283.29 369.721c-.627-5.743-1.913-18.537-2.2-28.992-.918-1.551-1.295-3.911-1.455-6.9-.222-4.116-.071-8.672.056-12.019a44.867 44.867 0 0 0-.023-5.006c-.275-2.649-1.282-5.262-3.594-5.578-2.462-.337-4.3 2.3-4.938 5.418a36.327 36.327 0 0 0-.506 4.422 102.9 102.9 0 0 0 .266 17.958 81.15 81.15 0 0 0 4.668 21.328c1.888 4.899 4.532 8.271 7.726 9.369z" transform="translate(700.796 1356.272)"/>
        <path id="Trazado_2615" data-name="Trazado 2615" class="cls-7" d="M-279.8 314.656a255.864 255.864 0 0 0 17.156 58.7h-4.485s-25.679-23.516-30.343-63.06z" transform="translate(699.972 1355.684)"/>
        <path id="Trazado_2616" data-name="Trazado 2616" d="M-268.229 369.021a254.641 254.641 0 0 1-15.894-55.676l-4.222-1.042-2.52 1.073a50.344 50.344 0 0 0 6.484 24.116c6.833 11.715 2.758 15.749 5.371 19.974 2.08 3.363 8.118 7.555 10.781 11.555z" transform="translate(704.292 1356.995)" style="opacity:.15;fill:#fff"/>
        <path id="Trazado_2617" data-name="Trazado 2617" class="cls-11" d="M-277.843 273.648a7.358 7.358 0 0 0-1.467-.665c-1.727-.536-3.265.331-4.693 1.24a17.525 17.525 0 0 0-4.108 3.63 4.056 4.056 0 0 0-1.163 3.671 3.887 3.887 0 0 0 1.07 1.417 16.206 16.206 0 0 0 6.536 2.284 5.168 5.168 0 0 0 3.058-.87 8.023 8.023 0 0 0 2.628-2.454 5.611 5.611 0 0 0-1.86-8.254" transform="translate(705.265 1331.182)"/>
        <path id="Trazado_2618" data-name="Trazado 2618" class="cls-13" d="M-285.523 273.476a3.68 3.68 0 0 0 .658 2.338 4.41 4.41 0 0 0 3.354 4.946l.089-4.635-3.233-3.073a8.745 8.745 0 0 0-.868.424z" transform="translate(707.771 1331.336)"/>
        <path id="Trazado_2619" data-name="Trazado 2619" class="cls-7" d="m-285.63 286.061 2.471-2.715 1.9-.906-.2-1.108s-2.335-2.507-1.523-4.564a3.69 3.69 0 0 1-2.012-3.517l1.951-1.07 6.977 3.918-.756 6.1-2.753 2.282-3.183 1.485z" transform="translate(707.716 1330.765)"/>
        <path id="Trazado_2620" data-name="Trazado 2620" class="cls-11" d="m-282.433 277.714-.792.352s.036.369.069.5l-.981 1.166a5.947 5.947 0 0 0 .865.169 1.4 1.4 0 0 0 1.566-.876 1.147 1.147 0 0 0-.727-1.311z" transform="translate(708.693 1334.383)"/>
        <path id="Trazado_2621" data-name="Trazado 2621" class="cls-11" d="m-282.774 279.026-1.43-.238-2.014 3.1 1.22.971a8.882 8.882 0 0 1 2.224-3.833z" transform="translate(707.331 1335.085)"/>
        <path id="Trazado_2623" data-name="Trazado 2623" class="cls-15" d="M-283.538 350.191a6.968 6.968 0 0 1 .663 3.486s-.886.774-3.314.432c0 0-6.909 1.075-8.993.529s2.912-1.935 3.827-2.237a7.039 7.039 0 0 0 3.45-2.454z" transform="translate(701.143 1381.604)"/>
        <path id="Trazado_2624" data-name="Trazado 2624" class="cls-11" d="m-286.733 351.182-.331-2.753h-4.064l.395 2.517z" transform="translate(704.122 1380.612)"/>
        <path id="Trazado_2625" data-name="Trazado 2625" class="cls-15" d="m-276.417 349.626-2.067 3.746-2 .7a.684.684 0 0 0-.5.661.685.685 0 0 0 .686.685h5.29l2.056-.16a1.977 1.977 0 0 0 1.526-3.013l-1.622-2.615z" transform="translate(710.751 1381.394)"/>
        <path id="Trazado_2626" data-name="Trazado 2626" class="cls-11" d="m-277.7 350.408-1.335-1.979h3.724l.976 1.979z" transform="translate(712.03 1380.612)"/>
        <path id="Trazado_2627" data-name="Trazado 2627" class="cls-11" d="M-296.622 273.833c-.132-.215-1.1-.155-1.875-.069.633-1.212 1.295-2.4 1.725-3.2a.756.756 0 0 0-.863-1.088l-2.431.65a2.712 2.712 0 0 0-1.978 2.2l-.675 4.571 2.59.367a17.678 17.678 0 0 1 .8-1.859c.705-.299 2.896-1.268 2.707-1.572z" transform="translate(696.545 1328.982)"/>
        <path id="Trazado_2628" data-name="Trazado 2628" class="cls-2" d="m-299.454 273.5-.046.007a1.839 1.839 0 0 1 .546 1.006c.494 2.74 1.918 9.812 3.818 12.244 1.526 1.953 5.391 1.983 9.349 2.41.351-.332.709-.655 1.078-.964l.139-.114a7.393 7.393 0 0 1 7.258-.771c5.38 2.029 7.2 7.443 4.713 16.127-1.811 6.321-4.566 27.912-3.38 36.3 0 0-8.135 5.854-23.87-3.319 0 0-.38-21.171 6.878-36.812a43.975 43.975 0 0 1-5.98-3.772 11.376 11.376 0 0 1-4.495-9.906l.817-11.227a1.855 1.855 0 0 1 2.4-1.639 1.87 1.87 0 0 1 .731.433" transform="translate(696.05 1331.296)"/>
        <path id="Trazado_2629" data-name="Trazado 2629" class="cls-16" d="M-300.316 281.305s12.368 7.682 18.084 1.394c0 .001 2.247 16.893-18.084-1.394z" transform="translate(698.116 1336.73)"/>
        <path id="Trazado_2630" data-name="Trazado 2630" class="cls-10" d="M-295.484 288.668a58.588 58.588 0 0 0-2.968 7.936c-.3 4.4.653 8.272 5.882 5.477a34.324 34.324 0 0 0 14-13.326c-2.24 3.095-8.343 4.345-16.914-.087z" transform="translate(699.302 1341.544)"/>
        <path id="Trazado_2631" data-name="Trazado 2631" class="cls-16" d="M-278.316 296.759c2.018-7.045 1.2-11.938-2.056-14.619-.015.007-.03.007-.045.013-2.828 1.2 4.95 16.14-1.381 23.2-2.95 3.286-9.347 5.289-10.958 9.225a12.589 12.589 0 0 0-.843 3.779c-.127 3.377 1.148 9.565 11.746 13.271-.741-9.196 1.821-28.881 3.537-34.869z" transform="translate(702.502 1337.276)"/>
    </g>
</svg>
