<svg xmlns="http://www.w3.org/2000/svg" width="367.577" height="153.352">
    <defs>
        <style>
            .cls-2{opacity:.7}.cls-11,.cls-3,.cls-4,.cls-5,.cls-7,.cls-9{fill:none}.cls-3,.cls-4,.cls-9{stroke:#86888c}.cls-3,.cls-4,.cls-7{stroke-width:.5px}.cls-11,.cls-4,.cls-5,.cls-7,.cls-9{stroke-linecap:round;stroke-miterlimit:10}.cls-5,.cls-7{stroke:#b6b7b7}.cls-6{fill:#d3d4d3}.cls-11{stroke:#50535a}
        </style>
    </defs>
    <g id="Grupo_6118" data-name="Grupo 6118" style="opacity:.56">
        <g id="Grupo_6107" data-name="Grupo 6107" class="cls-2" transform="translate(276.776 111.5)">
            <path id="Trazado_4646" data-name="Trazado 4646" class="cls-3" d="M-529.877 421.719a30.277 30.277 0 0 1-3.882-.493c-2.2-.458-6.313-3.957-.376-9.818 1.107-1.092-.233-4.492-.842-5.1s-3.114-3.817 1.761-7c1.4-.913 1.01-3.213 1.74-6.7.495-2.359 3.958-2.7 4.643 1.218a5.122 5.122 0 0 0 2.664 3.5s1.853 1.015.685 5.556c-.631 2.454 1.03 3.093 1.691 3.822 1.127 1.242.027 2.516.517 5.616.228 1.446 1.516 1.545 1.674 2.816.457 3.654-1.522 6.428-4.871 6.563s-5.404.02-5.404.02z" transform="translate(537.206 -390.85)"/>
            <g id="Grupo_6101" data-name="Grupo 6101" transform="translate(4.563 6.02)">
                <path id="Trazado_4647" data-name="Trazado 4647" class="cls-4" d="M-502.494 500.457v.507" transform="translate(506.297 -480.058)"/>
                <path id="Trazado_4648" data-name="Trazado 4648" class="cls-4" d="M-503.82 415.825s-.2 6.952 0 7.713c.178.669.239 10.344.251 12.686" transform="translate(507.372 -415.825)"/>
                <path id="Trazado_4649" data-name="Trazado 4649" class="cls-4" d="M-508.8 415.825s.022 1.776 1.178 1.776" transform="translate(511.083 -415.825)"/>
                <path id="Trazado_4650" data-name="Trazado 4650" class="cls-4" d="M-500.847 432.036s-1.218 3.4-2.689 3.806" transform="translate(507.088 -428.129)"/>
                <path id="Trazado_4651" data-name="Trazado 4651" class="cls-4" d="M-514.273 450.772s.5 3.147 2.764 4.212" transform="translate(515.237 -442.349)"/>
                <path id="Trazado_4652" data-name="Trazado 4652" class="cls-4" d="M-517.563 480.036a2.116 2.116 0 0 1 .558 2.131c-.057.268-1.269-.457-1.269-.457" transform="translate(518.273 -464.559)"/>
                <path id="Trazado_4653" data-name="Trazado 4653" class="cls-4" d="M-510.473 491.06a7.247 7.247 0 0 0-2.537-2.182" transform="translate(514.278 -471.27)"/>
                <path id="Trazado_4654" data-name="Trazado 4654" class="cls-4" d="M-498.272 475.4a3.8 3.8 0 0 1-2.208 3.045c-2.02.811-2 1.573-2 1.979" transform="translate(506.29 -461.044)"/>
            </g>
        </g>
        <g id="Grupo_6117" data-name="Grupo 6117" class="cls-2" transform="translate(341.163 121.875)">
            <path id="Trazado_4646-2" data-name="Trazado 4646" class="cls-3" d="M-529.877 421.719a30.277 30.277 0 0 1-3.882-.493c-2.2-.458-6.313-3.957-.376-9.818 1.107-1.092-.233-4.492-.842-5.1s-3.114-3.817 1.761-7c1.4-.913 1.01-3.213 1.74-6.7.495-2.359 3.958-2.7 4.643 1.218a5.122 5.122 0 0 0 2.664 3.5s1.853 1.015.685 5.556c-.631 2.454 1.03 3.093 1.691 3.822 1.127 1.242.027 2.516.517 5.616.228 1.446 1.516 1.545 1.674 2.816.457 3.654-1.522 6.428-4.871 6.563s-5.404.02-5.404.02z" transform="translate(537.206 -390.85)"/>
            <g id="Grupo_6101-2" data-name="Grupo 6101" transform="translate(4.563 6.02)">
                <path id="Trazado_4647-2" data-name="Trazado 4647" class="cls-4" d="M-502.494 500.457v.507" transform="translate(506.297 -480.058)"/>
                <path id="Trazado_4648-2" data-name="Trazado 4648" class="cls-4" d="M-503.82 415.825s-.2 6.952 0 7.713c.178.669.239 10.344.251 12.686" transform="translate(507.372 -415.825)"/>
                <path id="Trazado_4649-2" data-name="Trazado 4649" class="cls-4" d="M-508.8 415.825s.022 1.776 1.178 1.776" transform="translate(511.083 -415.825)"/>
                <path id="Trazado_4650-2" data-name="Trazado 4650" class="cls-4" d="M-500.847 432.036s-1.218 3.4-2.689 3.806" transform="translate(507.088 -428.129)"/>
                <path id="Trazado_4651-2" data-name="Trazado 4651" class="cls-4" d="M-514.273 450.772s.5 3.147 2.764 4.212" transform="translate(515.237 -442.349)"/>
                <path id="Trazado_4652-2" data-name="Trazado 4652" class="cls-4" d="M-517.563 480.036a2.116 2.116 0 0 1 .558 2.131c-.057.268-1.269-.457-1.269-.457" transform="translate(518.273 -464.559)"/>
                <path id="Trazado_4653-2" data-name="Trazado 4653" class="cls-4" d="M-510.473 491.06a7.247 7.247 0 0 0-2.537-2.182" transform="translate(514.278 -471.27)"/>
                <path id="Trazado_4654-2" data-name="Trazado 4654" class="cls-4" d="M-498.272 475.4a3.8 3.8 0 0 1-2.208 3.045c-2.02.811-2 1.573-2 1.979" transform="translate(506.29 -461.044)"/>
            </g>
        </g>
        <g id="Grupo_6109" data-name="Grupo 6109" transform="translate(9.229 114.665)">
            <path id="Trazado_4656" data-name="Trazado 4656" class="cls-5" d="M-452.306 481.022c-3.461 1.035-8.782 4.983-3.253 13.62 1.916 2.994.368 3.51-.334 4.343-.743.882-2.9 4.231 4.342 6.793 8.686.445 16.481 0 16.481 0s11.9-4.625 2.449-13.957c-2.9-2.858 1.336-9.725-1.336-12.175s-5.693 3.318-5.889-7.28c-.1-5.334-8.587-4.747-9.7.524-.544 2.577.879 7.045-2.76 8.132z" transform="translate(457.951 -468.641)"/>
            <g id="Grupo_6102" data-name="Grupo 6102" transform="translate(10.781 9.001)">
                <path id="Trazado_4657" data-name="Trazado 4657" class="cls-5" d="M-437.54 481.4s0 14.328.743 17.446a16.93 16.93 0 0 1 .368 5.716" transform="translate(440.138 -481.404)"/>
                <path id="Trazado_4658" data-name="Trazado 4658" class="cls-5" d="M-439.273 493.193s-.817 7.349-5.716 9.131" transform="translate(448.33 -484.879)"/>
                <path id="Trazado_4659" data-name="Trazado 4659" class="cls-5" d="M-436.685 497.825s.091 2.609 3.2 5.09" transform="translate(436.685 -486.244)"/>
                <path id="Trazado_4660" data-name="Trazado 4660" class="cls-5" d="M-435.831 487.614s1.707 2.153 2.6 2.376" transform="translate(435.831 -483.234)"/>
            </g>
        </g>
        <g id="Grupo_6108" data-name="Grupo 6108" transform="translate(329.519 128.228)">
            <path id="Trazado_4656-2" data-name="Trazado 4656" class="cls-6" d="M-442.6 476.787c2.277.681 5.778 3.279 2.14 8.96-1.261 1.97-.242 2.309.219 2.857.489.58 1.905 2.784-2.857 4.469-5.714.293-10.843 0-10.843 0s-7.831-3.043-1.611-9.182c1.9-1.88-.879-6.4.879-8.01s3.745 2.183 3.875-4.789c.065-3.51 5.649-3.123 6.382.345.358 1.695-.577 4.634 1.816 5.35z" transform="translate(457.951 -468.641)"/>
            <g id="Grupo_6102-2" data-name="Grupo 6102" transform="translate(6.014 5.922)">
                <path id="Trazado_4657-2" data-name="Trazado 4657" class="cls-7" d="M-436.747 481.4s0 9.426-.489 11.478a11.139 11.139 0 0 0-.242 3.761" transform="translate(440.996 -481.404)"/>
                <path id="Trazado_4658-2" data-name="Trazado 4658" class="cls-7" d="M-444.989 493.193s.537 4.835 3.761 6.008" transform="translate(444.989 -487.723)"/>
                <path id="Trazado_4659-2" data-name="Trazado 4659" class="cls-7" d="M-434.579 497.825a4.967 4.967 0 0 1-2.106 3.349" transform="translate(440.538 -490.206)"/>
                <path id="Trazado_4660-2" data-name="Trazado 4660" class="cls-7" d="M-434.122 487.614s-1.123 1.417-1.709 1.563" transform="translate(440.08 -484.733)"/>
            </g>
        </g>
        <g id="Grupo_6116" data-name="Grupo 6116">
            <g id="Grupo_6112" data-name="Grupo 6112" transform="translate(148.675 20.691)">
                <path id="Trazado_4661" data-name="Trazado 4661" d="M168.652 430.917c.85 14.768 9.634 33.131 21.982 35.28 11.5 2 16.69-11.7 32.566-10.855 12.62.672 15.806 9.675 24.7 7.6 11.354-2.652 20.264-20.633 15.469-29.038-5.188-9.1-24.3-3.259-27.681-11.4-3.233-7.787 13.006-16.164 10.856-25.782-2.443-10.928-27.782-19.677-48.035-12.212-18.823 6.936-30.972 27.028-29.857 46.407z" transform="translate(-168.581 -381.729)" style="stroke:#86888c;fill:none"/>
                <g id="Grupo_6111" data-name="Grupo 6111" transform="translate(23.69 55.254)">
                    <path id="Línea_291" data-name="Línea 291" class="cls-9" transform="translate(25.944)" d="M0 0v69.972"/>
                    <path id="Trazado_4662" data-name="Trazado 4662" class="cls-9" d="M297.869 543.19s2.577 11.443 11.244 14.421" transform="translate(-283.169 -540.402)"/>
                    <path id="Trazado_4663" data-name="Trazado 4663" class="cls-9" d="M265.684 558.718s-3.377 18.794-18.063 21.4" transform="translate(-221.677 -550.348)"/>
                    <path id="Trazado_4664" data-name="Trazado 4664" class="cls-9" d="M297.869 558.718s.251 22.888 18.594 25.772" transform="translate(-290.519 -550.348)"/>
                    <path id="Trazado_4665" data-name="Trazado 4665" class="cls-9" d="M341.634 570.106s.512 6.606 10.211 8.792" transform="translate(-341.634 -557.642)"/>
                    <path id="Trazado_4666" data-name="Trazado 4666" class="cls-9" d="M235.2 598.263s7.666 2.657 15.46-6.676" transform="translate(-202.185 -571.401)"/>
                </g>
                <path id="Trazado_4667" data-name="Trazado 4667" d="M211.454 449.933c2.926 3.577 4.285 8.178 6.819 12.043a23.289 23.289 0 0 0 12.228 9.315c7.995 2.574 16.938.675 24.875 3.42a22.732 22.732 0 0 1 13.732 13.789c-2.968 6.31-8.3 12.022-14.316 13.428-8.89 2.077-12.076-6.927-24.7-7.6-15.876-.846-21.064 12.858-32.566 10.855-12.348-2.149-21.132-20.512-21.982-35.28a47.358 47.358 0 0 1 6.319-25.975c10.39-2.393 22.866-2.215 29.591 6.005z" transform="translate(-175.477 -420.714)" style="opacity:.215;mix-blend-mode:luminosity;isolation:isolate"/>
            </g>
            <g id="Grupo_6114" data-name="Grupo 6114" transform="translate(109.765)">
                <path id="Trazado_4668" data-name="Trazado 4668" class="cls-6" d="M344.6 426.183c3.531 8.956 32.64 12.649 50.991-1.767 12.836-10.083 20.636-29.2 14.641-37.36-5.7-7.75-19.9-.223-26-8.078-7.989-10.278 11.006-29.978 3.531-43.418-4.929-8.865-18.155-13.309-27.515-10.6-19.866 5.744-28.556 45.336-16.408 62.856 3 4.319 6.556 6.285 7.826 12.117 2.681 12.309-9.691 19.6-7.066 26.25z" transform="translate(-338.261 -324.17)"/>
                <g id="Grupo_6113" data-name="Grupo 6113" transform="translate(11.788 77.225)">
                    <path id="Línea_292" data-name="Línea 292" class="cls-11" transform="translate(23.325 12.672)" d="M0 0v60.49"/>
                    <path id="Trazado_4669" data-name="Trazado 4669" class="cls-11" d="M446.5 587.435a19.529 19.529 0 0 0 15.387 11.908" transform="translate(-438.56 -570.021)"/>
                    <path id="Trazado_4670" data-name="Trazado 4670" class="cls-11" d="M446.5 596.177s2.822 18.193 23.325 17.7" transform="translate(-446.499 -575.62)"/>
                    <path id="Trazado_4671" data-name="Trazado 4671" class="cls-11" d="M495.435 597.943s4.349-1.454 4.4-5.754" transform="translate(-494.105 -573.066)"/>
                    <path id="Trazado_4672" data-name="Trazado 4672" class="cls-11" d="M404.008 606.376s14.777-.83 15.275-28.878" transform="translate(-380.683 -563.656)"/>
                    <path id="Trazado_4673" data-name="Trazado 4673" class="cls-11" d="M385.018 538.992s.646 18.119-11.959 23.369" transform="translate(-335.298 -538.992)"/>
                </g>
                <path id="Trazado_4674" data-name="Trazado 4674" d="M429.182 389.3c-12.119-17.477-3.5-56.917 16.265-62.81a36.192 36.192 0 0 0 2.72 32.889c2.968 4.6 6.97 8.444 10.032 12.977 5.206 7.708 7.459 17.061 8.351 26.32 1.2 12.444-.1 25.663-6.8 36.181-14.11 2.315-27.491-1.3-29.813-7.187-2.622-6.65 9.75-13.942 7.068-26.253-1.268-5.834-4.828-7.8-7.823-12.117z" transform="translate(-423.603 -325.655)" style="fill:#fff;opacity:.22"/>
            </g>
            <path id="Trazado_4675" data-name="Trazado 4675" d="M217.982 720.507c3.126-.325 6.213-.7 9.24-1.135 19.545-2.834 36.19-8.154 57.222-9.258 35.438-1.86 71.622 8.858 104.942 4.4 10.6-1.419 19.049-5.262 29.313-6.935 20.319-3.312 44.428-1.777 66.277.143 34.244 3.009 67.874 7.874 100.584 12.787z" transform="translate(-217.982 -567.155)" style="fill:#86888c"/>
        </g>
    </g>
</svg>
