<svg xmlns="http://www.w3.org/2000/svg" width="397.787" height="315.171">
    <defs>
        <style>
            .cls-11,.cls-32{fill:none}.cls-32{stroke:#d7eef7}.cls-11{stroke-linecap:round}.cls-4{fill:#c7c9cb}.cls-5{fill:#019df4}.cls-6{fill:#983230}.cls-7{fill:#0b2739}.cls-8{fill:#ec624b}.cls-11{stroke-miterlimit:10;stroke:#fff;stroke-dasharray:12}.cls-12{fill:#fffffe}.cls-13{fill:#feb700}.cls-14{fill:#d65c40}.cls-17{fill:#d7eefb}.cls-19{fill:#bfe2f7}.cls-20{fill:#f4a391}.cls-21{fill:#f8b5a6}.cls-30{fill:#fff}.cls-31{fill:#d3d4d3}.cls-33{fill:#214e67}
        </style>
    </defs>
    <g id="Grupo_6100" data-name="Grupo 6100" transform="translate(-414 -688)">
        <path id="Trazado_4645" data-name="Trazado 4645" d="M3919.411-109.615h190.521" transform="translate(-3366.227 1051.044)" style="stroke-linecap:round;stroke:#d7eef7;fill:none"/>
        <g id="Grupo_6098" data-name="Grupo 6098" transform="translate(414 688)">
            <g id="Grupo_6095" data-name="Grupo 6095" transform="translate(10.404)">
                <rect id="Rectángulo_3216" data-name="Rectángulo 3216" width="387.382" height="198.023" rx="12" style="fill:rgba(11,39,57,.64)"/>
                <rect id="Rectángulo_3217" data-name="Rectángulo 3217" width="238.395" height="136.302" rx="12" transform="translate(79.601 31.781)" style="fill:#8bcef4;opacity:.236"/>
                <rect id="Rectángulo_3218" data-name="Rectángulo 3218" class="cls-4" width="9.602" height="9.602" rx="2.387" transform="translate(14.012 119.42)"/>
                <rect id="Rectángulo_3219" data-name="Rectángulo 3219" class="cls-4" width="9.602" height="9.602" rx="2.387" transform="rotate(90 -40.51 78.91)"/>
                <rect id="Rectángulo_3220" data-name="Rectángulo 3220" class="cls-4" width="9.602" height="9.602" rx="2.387" transform="rotate(90 -32.98 86.44)"/>
                <rect id="Rectángulo_3221" data-name="Rectángulo 3221" class="cls-4" width="9.602" height="9.602" rx="2.387" transform="translate(13.875 133.74)"/>
                <rect id="Rectángulo_3222" data-name="Rectángulo 3222" class="cls-4" width="9.602" height="9.602" rx="2.387" transform="rotate(90 -47.738 86.003)"/>
                <rect id="Rectángulo_3223" data-name="Rectángulo 3223" class="cls-4" width="9.602" height="9.602" rx="2.387" transform="rotate(90 -40.208 93.533)"/>
                <rect id="Rectángulo_3224" data-name="Rectángulo 3224" class="cls-5" width="9.602" height="9.602" rx="2.387" transform="translate(13.739 148.061)"/>
                <rect id="Rectángulo_3225" data-name="Rectángulo 3225" class="cls-6" width="9.602" height="24.934" rx="2.387" transform="rotate(90 -47.3 100.761)"/>
                <rect id="Rectángulo_3227" data-name="Rectángulo 3227" class="cls-7" width="9.602" height="9.602" rx="2.387" transform="rotate(90 97.676 245.737)"/>
                <path id="Trazado_4563" data-name="Trazado 4563" class="cls-8" d="M1397.157-2840.2v-6.861a1.375 1.375 0 0 1 1.37-1.371h6.861a1.374 1.374 0 0 1 1.37 1.371v6.861a1.374 1.374 0 0 1-1.37 1.37h-6.861a1.374 1.374 0 0 1-1.37-1.37z" transform="translate(-1043.485 2996.492)"/>
                <rect id="Rectángulo_3228" data-name="Rectángulo 3228" class="cls-5" width="40.75" height="21.652" rx="6" transform="translate(322.524 81.957)"/>
                <rect id="Rectángulo_3229" data-name="Rectángulo 3229" class="cls-5" width="40.75" height="21.652" rx="6" transform="translate(322.524 56.551)"/>
                <rect id="Rectángulo_3230" data-name="Rectángulo 3230" class="cls-5" width="40.75" height="21.652" rx="6" transform="translate(322.524 28.735)"/>
                <circle id="Elipse_919" data-name="Elipse 919" class="cls-8" cx="8.963" cy="8.963" r="8.963" transform="translate(16.554 8.957)"/>
                <circle id="Elipse_920" data-name="Elipse 920" class="cls-5" cx="8.963" cy="8.963" r="8.963" transform="translate(38.656 8.957)"/>
                <circle id="Elipse_921" data-name="Elipse 921" cx="8.963" cy="8.963" r="8.963" transform="translate(61.646 8.957)" style="fill:#e0e1e3"/>
                <path id="Trazado_4564" data-name="Trazado 4564" d="M1384.513-2831.708c9.008 79.461-11.256 75.356-11.256 75.356-29.251 3.435-12.035-75.356-12.035-75.356" transform="translate(-1026.04 2989.371)" style="stroke-miterlimit:10;stroke:#9cd2f0;stroke-width:2px;stroke-linecap:round;fill:none"/>
            </g>
            <rect id="Rectángulo_3231" data-name="Rectángulo 3231" class="cls-11" width="87.346" height="19.569" rx="9.784" transform="translate(199.803 64.064)"/>
            <path id="Trazado_4565" data-name="Trazado 4565" class="cls-8" d="M1143.912-2997.361c-6.474 1.82-12.925 3.734-19.431 5.433a12.756 12.756 0 0 1-14.159-5.041 12.6 12.6 0 0 1 .371-14.492 13.382 13.382 0 0 1 7.546-4.889q27.725-7.955 55.467-15.84a12.383 12.383 0 0 1 15.734 8.646c1.95 6.5-1.577 13.058-8.48 15.3-5.613 1.824-11.324 3.341-16.986 5.012a18.943 18.943 0 0 0-1.823.742c-1.739.451-3.486.881-5.217 1.367-.644.181-1.341.575-1.887.063-.644-.6.092-1.235.277-1.8a18.664 18.664 0 0 0 1.112-6.723c-.035-.707-.287-1.368-1.067-1.5-.967-.163-1.14.583-1.069 1.272.167 1.615-.9 2.637-1.654 3.837-2.233 3.565-5.803 5.763-8.734 8.613z" transform="translate(-910.038 3074.975)"/>
            <path id="Trazado_4566" data-name="Trazado 4566" class="cls-12" d="M1171.145-3010.66a8 8 0 0 1 9.974 5.531 8.772 8.772 0 0 1-5.808 10.633 8.283 8.283 0 0 1-9.97-5.917 8.256 8.256 0 0 1 5.804-10.247z" transform="translate(-934.226 3065.711)"/>
            <path id="Trazado_4567" data-name="Trazado 4567" class="cls-13" d="M1218.579-3017.481a2.027 2.027 0 0 0-.653.8c-.267.48-.1 1.327-.721 1.437a13.158 13.158 0 0 1-2.874.051c-.57-.026-.472-.524-.45-.909a6.573 6.573 0 0 1 5.184-5.707 6.465 6.465 0 0 1 6.743 2.979 4.08 4.08 0 0 1 .358.7c.277.817.916 1.837.358 2.468-.626.706-1.818.258-2.763.286-.553.016-.465-.534-.6-.874a2.768 2.768 0 0 0-3.639-1.819.357.357 0 0 1-.349-.01 8.462 8.462 0 0 1-1.217-1.642c.21.717.852 1.272.725 2.089-.032.05-.067.1-.102.151z" transform="translate(-955.028 3070.381)"/>
            <path id="Trazado_4568" data-name="Trazado 4568" class="cls-14" d="M1222.823-3015.343a1.465 1.465 0 0 1 .2.053 1.055 1.055 0 0 0 .977.848 1.727 1.727 0 0 1 1.454 2.312 1.574 1.574 0 0 1-1.986 1.192 1.761 1.761 0 0 1-1.1-2.494 1.089 1.089 0 0 0-.293-1.27.545.545 0 0 1 .026-.142c.13-.327.193-.749.722-.499z" transform="translate(-958.526 3067.601)"/>
            <path id="Trazado_4569" data-name="Trazado 4569" d="M1177.058-3002.976c-.933-1.438-2.055-1.966-3.4-1.6a2.746 2.746 0 0 0-2.142 2.938c0 .934-.4 1.221-1.212 1.442-2.72.736-3.035.489-2.728-2.363a6.913 6.913 0 0 1 5.945-5.888 6.621 6.621 0 0 1 7.077 4.751c-1.114.566-2.156 1.478-3.54.72z" transform="translate(-935.276 3064.646)" style="fill:#ffb700"/>
            <path id="Trazado_4570" data-name="Trazado 4570" d="m1221.845-3017.043-.72.5-1.344-2.869a5.322 5.322 0 0 1 2.064 2.369z" transform="translate(-957.549 3069.302)" style="fill:#d56d1c"/>
            <rect id="Rectángulo_3232" data-name="Rectángulo 3232" class="cls-11" width="87.346" height="25.809" rx="12.904" transform="translate(17.339 60.818)"/>
            <path id="Trazado_4571" data-name="Trazado 4571" class="cls-7" d="M1026.3-2822.573a137.824 137.824 0 0 1 .128 15.625 19.237 19.237 0 0 0-.056 9.715c-.272 10.108-1.244 20.153-2.423 30.193-1.068 9.087-3.1 18-4.446 27.033-.711.7-.418 1.635-.574 2.465-2.708 9.783-5.108 19.654-8.438 29.259-.652 1.88-1.243 3.782-1.862 5.675-1 2.517-1.913 5.072-3.02 7.54-.827 1.845-.9 4.115-2.838 5.377a4.583 4.583 0 0 1-3.776-.748 7.151 7.151 0 0 1-.7-3.572c.042-2.84 0-5.683-.015-8.524.216-4.41-.692-9.1-.477-13.51.1-8.806-.28-9.719.321-14.793.274-4.752 5.029-16.4 6.627-20.653a10.116 10.116 0 0 0 .3-5.927c-1.121-4.8-3.029-9.547-4.3-14.314-.555-2.295-.042-3.559-1.384-5.966-.363.861.144-.043 0 .5a3.492 3.492 0 0 0-.354.586 343.83 343.83 0 0 1-13.895 41.717c-2.482 6.05-12.9 29.384-16.255 35.053l-1.6-1.807c-.062-1.075.809-.827 1.221-1.817 4.27-10.263 16.825-37.521 20.51-48.021 3.024-8.616 5.162-17.592 8.137-26.208a16.276 16.276 0 0 0 .829-8.962 22.431 22.431 0 0 1-.434-2.334c-.582-5.637-.743-11.72-1.347-17.533 0-.032-1.07.208-1.107 0-.191-1.384-.376-2.326-2.25-2.615a30.9 30.9 0 0 1-6.078-1.659c-3.211-1.2-3.577-4.148-5.557-6.5l-1.885-9.764-.168-2.319.178.081.184-.068c1.161-.883 2.644-.935 3.908-1.507 1.676-.759 1.507-1.558-.23-2.063a9.794 9.794 0 0 1 4.717-1.72c-.587 1.719-.71 2.922 1.783 1.988a22.259 22.259 0 0 1 3.333-.606c.781-.16 1.852-.012 1.8-1.314s-1.162-.99-1.9-1.245a47.412 47.412 0 0 1 14.075-1.666c-2.378 1.588-5.249-.071-7.691 1.17-.661.336-2.055-.281-1.879 1.061.151 1.153 1.4.8 2.157.711 5-.559 10.02-.538 15.041-.6 1.226-.014 3.012 1.844 3.65-.336.607-2.078-2.247-.7-2.722-2.018a13.484 13.484 0 0 1 5.817.909c-.264 1.577 0 2.854 1.859 3.182 1.754.31 2.277 1.4 2.126 3.066a24.613 24.613 0 0 0 .96 7.783z" transform="translate(-850.021 2991.849)"/>
            <path id="Trazado_4573" data-name="Trazado 4573" class="cls-17" d="M895.793-2817.126a49.554 49.554 0 0 1-1.693-21.643c.542-3.12.522-2.017.533-3.06l.695-1.033c5.125.219 9.26-1.091 14.381-1.018 4.43.062 9.256 2.227 13.715 2.049 1.291-.051 2.506-.011 2.851 1.647 1.15 5.53 2.412 10.973 1.889 16.777-.336 3.726-1.654 7.189-1.947 10.867-2.151 2.529-3.249 5.818-5.9 8.014a3.929 3.929 0 0 0-1.011 2.9c-.352 5.5-.61 10.995-1.058 16.489-.671 8.23-.848 16.5-1.764 24.718a15.459 15.459 0 0 0 .189 4.033c1.38-2.871 1.427-6.061 2-9.095 1.988-10.616 3.391-21.347 5.917-31.856.983-4.087 3.214-7.722 5.529-11.232.211-.32.826-.373 1.254-.55l.015.013c-6.316 8.56-7.348 18.813-9.145 28.8-1.5 8.31-2.6 16.693-4.226 24.975-.522 2.648.026 3.316 2.478 3.064a20.38 20.38 0 0 1 2.294.014 34.378 34.378 0 0 1-5.7 21.055c-2.269 3.376-4.7 6.57-9.542 4.179a.727.727 0 0 0-.283-.011c-2.27-2.522-5.04-4.569-6.789-7.59-2.763-4.77-4.652-9.755-4.717-15.354-.02-1.714.506-2.389 2.287-2.337 3.628.1 7.266-.078 10.891.071 2.171.089 3.256-.452 2.928-2.834-1.285-9.33.019-18.9-5.4-27.424-.28-.441-7.1-8.823-7.194-9.382l.35-.739c1.87 1.636 9.152 12.111 9.924 14.321 1.244 3.559 2.627 7.118 2.547 11a40.262 40.262 0 0 0-3.784-21.953c-.4-.857-.707-1.754-1.057-2.633l.024-.02c1.964.627 2.076 2.581 2.753 4.047a74.978 74.978 0 0 1 3.6 11.155c.146-1.668-.026-3.3-.041-4.924-.055-6.079.2-12.165-.583-18.222-.1-.753.043-1.924-.73-1.989-3.326-.283-5.738-2.973-9.026-3.248-.158-.432-.195-1-.495-1.275a28.71 28.71 0 0 1-6.959-10.766zm18.942 61.226.458.08c.227-3.59.326-7.2.719-10.767.4-3.606.43-7.22.649-10.83.455-7.491 1.079-14.972 1.6-22.459.079-1.138.214-2.456-1.61-2.323-1.544.113-2.518.755-2.393 2.51.217 3.035.533 6.072.55 9.11.066 11.559.027 23.119.027 34.679zm-3.576-83.3-.711.109 1.682 19.875 1.013-.1zm1.629 22.217a.759.759 0 0 0 .074-.244c0-.027-.13-.051-.2-.076a.755.755 0 0 0-.074.244c.001.024.13.047.201.072z" transform="translate(-818.654 2994.555)"/>
            <path id="Trazado_4574" data-name="Trazado 4574" d="M979.114-2802.332c1.98 2.348 3.369 5.21 6.579 6.414a29.87 29.87 0 0 0 6.081 1.309c1.913.295 2.546 1.418 2.715 3.048.607 5.842 1.171 11.689 1.771 17.533.087.844.258 1.681.428 2.514a16.276 16.276 0 0 1-.828 8.962c-2.975 8.616-5.391 17.427-8.415 26.042-3.684 10.5-8.1 20.7-12.37 30.966a6.737 6.737 0 0 0-.675 3.029c-2.278 1.967-3.036 4.635-3.443 7.464-2.489 2.722-3.555 6.123-4.522 9.573 1.637-3.121 3.938-5.916 4.59-9.515 1.47-2.333 3-4.642 3.453-7.446 3.356-5.671 5.443-11.909 7.925-17.959a344.986 344.986 0 0 0 12.322-35.21 307.236 307.236 0 0 0 1.776-6.406 17.516 17.516 0 0 1 .792-1.9c1.342 2.407 1.373 4.857 1.928 7.152-.528 1.507-1.038 3.02-1.586 4.52q-5 13.669-10.016 27.332l-.386.635a.52.52 0 0 0-.082.536l-.533 1.2-15.664 34.381a10.225 10.225 0 0 0-2.057 4.392 2.65 2.65 0 0 1-1.937 1.484 10.232 10.232 0 0 1-3.839-.622 7.435 7.435 0 0 1-.631-4.607c2.214-8.173 3.345-16.542 4.445-24.91.694-5.284 1.1-10.607 1.826-15.886a26.7 26.7 0 0 1 5.506-12.682c2.406-3.132 2.962-6.528 2.682-10.45a231.019 231.019 0 0 1 .726-41.141c.142-1.324.146-2.662.214-3.995l1.042-5.806z" transform="translate(-847.939 2976.884)" style="fill:#143141"/>
            <path id="Trazado_4575" data-name="Trazado 4575" class="cls-19" d="M945.476-2602.8a7.437 7.437 0 0 0 .63 4.606 3.314 3.314 0 0 1-1.184 2.439c-.122.258-.259.509-.363.773-.857 2.187-1.737 4.4 1 5.962 2.292 1.31 4.379.607 6.3-2.014.9-1.225 1.865-2.4 2.8-3.594 1.159-1.479 3.11-3.278 2.1-4.882-1.1-1.739-3.207.149-4.875.456a10.226 10.226 0 0 1 2.057-4.392c8.417.151 16.847-.229 25.249.592.011 2.842.057 5.684.015 8.524a7.159 7.159 0 0 0 .694 3.571l-1.157 2.795c-1.277 1.585-1.962 3.411-.982 5.273a3.4 3.4 0 0 0 4.01 1.554c4.09-1.5 8.3-.206 12.382-.954a16.294 16.294 0 0 0 2.458-.677c.644-.227 1.314-.669 1.279-1.381-.04-.794-.856-.842-1.505-1.03-4.372-1.26-8.733-2.556-13.1-3.84l.391-.992c1.941-1.262 2.011-3.532 2.838-5.377 1.106-2.468 2.022-5.023 3.02-7.54.1.728-.054 1.552 1 1.8 5.924 1.376 11.757 3.567 17.8 3.856 4.651.222 9.241.309 13.736 1.553 3.67 1.016 7.3 2.2 10.976 3.172 1.359.361 2.3.916 2.424 2.377a2.55 2.55 0 0 1-2.19 2.886c-8.173 2.216-16.277 4.74-24.533 6.582-9.736 2.171-19.6 4.125-29.641 3.631-12.057-.592-24.048-1.807-35.743-5.194-5.589-1.618-11.054-3.55-16.566-5.37-2.634-.87-4.065-2.42-4.344-5.02-.3-2.777 1.4-4.686 3.655-5.618a60.286 60.286 0 0 1 14.847-3.977c1.507-.213 3.016-.37 4.522-.55z" transform="translate(-830.923 2892.171)"/>
            <path id="Trazado_4576" data-name="Trazado 4576" class="cls-7" d="M1137.652-2794.09c-7.265 0-14.531.069-21.795-.017-9.165-.109-15.093-8.591-12.032-17.085 1.733-4.809 6.51-8.092 12.352-8.124 14.338-.079 28.678-.106 43.016.007a12.6 12.6 0 0 1 12.335 13.076 12.626 12.626 0 0 1-12.655 12.14c-7.073.015-14.148.003-21.221.003z" transform="translate(-907.825 2984.124)"/>
            <path id="Trazado_4577" data-name="Trazado 4577" class="cls-6" d="M1058.629-2884.218c4.012-.017 8.024-.047 12.036-.048 14.443-.006 28.886-.037 43.328.01 8.335.027 13.976 5.884 13.375 13.735-.518 6.772-6.1 11.391-14.028 11.428-12.434.057-24.869.015-37.3.017q-5.3 0-10.61.016c-1.236-3-1.643-6.212-2.3-9.344-1.13-5.388-3.419-10.427-4.501-15.814z" transform="translate(-888.925 3011.759)"/>
            <path id="Trazado_4578" data-name="Trazado 4578" class="cls-8" d="M828.339-2990.462c-5.637-1.337-11.307-2.55-16.9-4.043-6.743-1.8-10.634-7.144-10.044-14.058.582-6.813 8.317-11.672 14.244-10.357 12.519 2.776 25.011 5.673 37.507 8.549 7.03 1.618 14.065 3.225 21.065 4.964 6.053 1.5 10.322 7.187 9.792 12.766a12.671 12.671 0 0 1-11.647 11.77c-4.408.272-8.567-1.569-12.849-2.4-2.7-.522-5.324-1.444-8.1-1.547a5.347 5.347 0 0 1-3.287-2.437 15.931 15.931 0 0 0-6.317-6.037c-2.757-1.626-5.919-2.6-8.059-5.22a1.311 1.311 0 0 0-2.028-.184c-.818.785-.192 1.388.333 1.932a15.065 15.065 0 0 1 3.588 6.391c.373 1.272.386 1.8-1.236 1.318-1.987-.589-3.91-1.521-6.062-1.407z" transform="translate(-779.36 3069.184)"/>
            <path id="Trazado_4580" data-name="Trazado 4580" class="cls-7" d="M795.137-2919.295c-6.217 0-12.436.1-18.652-.021-9.14-.172-14.534-6.412-13.228-15.118.771-5.136 5.315-9.392 11.112-9.947 3.7-.354 7.45-.226 11.177-.235 9.279-.024 18.558-.07 27.835.022 7.868.078 13.408 5.112 13.643 12.177.249 7.445-5.2 12.926-13.237 13.094-6.213.13-12.433.023-18.65.028zm-18.149-2.966c3.6.128 6.13-1.439 7.062-4.379.692.008.931-.472 1.219-1.006 3.281-6.075-1.2-13.716-8.31-14.145a9.523 9.523 0 0 0-10.323 7.867c-.92 5.43 1.591 9.792 6.4 11.115 1.187 1.133 2.59.693 3.952.549z" transform="translate(-763.063 3037.465)"/>
            <path id="Trazado_4581" data-name="Trazado 4581" class="cls-19" d="M895.439-2860.259c1.395-8.149 2.1-16.455 5.324-24.181a24.037 24.037 0 0 0 .881-2.708c.185-.005.3 1.866.49 1.862 4.792 0 9.2-.219 13.995-.217.183.011.367.018.551.018 3.357 7.242 6.808 14.462 9.008 22.149.651 2.275 1.336 1.679 2.549.775a34.09 34.09 0 0 1 11.038-5.861c3.493-.989 5.581-.047 5.98 3.473a40.876 40.876 0 0 1 .473 7c-.242 4.313-1.524 8.394-1.987 12.627-1.456 2.7-1.954 5.9-4.364 8.094a11.248 11.248 0 0 0-3.069 3.912c-3.1.681-5.827 2.856-9.236 2.35.294-3.678 1.615-7.141 1.952-10.867.524-5.8-.741-11.247-1.894-16.777-.346-1.658-1.564-1.7-2.858-1.647-4.469.178-8.97.263-13.411.2-5.133-.068-10.285.017-15.422-.202z" transform="translate(-819.555 3012.979)"/>
            <path id="Trazado_4582" data-name="Trazado 4582" class="cls-5" d="M989.485-2996.4a3.379 3.379 0 0 1-2.916-3.328 7.131 7.131 0 0 0-5.092-6.53c-.8-.277-1.536-.738-2.317-1.078-3.189-1.386-5.505-3.558-5.707-7.2a9.524 9.524 0 0 1 4.722-9.17c2.75-1.675 5.615-3.163 8.449-4.7a8.728 8.728 0 0 0 4.477-5.966 21.906 21.906 0 0 1 .817-3.021c.786-1.983 1.705-3.854 4.3-3.949a5.179 5.179 0 0 1 5.277 3.594 14.974 14.974 0 0 1 .664 9.694c1.841-1.773 1.255-3.588 2.132-5.556.95 2.34 0 4.067-.091 5.792-.034.687-1.4 1.771.621 2.009.625.073.078.917-.151 1.421a19.573 19.573 0 0 1-3.185 4.336 13.149 13.149 0 0 1-5.324 2.593c-2.147.387-4 .648-3.29 3.558a1 1 0 0 1-.7 1.127c-1.542.468-2.371 1.387-1.528 2.934.828 1.52 1.622 3.481 3.979 2.649 1.352-.478 1.111.386 1.25 1.091.972 4.965-1.118 8.147-6.387 9.7z" transform="translate(-852.645 3078.643)"/>
            <path id="Trazado_4583" data-name="Trazado 4583" class="cls-20" d="M851.959-2970.936c1.953 1.913 8.575 3.571 10.24 3.331 2.727-.4 4.586 1.259 6.253 3.328 5.43 6.747 10.853 13.5 17.268 19.385a27.26 27.26 0 0 0 20.823 7.569l-1.331-2.944a3.461 3.461 0 0 1-1.137-2.6c-1.887-2.651-1.176-5.672-1.218-8.585-2.658.586-3.874 2.837-5.351 4.856a1.8 1.8 0 0 1-.131-1.233c1.493-3.958 1.414-4.249-2.148-6.646-.869-.585-1.781-1.109-2.687-1.638-6.754-3.94-13.761-7.449-20.234-11.867 0 0-3.737-3.675-4.164-4.407a16.984 16.984 0 0 0-6.317-6.037c-2.757-1.625-5.919-2.6-8.059-5.22a1.311 1.311 0 0 0-2.028-.184c-.818.786-.192 1.388.334 1.932a15.068 15.068 0 0 1 3.588 6.392c.373 1.272.386 1.8-1.236 1.318-1.979-.593-3.9-1.525-6.054-1.411a24.716 24.716 0 0 1 3.455 4.536" transform="translate(-799.389 3054.32)"/>
            <path id="Trazado_4584" data-name="Trazado 4584" class="cls-21" d="M1129.92-2981.321c2.93-2.851 6.5-5.049 8.732-8.614.751-1.2 1.821-2.221 1.654-3.837-.071-.689.1-1.435 1.069-1.272.78.131 1.032.792 1.067 1.5a18.662 18.662 0 0 1-1.112 6.723c-.184.568-.921 1.2-.277 1.8.547.511 1.243.117 1.887-.063 1.731-.485 3.478-.916 5.217-1.367a21.048 21.048 0 0 1-4.511 7.347c-5.8-.145-10.4 1.7-12.59 7.565l-.544.476c-2.7-.014-3.972 2.393-5.98 3.556-11.687 6.767-23.464 13.366-37.261 14.663a38.931 38.931 0 0 1-11.921-.259l.083-1.281c2.092-2.343 1.787-5.1 1.374-7.88 4.464.286 7.946 2.648 11.134 5.465.655-.572.371-.961.062-1.334-2.281-2.749-2.322-2.844 1.115-4.29 5.2-2.187 10.8-2.889 16.273-3.974 7.033-1.4 13.175-4.579 19.4-7.921 3.153-1.688 3.728-4.462 5.129-7.003z" transform="translate(-896.046 3058.934)"/>
            <path id="Trazado_4586" data-name="Trazado 4586" class="cls-19" d="M873.25-2799.495a28.715 28.715 0 0 0 6.972 10.766c.3.278.337.843.495 1.275a7.94 7.94 0 0 1-1.144 5.148l-.587.584-3.427.015c-3.172-1.814-5.994-4.166-9.683-5.162-3.275-.884-6.674-.017-9.862-1.163-3.8-1.77-7.758-3.214-11.237-5.621a5.486 5.486 0 0 1-1.372-1c-.962-1.3-3.136-1.889-2.669-4.038.479-2.2 2.644-2.555 4.247-2.885 6.105-1.26 12.3-.938 18.493-.554 3.467.209 6.591 1.484 9.774 2.635z" transform="translate(-796.112 2976.924)"/>
            <path id="Trazado_4587" data-name="Trazado 4587" class="cls-19" d="M909.036-2659.136a.727.727 0 0 1 .283.012c4.838 2.391 7.272-.8 9.542-4.179a34.378 34.378 0 0 0 5.7-21.055c3.347-.009 6.7.082 10.04-.065 2.015-.089 2.79.6 2.576 2.607-.909 8.54-3.674 16.128-10.846 21.5-.284.213-.551.448-.931.758 3.707 1.691 7.855.2 11.419 2.144-3.661 2.963-35.087 2.93-39.053-.047 3.781-1.258 7.571-1.198 11.27-1.675z" transform="translate(-820.423 2926.656)"/>
            <path id="Trazado_4588" data-name="Trazado 4588" class="cls-17" d="M856.882-2777.032a26.531 26.531 0 0 1 9.618.987c3.688 1 5.53 3.326 8.7 5.14 1.31 2.51.9 5.39 1.72 8.006l-.023.027-1.724-.616c.7-1.672-.629-2.44-1.61-2.083-2.047.744-3.469-.279-5.131-.931a17.108 17.108 0 0 0-6.614-1.583c-6.07.105-12.143.035-18.214.035a3.14 3.14 0 0 1-3.688-1.983c-.466-1.368 1.071-2.141 1.965-2.8 2.883-2.133 6.373-2.692 9.811-3.208 1.408-.215 3.074-.674 5.19-.991z" transform="translate(-795.753 2966.122)"/>
            <path id="Trazado_4589" data-name="Trazado 4589" class="cls-21" d="M1001.39-2980.611c5.269-1.548 7.359-4.729 6.385-9.7-.138-.7.1-1.569-1.25-1.091-2.357.832-3.151-1.13-3.979-2.649-.843-1.547-.014-2.466 1.528-2.935a1 1 0 0 0 .705-1.127c-.71-2.909 1.143-3.171 3.29-3.557a13.159 13.159 0 0 0 5.324-2.593c3.218 3.891 5.614 8.135 5.187 13.4-.264 3.262-1.177 6.313-3.992 8.412-.055-.275-.013-.666-.18-.807-1.4-1.17-3.5-3.271-4.44-2.637-1.286.866-.775 3.386.029 5.16q.287 1.653.572 3.307a25.967 25.967 0 0 0-9.129 0q-.023-1.588-.05-3.183z" transform="translate(-864.551 3062.849)"/>
            <path id="Trazado_4591" data-name="Trazado 4591" class="cls-20" d="M1128.574-2955.3c-2.7-.014-5.4 3.566-7.406 4.729-11.687 6.767-23.464 13.366-37.261 14.663a38.939 38.939 0 0 1-11.922-.259c-1.713 1.682-2.427 4.131-4.348 5.652-.064.229-.128.459-.189.685a59.273 59.273 0 0 0 13.978.029s30.802-6.099 47.148-25.499z" transform="translate(-892.68 3042)"/>
            <path id="Trazado_4592" data-name="Trazado 4592" d="M1051.613-2943.271c.413 2.778.718 5.538-1.374 7.88a13.588 13.588 0 0 1-6.139-2.875c-.4-.365-1.3-.859-1.444-.724-2.944 2.7-1.894-.418-2.361-1.526-.618-1.466-2.19-2.047-3.3-3.053-1.782-1.613-4.153-2.281-6.339-3.178a2.447 2.447 0 0 0-2.688.466c-1.714 1.321-4.2.444-6.357.393-.376-.009-.608-.414-.549-.853a.753.753 0 0 1 .784-.679c1.2-.031 2.4-.011 3.973-.011-1.325-1.177-2.632-1.082-3.77-1.463-2.109-.7-3.876-1-3.583 2.3.071.8-.061 2.483-1.435 2.314-1.227-.151-.573-1.582-.725-2.451-.494-2.815.509-4.139 3.52-3.632a15.873 15.873 0 0 0 2.858-.02c9 .363 17.8 1.683 26.2 5.151a6.6 6.6 0 0 1 2.729 1.961z" transform="translate(-870.851 3039.944)" style="fill:#3e8bcb"/>
            <path id="Trazado_4593" data-name="Trazado 4593" class="cls-19" d="M1057.247-2665.216c.156-.83-.137-1.764.574-2.465.429 2.058 2.092 1.294 3.261 1.3q29.263.066 58.528.031h99.19q0 .568-.007 1.137z" transform="translate(-888.336 2919.523)"/>
            <path id="Trazado_4594" data-name="Trazado 4594" class="cls-17" d="M970.073-2816.425c.423-.675 3.268-2.149 5.1-2.873l1.885 9.764-.182-.052c-3.148.608-5.7 3.06-9.1 2.908-1.727.4-7.852 6.914-9.217 7.858-.745.514-1 1.511-1.013.737a66.376 66.376 0 0 1 7.1-9.828c4.969-8.069 4.044-6.901 5.427-8.514z" transform="translate(-845.882 2984.087)"/>
            <path id="Trazado_4595" data-name="Trazado 4595" class="cls-19" d="M844.236-2762.709c6.358 0 14.539.1 20.9 0a14.144 14.144 0 0 1 6.036 1.339c1.741.651 3.544 2.674 5.689 1.93 1.027-.356 2.423.412 1.686 2.083-10.663.3-21.027-1.872-31.466-3.437a5.921 5.921 0 0 1-2.845-1.915z" transform="translate(-799.132 2959.99)"/>
            <path id="Trazado_4596" data-name="Trazado 4596" class="cls-17" d="M921.868-2890.213h-15.461a9.2 9.2 0 0 1 2.527-5.422c2.71-3.326 4.909-3.359 8.152-.475a19.891 19.891 0 0 1 4.782 5.897z" transform="translate(-824.661 3017.945)"/>
            <path id="Trazado_4597" data-name="Trazado 4597" class="cls-20" d="M1172.373-2959.7c2.187-5.866 6.791-7.71 12.59-7.565-1.738 2.642-4.412 3.966-7.2 5.151-1.808.769-3.593 1.605-5.39 2.414z" transform="translate(-937.361 3047.1)"/>
            <path id="Trazado_4598" data-name="Trazado 4598" class="cls-19" d="M975.368-2799.476c3.391.152 5.948-2.3 9.1-2.908l-1.042 5.806c-2.97-.185-6.06-.022-8.058-2.898z" transform="translate(-853.47 2976.884)"/>
            <path id="Trazado_4599" data-name="Trazado 4599" class="cls-19" d="M859.108-2664.847h21l.01.481h-21z" transform="translate(-803.962 2918.316)"/>
            <path id="Trazado_4600" data-name="Trazado 4600" class="cls-7" d="m1065.063-2834.893 1.784 1.1c-.723 4.075.073 8.154-.039 12.229a23.491 23.491 0 0 1-1.046-7.95c.165-1.7-.861-2.352-2.79-2.669-2.042-.335-1.885-2.107-1.594-3.719z" transform="translate(-890.529 2990.845)"/>
            <path id="Trazado_4601" data-name="Trazado 4601" class="cls-20" d="M1015.779-2967.192c-.8-1.774-1.315-4.294-.029-5.16.94-.634 3.042 1.467 4.439 2.637.168.141.125.532.18.807a6.53 6.53 0 0 1-4.59 1.716z" transform="translate(-870.333 3049.312)"/>
            <path id="Trazado_4602" data-name="Trazado 4602" class="cls-17" d="m907.4-2766.762.587-.584c2.5 2.177 4.525 4.66 5.167 8.032l-.024.02z" transform="translate(-824.527 2961.963)"/>
            <path id="Trazado_4605" data-name="Trazado 4605" d="M1069.769-2774.555a19.24 19.24 0 0 1 .056-9.715q-.025 4.859-.056 9.715z" transform="translate(-893.415 2969.17)" style="fill:#0b2971"/>
            <path id="Trazado_4607" data-name="Trazado 4607" class="cls-17" d="M960.381-2786.185a1.054 1.054 0 0 1 1.152-1.147l.007.008a1.054 1.054 0 0 1-1.144 1.153z" transform="translate(-847.088 2970.474)"/>
            <path id="Trazado_4609" data-name="Trazado 4609" class="cls-17" d="M959.379-2784.189a1.174 1.174 0 0 1 .575-1.145l.015.013a1.18 1.18 0 0 1-.575 1.145z" transform="translate(-846.661 2969.624)"/>
            <path id="Trazado_4610" data-name="Trazado 4610" class="cls-17" d="m904.412-2752.36.745.237-.149.218-.619-.428z" transform="translate(-823.244 2955.582)"/>
            <path id="Trazado_4611" data-name="Trazado 4611" d="m984.48-2881.558.517.728q-.064.276-.147.548a1.264 1.264 0 0 1-.37-1.276z" transform="translate(-857.337 3010.599)" style="fill:#eaf7fe"/>
            <path id="Trazado_4612" data-name="Trazado 4612" class="cls-17" d="m962.387-2787.514.136-.246-.129.253z" transform="translate(-847.942 2970.656)"/>
            <path id="Trazado_4615" data-name="Trazado 4615" class="cls-7" d="m1030.114-2837.62 1.837-.384a6.264 6.264 0 0 0 5.547-.025 1.843 1.843 0 0 1 1.859.4c.512 1.778 3.595-.082 2.939 2.717-.688 2.936-2.618.434-3.942.452a130.641 130.641 0 0 0-16.248.8c-.812.113-2.167.594-2.33-.958-.19-1.807 1.315-.977 2.03-1.429 2.639-1.668 5.74.566 8.308-1.573z" transform="translate(-874.054 2991.552)"/>
            <path id="Trazado_4616" data-name="Trazado 4616" class="cls-21" d="m1025.446-2580.6-.391.993c-.361 1.332-.241 3.029-2.115 3.325-1.671.264-1.853-1.258-2.429-2.271l1.157-2.8a4.584 4.584 0 0 0 3.778.753z" transform="translate(-872.693 2882.761)"/>
            <path id="Trazado_4617" data-name="Trazado 4617" class="cls-7" d="m1004.956-2833.82 3.417-.757c.794.254 1.995-.042 2.046 1.244s-1.1 1.154-1.943 1.314a25.706 25.706 0 0 0-3.589.606c-2.684.934-2.552-.269-1.92-1.988l.056.042c.711.088 1.424.182 1.933-.461z" transform="translate(-865.618 2990.593)"/>
            <path id="Trazado_4618" data-name="Trazado 4618" class="cls-19" d="m1005.131-2665.419 10.87.037c-.092.644.248 1.021-.377 1.505-2.962-.281-4.566-.116-6.761-.333a41.969 41.969 0 0 0-4.265-.009l.533-1.2z" transform="translate(-865.917 2918.56)"/>
            <path id="Trazado_4619" data-name="Trazado 4619" class="cls-7" d="M988.548-2825.961c-.478-2.906 2.363-2.687 4.034-3.57 1.9.5 2.087 1.3.25 2.063-1.385.568-3.011.624-4.284 1.507z" transform="translate(-859.059 2988.444)"/>
            <path id="Trazado_4622" data-name="Trazado 4622" class="cls-7" d="M1005.087-2833.308c-.472.643-1.135.549-1.8.462.471-.673 1.142-.543 1.8-.462z" transform="translate(-865.36 2990.081)"/>
            <path id="Trazado_4623" data-name="Trazado 4623" class="cls-17" d="M1308.5-2965.847a.987.987 0 0 1 1.159-.225c-.311.443-.732.342-1.159.225z" transform="translate(-995.33 3046.626)"/>
            <path id="Trazado_4624" data-name="Trazado 4624" d="M913.591-2763.131c-.643-3.372-2.666-5.856-5.167-8.033a7.94 7.94 0 0 0 1.144-5.148c3.288.275 5.7 2.965 9.026 3.248.773.065.633 1.236.73 1.989.78 6.057.529 12.143.583 18.222.014 1.628.187 3.256.041 4.924a74.958 74.958 0 0 0-3.6-11.155c-.68-1.467-.792-3.416-2.757-4.047z" transform="translate(-824.963 2974.345)" style="fill:#d7eef7"/>
            <path id="Trazado_4626" data-name="Trazado 4626" class="cls-19" d="M923.73-2841.378c.79 6.628 1.739 16.5 2.528 23.125-.4.033-.724 2.249-1.128 2.282-.669-6.625-1.281-15.529-1.951-22.154z" transform="translate(-831.504 2993.489)"/>
            <path id="Trazado_4627" data-name="Trazado 4627" class="cls-19" d="M926.864-2797.277c-.071-.025-.2-.048-.2-.076a.75.75 0 0 1 .074-.244c.071.025.2.049.2.075a.757.757 0 0 1-.074.245z" transform="translate(-832.729 2974.845)"/>
            <path id="Trazado_4628" data-name="Trazado 4628" class="cls-6" d="M967.673-2596.676c1.668-.308 3.777-2.195 4.875-.456 1.014 1.6-.938 3.4-2.1 4.882-.937 1.2-1.9 2.37-2.8 3.594-1.921 2.622-4.008 3.324-6.3 2.014-2.74-1.566-1.859-3.775-1-5.962.1-.265.242-.516.361-.771.774.951.862 2.735 2.7 2.409 1.54-.274 1.613-1.69 1.96-2.853.135-.454.246-.916.367-1.374a2.649 2.649 0 0 0 1.937-1.483z" transform="translate(-846.713 2889.791)"/>
            <path id="Trazado_4629" data-name="Trazado 4629" class="cls-21" d="M966.633-2593.677c-.122.458-.232.92-.367 1.374-.347 1.163-.42 2.578-1.96 2.853-1.837.327-1.925-1.458-2.7-2.409a3.319 3.319 0 0 0 1.186-2.441 10.218 10.218 0 0 0 3.841.623z" transform="translate(-847.609 2888.275)"/>
            <path id="Trazado_4632" data-name="Trazado 4632" class="cls-19" d="m1006.055-2667.459-.385.636z" transform="translate(-866.373 2919.428)"/>
            <path id="Trazado_4633" data-name="Trazado 4633" class="cls-6" d="M1019.439-2577.266c.575 1.013.758 2.534 2.429 2.271 1.874-.3 1.754-1.994 2.115-3.325 4.365 1.284 8.726 2.579 13.1 3.839.649.187 1.465.235 1.505 1.03.036.712-.635 1.154-1.279 1.381a16.284 16.284 0 0 1-2.458.677c-4.081.748-8.292-.55-12.382.954a3.4 3.4 0 0 1-4.01-1.554c-.982-1.861-.297-3.687.98-5.273z" transform="translate(-871.62 2881.47)"/>
            <path id="Trazado_4634" data-name="Trazado 4634" class="cls-12" d="M1211.39-3016.759a8 8 0 0 1 8.011-7.981 7.756 7.756 0 0 1 7.751 7.867 8.237 8.237 0 0 1-8.108 8.095 7.8 7.8 0 0 1-7.654-7.981z" transform="translate(-953.975 3071.57)"/>
            <path id="Trazado_4635" data-name="Trazado 4635" class="cls-12" d="M1128.556-2998.969a7.673 7.673 0 0 1 7.84 7.787 8.536 8.536 0 0 1-8.28 8.375 8 8 0 0 1-7.7-8.219c.09-4.474 3.084-8.056 8.14-7.943z" transform="translate(-915.234 3060.598)"/>
            <path id="Trazado_4636" data-name="Trazado 4636" class="cls-13" d="M1129.037-2992.556a2.2 2.2 0 0 0-2.107 1.738c-.247 1.164-.9 1.291-1.891 1.276-2.521-.037-2.587-.094-1.739-2.523a6.459 6.459 0 0 1 7.008-4.259 6.537 6.537 0 0 1 5.551 5.474c.1.736-.038 1.23-.931 1.178a9.206 9.206 0 0 0-1.328.018c-.7.06-1.113-.085-1.309-.9a2.452 2.452 0 0 0-2.208-2c-.053-.032-.107-.064-.162-.1-.406-.65-.119-1.444-.427-2.114a5.02 5.02 0 0 1-.038 1.863c-.08.191-.187.346-.419.349z" transform="translate(-916.256 3059.49)"/>
            <path id="Trazado_4637" data-name="Trazado 4637" class="cls-14" d="m1132.756-2990.021.183-.273c.332-.271.558-.05.784.169l.078.1c-.155.591.112.945.559 1.34a1.642 1.642 0 0 1 .074 2.643 1.519 1.519 0 0 1-2.339.087 1.762 1.762 0 0 1 .135-2.673 1.49 1.49 0 0 0 .526-1.393z" transform="translate(-919.975 3056.955)"/>
            <path id="Trazado_4638" data-name="Trazado 4638" d="M1181.018-2999.432c1.272.213 2.364-.454 3.537-.722.233.43-.059.539-.384.661-.892.335-1.77.713-2.67 1.024a1.659 1.659 0 0 0-1.134 1.031 1.734 1.734 0 0 1-2.572.933 1.585 1.585 0 0 1-.811-2.277 1.763 1.763 0 0 1 2.65-.709 1.208 1.208 0 0 0 1.384.059z" transform="translate(-939.235 3061.101)" style="fill:#d55d41"/>
            <path id="Trazado_4639" data-name="Trazado 4639" d="m1134.751-2992.547-.784-.169a14.548 14.548 0 0 1 .2-3.391 7.566 7.566 0 0 1 .584 3.56z" transform="translate(-921.002 3059.377)" style="fill:#d86c1c"/>
            <rect id="Rectángulo_3233" data-name="Rectángulo 3233" width="104.034" height="25.514" rx="12.757" transform="translate(25.323 127.766)" style="opacity:.465;fill:#bfe2f7"/>
            <circle id="Elipse_922" data-name="Elipse 922" class="cls-30" cx="10.432" cy="10.432" r="10.432" transform="translate(2.936 95.105)"/>
            <g id="Grupo_6097" data-name="Grupo 6097" transform="translate(103.42 84.938)">
                <g id="Grupo_6096" data-name="Grupo 6096">
                    <path id="Trazado_4640" data-name="Trazado 4640" class="cls-30" d="M990.876-2953.716s29.386 13.631 28.215 15.922l-.017.034c-2 3.336-5.035 6.31-6.884 8.728-3.169 4.14-4.519 3.146-4.519 3.146a15.794 15.794 0 0 0-2.417-1.068c-5.839-3.238-9.514-3.118-9.514-3.118 4.272 2.538 5.828 1.912 6.775 4.892.913 2.871 11.994 33.962 3.319 35.885-2.94-.092-6.627.587-11.617.92-24.419 1.642-25.331 7.537-25.331 7.537s-1.28 1.573.528-11.839c-1.7-25.263-4.461-25.751-5.679-29.857s-3.445-1.8-6.356-.4-2.343 1.59-4.3 1.969c-11.15-5.2-9.847-19.476-9.847-19.476 14.148-12.316 26.8-9.594 27.606-12.385.3-1.051 1.217-3.434 2.05-3.784 8.257-4.122 16.794.2 18.052.9s-.495 1.656-.064 1.994z" transform="translate(-943.184 2958.37)"/>
                    <path id="Trazado_4641" data-name="Trazado 4641" class="cls-31" d="M1044.23-2905.967c-.993-.31-1.659-.2-.465 1.373 2.44 3.215 8.515 26.136 9.744 29.822s2.635 9.853 1.55 9.766c-.861-.063 1.177-2.951-10.249-3.3 8.676-1.923-2.406-33.014-3.319-35.885-.947-2.98-2.5-2.354-6.775-4.892 0-.001 3.675-.122 9.514 3.116z" transform="translate(-982.162 2937.383)"/>
                    <path id="Trazado_4642" data-name="Trazado 4642" class="cls-31" d="M1056.338-2941.921a11.253 11.253 0 0 1-1.878 7.579c1.171-2.291-28.215-15.922-28.215-15.922 12.087.299 30.122 3.979 30.093 8.343z" transform="translate(-978.555 2954.918)"/>
                </g>
            </g>
            <path id="Trazado_4643" data-name="Trazado 4643" class="cls-32" d="M928.092-2772.71s2.29 50.3.914 51.206" transform="translate(-833.338 2964.248)"/>
            <path id="Trazado_4644" data-name="Trazado 4644" class="cls-32" d="M901.73-2756.385s15.574 12.792 14.787 39.658" transform="translate(-822.112 2957.296)"/>
        </g>
        <rect id="Rectángulo_3234" data-name="Rectángulo 3234" class="cls-33" width="7.464" height="1.723" rx=".861" transform="rotate(-25.97 2113.436 -750.475)"/>
        <rect id="Rectángulo_3235" data-name="Rectángulo 3235" class="cls-33" width="8.613" height="1.723" rx=".861" transform="rotate(-11 4668.847 -2438.544)"/>
        <rect id="Rectángulo_3236" data-name="Rectángulo 3236" class="cls-33" width="8.613" height="1.723" rx=".861" transform="matrix(.999 -.052 .052 .999 562.795 843.49)"/>
        <rect id="Rectángulo_3237" data-name="Rectángulo 3237" class="cls-33" width="8.613" height="1.723" rx=".861" transform="rotate(2 -23857.895 16890.89)"/>
        <rect id="Rectángulo_3238" data-name="Rectángulo 3238" class="cls-33" width="4.948" height="1.723" rx=".861" transform="rotate(16.05 -2703.137 2504.157)"/>
    </g>
</svg>
